<mxfile host="app.diagrams.net" agent="Mozilla/5.0 (Windows NT 10.0; Win64; x64) AppleWebKit/537.36 (KHTML, like Gecko) Chrome/131.0.0.0 Safari/537.36" version="25.0.3">
  <diagram name="第 1 页" id="XrflICaSEJCp86R3Ttc2">
    <mxGraphModel dx="1302" dy="711" grid="1" gridSize="10" guides="1" tooltips="1" connect="1" arrows="1" fold="1" page="1" pageScale="1" pageWidth="827" pageHeight="1169" math="0" shadow="0">
      <root>
        <mxCell id="0" />
        <mxCell id="1" parent="0" />
        <mxCell id="f3oY8Qm6XaTq2EdM98An-4" value="" style="rounded=1;whiteSpace=wrap;html=1;" vertex="1" parent="1">
          <mxGeometry x="20" y="85" width="780" height="255" as="geometry" />
        </mxCell>
        <mxCell id="f3oY8Qm6XaTq2EdM98An-1" value="&lt;font style=&quot;font-size: 15px;&quot;&gt;acquireQueued&lt;/font&gt;" style="rounded=1;whiteSpace=wrap;html=1;" vertex="1" parent="1">
          <mxGeometry x="40" y="110" width="120" height="40" as="geometry" />
        </mxCell>
        <mxCell id="f3oY8Qm6XaTq2EdM98An-3" style="edgeStyle=orthogonalEdgeStyle;rounded=0;orthogonalLoop=1;jettySize=auto;html=1;entryX=0.5;entryY=0;entryDx=0;entryDy=0;curved=1;" edge="1" parent="1" source="f3oY8Qm6XaTq2EdM98An-2" target="f3oY8Qm6XaTq2EdM98An-1">
          <mxGeometry relative="1" as="geometry" />
        </mxCell>
        <mxCell id="f3oY8Qm6XaTq2EdM98An-2" value="&lt;font style=&quot;font-size: 15px;&quot;&gt;如果获取同步状态失败，就会构建节点加入阻塞队列&lt;/font&gt;" style="text;html=1;align=center;verticalAlign=middle;resizable=0;points=[];autosize=1;strokeColor=none;fillColor=none;" vertex="1" parent="1">
          <mxGeometry x="10" y="10" width="370" height="30" as="geometry" />
        </mxCell>
        <mxCell id="f3oY8Qm6XaTq2EdM98An-5" value="" style="shape=image;verticalLabelPosition=bottom;labelBackgroundColor=default;verticalAlign=top;aspect=fixed;imageAspect=0;image=data:image/png,iVBORw0KGgoAAAANSUhEUgAAAxoAAAFTCAIAAAAx6u2IAAAgAElEQVR4Aey9B1RVR98+irpMoivGZCWWv/rqiu1ab6JyjeUqkY+6BPSiKC9VqlSpEZWgyKugH2p8FTAKIggGacIBpGhARKmnCgKhRprUUA7hlM05Z657D2e7qSIHC2Fm/djMmT2/Kc/Mnnn2tC0HkEEIIAQQAggBhABCACGAEJABATkZdJEqQgAhgBBACCAEEAIIAYQAQHQKVQKEAEIAIYAQQAggBBACMiGA6JRM8CFlhABCACGAEEAIIAQQAohOoTqAEEAIIAQQAggBhABCQCYEEJ2SCT6kjBBACCAEEAIIAYQAQgDRKVQHEAIIAYQAQgAhgBBACMiEAKJTMsGHlBECCAGEAEIAIYAQQAggOoXqAEIAIYAQQAggBBACCAGZEEB0Sib4kDJCACGAEEAIIAQQAggBRKdQHUAIIAQQAggBhABCACEgEwKITskEH1JGCCAEEAIIAYQAQgAhgOjUh68DEonkwycCpQAhgBBACCAEEAIIgbEigOgUwAjzPjmNhDCwyEQi0fuMeqz1BOkhBBACCAGEAEIAITAsApOdTonFYgDAeyY07zm6YQsf3UAIIAQQAggBhABCYDwQmOx0qrq6Ojo6+vr16y9evBgPPEcbRltbW3h4eGBgYElJyWh1kD+EAEIAIYAQQAggBD5KBCY7nXr48OG6des++eSTsLAwDMPeWxkVFhYuWbLks88+u3bt2nuLFEWEEEAIIAQQAggBhMC7QGCy06mnT5+uWLFi6tSpoaGhPB4PAEBO/w05JUdSLvIutGAYRrrAchKJROQ0olAoJO3Qkp+fv2TJEjk5uaCgoHdRrihMhABCACGAEEAIIATeGwKTnU4lJiauWbMG0hqBQAC5FORMAoEAEiwulwu5EbwLAL56HZYQSaGgRSKRCAQC6JksQrFYPJhO5eTkLF68eObMmX5+fqRPZEEIIAQQAggBhABCYCIiMNnpVGpq6rJly6ZNmxYSEpKVleXj43Py5MkzZ86UlpbyeDyBQEAOPuXk5Jw+ffr48eNeXl6pqalCoZAcx+Lz+TU1NSEhIe7u7ufOnfPw8IiOjm5sbITEC7IrgUAQGxvrTZjY2NjMzMzFixdPnTr1+vXrE7HeoDQjBBACCAGEAEIAIUAiMNnpVFpaGpzsU1dXV1ZWnj59+pQpU+Tk5HR1dUtLS0mY4uLilJSU5KRGUVExKCiotbUVAMDn81+8eGFjY7Ny5Uo5ObmpU6fKycl99913Fy5cqK6uxjBMLBbX1tZevnz5+++/n0mY77//3sDA4Msvv5STk7t69SoZC7IgBBACCAGEAEIAITAREUB0Km3VqlVycnIrV650cnLy8fGxs7ObNm3alClTQkND4VKq8vLyjRs3fvXVV46OjufOnbO2tl61atW2bdsSEhIkEklXV5evr++yZctUVVVPnTrl4+NjYGDwxRdfyMvLx8fHC4XC9vb28PDw1atXy8nJ7du3z9fX9+TJkz/88MMnn3zy6aefoqXoE/GxQWlGCCAEEAIIAYQAFYHJTqcyMjKWL18uJydnYWFRV1cHACgvL9+8efP06dNdXFwwDONyua9I0qeffqqurl5eXg7n9ezs7L766is3N7e2tjY+n5+bmxsUFJSZmdnd3S0UCkNDQ9euXbt8+fKQkBAAQHV1tYGBwaxZs77//vuMjIzu7m6BQODt7T137lw0OkWti8iOEEAIIAQQAgiBCYrAZKdT6enpcJLuxo0b3d3dAICWlhYdHZ1p06YZGRlxudzW1tb9+/fLycl9//33JiYmZmZmxsbG8vLyn332mYqKSlFREZzOg+uo6urqrl27tn379nnz5q1fvz48PFwgEBQVFSkoKEydOvXMmTPNzc2womRlZX377bdycnJXrlyZoFUHJRshgBBACCAEEAIIAYjAZKdTaWlpcGffnTt3Ojo6JBIJl8s9ePCgnJycvb09l8ttaWlRUVGBi6bgyqrp06d/8sknkGBlZGQAAGpqai5cuGBtba2urr548eJp06ZNnz591apVd+7c6enpyczM3L59u5ycXEBAQFdXF8Q9Ly8P+kQ7+9CjiBBACCAEEAIIgYmOwGSnUw8fPoSrmoKDg+HoVGdnp7a29qxZs6ysrLhcbmNjI6RTGhoaISEhcXFxwcHB4eHh0dHRaWlpzc3NpaWlbm5uixcvnjFjxsGDBwMCAhwcHNatW7dmzZrQ0NCenp5Hjx5t2bJFTk7O19cXRgEAKCwsXLhw4ZQpU/z9/Sd6HULpRwggBBACCAGEwCRHYLLTqYyMDLgUfQCd+uyzzywsLLq7u1tbWw8cODBr1ixra+vOzk6SD8F6I5FIMjMzN27cuGjRIhcXFw6H09nZGRMTs2HDBnl5+ejoaAzDOBzO1q1bp02b5uLiQp6ekJycvGDBAjk5ObQUfZI/gSj7CAGEAEIAIfAPQADRqaHp1NSpU83MzPh8fldXl7e399SpU5cuXUqj0eDS8jNnzmhra/v5+fX09CQkJGzcuPHbb7+9dOlSd3d3Q0ODpaXlZ599tmrVqsjISAzD2trabG1t582bt3nz5ocPHwqFwqamJhsbm6+//hrRqX/AI4SygBBACCAEEAIIAUSnhqZTcnJypqamQqGQx+NVVlbu3r17+vTp69at27lz57Zt2+bMmbN69erIyEiJREKn01VVVeXk5FavXq2kpLRp06avvvrq1THrixYtunLlChzNSkhIWL9+/cyZM9euXbuTMAsXLpw5cyZaio6eQIQAQgAhgBBACPwDEEB0KgMuRQ8NDeXz+QCA9vb2AwcOzJ4929TUlPzuHovFcnFxmTp16rRp02bMmLFnz56YmBix1NBotK1bt8IzPLdu3Xr58mUzM7M5c+Y4ODhUV1eLRCIul5uZmampqfkpYTQ1Nc+dOzd//vwpU6Zcvnz5H1CNUBYQAggBhABCACEwmRGY7HSqp6eHxWI9ffq0sbFRJBL19PQAAEpKSvLy8mpra0UikVgs5vP5IpGoqanp8ePHbDabTqdXVlbCD/xJCZW4srIyKysrNze3srKyubm5pqaGxWK9ePFCIBDA6sXj8aqqqvIJU1VV1dXVVVFRQafT29vbJ3P9Q3lHCCAEEAIIAYTAPwCByU6nyCKE3+YTEgYjjEAggONVpJ8BFolEAukU+SFk0gNVUUQYqh/SLhKJqD5JdWRBCCAEEAIIAYQAQmACIYDoFF5Y8BBOOLVHFh7JliAfgu4SiQTDMIFAgGEYVISMCsMwqA7d4cePAQADwoR0DQYFSRtJrch4kQUhgBBACCAEEAIIgYmFAKJTbyivwXRHIjWkplAoJO2DLVLvw/4frIJcEAIIAYQAQgAhgBCYQAggOvXWhUWlRSUlJTExMYMpFzVQqv8h7VTPyI4QQAggBBACCAGEwIRDANGpty4ykhKJxeLk5GRLS8uRgyD9D2cZWR3dRQggBBACCAGEAELgI0cA0am3LiCSFQEAkpKSjI2N4dKr4QIi/Q9nGU4RuSMEAAADqs37x2Tkwdf3n56JGyNZlGPLAiqIseGGtBAC7wcBRKdkwjkxMXH//v0yBYGUJx8CfD5/QNc4YMsCAAAuyIP7IchumGqBsMGdoeS3j8hwJBLJADv0yePxqFsrMAyjvgzAcz3I7RQfA5n7OGsHLD7qzhJqOkUiERVDEmFYKNSihwVHdeHxeKR/coMLNXBYKDB8WMQ8Ho/qAf6USCQjr+mkqiA7QgAhIDsCiE7JhCGiUzLBNymVIYMhu8w3YkDuMB3uVA7oAQAA+1GxWEx2zyKRiLoLlRoXTMDgZAxwGcDnqCFMcjskNCTUEA3IWUkeMxhMSIip0EkkEqglEolgaGKxmKTCkOCSZSqRSMij7CCvIn/CQ/KgIwwfVhhqXMiOEEAIvDsEEJ2SCVtEp2SCb1Iqi0Sirq4usu+kYsDn87lcLp/P5/F4QqGQ2kGSXGpAfywUCgUCAfwaEgCAz+fDLnzIwQkYPrWPFwqF8JRamAyoxeVyyVQNFy/pYXJaSAJE8h4SB0izBAIBHGeCCJN8iPQ22ALHtLq7u6EFRsHn83t6ejAMow43isVi6jEr8OgWGCAsXHigXU9Pz+DkDY4XuSAEEALjggCiUzLBmJCQsG/fPpmCQMqTCYH29vbg4OD9+/cHBgZSaY1AIOjp6fH29tbS0kpKSmptbbW3t9+/fz+bzSbpEXWmjxwFKS4uVlJSgh+CtLW1bWpqAgB0dHTExcUZGBjExsZ2d3fDEDo6Ovz9/bW0tO7evdvV1dXS0uLl5eXi4sJkMnk8HpfL7ezsfPHihZGRkaam5vPnz+GxatRIB4zETKZyG5jXtra2S5cuaWlpwc+iU283NjY6ODhoa2vT6XQul6unp6epqUnSXKpP0i4UCnNzcxUVFffu3aukpOTt7d3e3g6/v37jxg0nJ6eHDx/y+Xw40Njd3e3p6amiopKRkdHW1tbV1WVpaXnixInq6mrIp7u6uurr6/fs2XPw4EHIw8iIkAUhgBB4dwggOiUTtohOyQTf5FAWiUTd3d0dHR01NTXXr19XVFT08vIqLi6ura2tqanp6Ogg54YwDDt79qyBgUFqaqqlpeWPP/6YmZlZV1fX0NDQ0dFBjjRQByoqKir27t177NixrKwsQ0NDT09PGo1mZ2fn7e2trq6uq6urqal55cqV+vr6hoaG69evq6mpBQQEHD9+3MvLy8LCQldXV0ND48aNG3p6et98880XX3yhoaFRU1MDSwbGSGVUk6PEhs1la2trZ2dndXW1h4eHkpKSv7//ixcvWltbW1pampub4cQohmE8Hs/e3l5XVzcvL09bW1tBQaGoqKiurq6lpaW7u1soFJLzs2RMDAZDXV39ypUrCQkJe/bs8fX1jYiIOHPmjJOT0759+/YSJiIioqmpqaOjw93dXVlZOTo62sLC4sKFC5qamnp6evr6+hEREQcOHJgxY8aCBQv279/f1NRE1hkyImRBCCAE3hECiE6NHViJREKj0bS1tdFb+9hBnASaAoEgKSlpw4YNs2fPXrp06eLFi5ctW7Z48eJFixbNnTt3/fr1ISEhDQ0NzYQpKytrb28vKyszNTVds2bN4sWL58+fv2rVqgMHDlRUVHR2dtbW1r548aKqqqqurq62tjYjI0NVVdXNza2kpKSyspLL5XZ3d9NotG3btk2ZMuW7777z9fUNCgratWuXv7+/r6+vsrLyjz/+qKOjY2lpuWjRok8++WT37t0ZGRnm5ubq6uqFhYVkgZBdPqJTEJOWlpagoKD169fPmzdv9erVS5Ys+fbbbxctWrRgwYIZM2Zs3749PT29qampqqqqpaWlvr6ez+dXVVXp6urCsv72229XrFhhY2PT3t7e0dHR0NBQU1NTVVVVW1tbWVkZFRW1d+/eM2fOVFVVNTU1dXd3YxgWGRm5fv36mTNnbtmyJTg4+PTp06qqqhEREa6urkqE0dPTMzU1XbJkyVdffaWtrc1kMvfs2bN79+76+no450iWJrIgBBAC7xoBRKfGjjCiU2PHbjJpikSi1NRUNTW106dPk8uS4NyNv7+/mpranTt3fvnll3Xr1k2fPn3OnDkeHh7W1tbKysoxMTEVFRXl5eXPnz9vamqqq6uztrZes2bNihUrlixZMn/+/GXLli1atGjGjBnz5s379ttvt27deu7cOUizgoKCFBQU3NzcioqKbt68qaysfPHiRS8vL3V19Z07d+rp6UVHR9vY2Gzbti04OLi6utrGxmbnzp00Gq2ioqKqqorcXwYX/ZCMajKV28C8CgSCsLAwTU3Nmzdv9vT0kHTzlf3kyZPKyspJSUmenp5Lliz57LPPFi5ceP78eRMTEzU1tZycnOLi4tLS0pqamtraWsix1qxZs3r16nXr1i1fvnzNmjXffPPN559/Pnfu3BUrVmzbti0sLKypqamystLHx2f79u0XL16sqqo6d+6cqqpqWFiYs7OzsrLyrl27LCwsUlNTdXV1d+7cGR8fX1VVdfDgQQUFhadPn3I4nObm5oF5QL8RAgiBd4YAolNjhxbRqbFjN5k0BQJBamqqqqqqra1tXl4eg8EoKSlhsVg5OTlOTk6wg2xqanJ3d1dXV09ISPD19aXRaG5ubtu3b58zZ86sWbOmTZu2a9eu5uZmuDidug+fzWYrKyvb2tp2dHTAb0QyGAxdXd2lS5fOmzdvwYIF1tbWnp6eampqV69e9fHxUVNTU1BQWLVq1fLly2fNmvXll18uWbLk5s2bZmZmS5Ys+fzzz2fNmqWvr9/e3k4uaia51CQfheXz+UFBQTt37vTw8MjPz6fT6SUlJRwOJz8/38bGRlFRMS8vr7u728nJSV1dPScn5+TJkzQazcXFRV5efvbs2Z988smsWbPU1dU7OzsBAD09PeSXPTEMe/Dgwe7du0+fPg1nAwUCwcOHD1VVVefPnz9jxoxFixY5OTm5uLgoKytHRUW5ubnt3LlTWVl56dKly5cvX7BgwaxZs5YtWxYVFXXgwIEVK1bMnj17xowZFhYWk+k5+zB5HeGhGOHWKNMKH71RekbePjgCiE7JVARo7ZRM8E0OZZFIlJaWtmnTpn/9619bKGbt2rULFy5cu3ZtVFRUW1ubp6fnjz/+6Ofnl5eX19DQUFRU9GoayMDAYPfu3fr6+mZmZg0NDSKRqKSkJC8vLz8/n8lksgijrq5ubW0NN8zDK5/Pp9FoampqFy9e7O7uvnnz5oEDBwICAnx8fFRVVbds2WJkZBQXF2dtba2oqHj79u3GxkZbW9vAwEBdXd3du3eXl5eT++1l7xL+MYXM5XJv3ry5Zs2alStXrlu3bvPmzT/88MOWLVs2bNgwf/78jRs3Pn36tLOz09HRcceOHREREXQ6vaurq7q6uq6uTkVFRVNTU0dHx9nZGW7e5HA4dDqdwWCwWKyioqKkpCR1dXUPDw9yLd0rZtbV1eXn56eurh4aGtrU1HTu3DkNDY2bN286Ojq+YmwqKioODg7x8fE6OjqKioqJiYkVFRWamppRUVGqhGlra/vHgP8xZAS+zIzwRAgEAvKQi9GsWoMbaanTsiR/oi5bhK9J8AoX3pGnY5A7TKn4jJBCqjdkH3cEEJ2SCVJEp2SCb3IoYxiWkpKirKx8/vx56khPe3v71atX9+zZc/v27draWh8fnyVLlqxdu3bx4sVnzpzR19cPCQnR0dGxt7evra2FUHV0dLi6ur6a/Zk1a9b8+fNVVVWjoqLg6JRAIBCJRFwut7KyMisr6/Lly5s3b3ZxcUlMTLxw4YKCgkJAQMDFixcVFBQ0NTU1NDQOHjy4fv36WbNmycvL371719LScgCdmhyF8xa5FAqFYWFhSkpKgYGB1C7w1WjTqVOntLS0Hjx40NnZ6erq+vXXX8vLyy9atCg4OFhHRyc6OlpNTc3MzKyrq0soFIrF4qqqKnNz8/Xr18+dO/err77at29fSEiIurr60aNHW1paxGJxR0cHnU5PT093d3ffsmXL2bNnU1NTTU1N1dXVo6KiTpw4oaCgoKKiAssRDisqKCg8evRIR0cH0am3KNS38UqeEAZPDxEIBAOIC3UfJXXf7ugjGUDCSHYFQyBP64XH/A6InXrI3OhjRD7HEQFEp2QCE9EpmeCbHMrd3d3p6ek//vijlZXVQ4pJTU21t7f/8ccfX62G4XK5np6e6urqNBrN2dn56tWrRkZGoaGhBgYGWlpakZGRz58/J5vaVyvQd+7cqa6u3tHR8eLFCxsbGwMDg+Li4p6eHjab7erq+molzffffz9v3ryVK1du37591apV33333YULF86fP79r166dO3euWLHi9OnT1tbW6urqRkZG4eHhhoaGiE6NXB+5XO7du3d37tx5/Pjx5OTkjIyMR48ePX78OC0tzcTEREVF5cGDBx0dHXDi79GjR8bGxiEhIbt3775z546GhsbevXtTU1NZLBbcyCkWiysqKlRVVe3t7VtaWlgsloWFhbu7e11dHYZhqamp5ubmCgoK69atmzNnzurVq5WUlFasWLF169aQkBA3N7ddu3Zt2bJlwYIFFy5cMDY23rt3r4mJSUpKira2NqJTI5fj2O7yeLzS0tKSkhJyipY8jL6jo4PD4VRXVwsEgpaWluLi4rq6upHpFIZhlZWV5eXljx8/5nA4kCfBhZWFhYWlpaUkdYOHX8CZZXgCMIyO3H4LDzRpampiMBj19fUjxzu2vCOtUSKA6NQogRraG6JTQ+OCXPsjkJKSIi8vv3btWjgLA6+7du1au3btxo0bIyMjW1tbT58+vXv37sjISAcHh8DAwFcnF/j5+enp6X377bfbt28/fvw4bG3FYnFLSwucAeRyuQKBgMPhHDhwwM/PLzc3F5Kq1tbW4OBgAwODiIiItra21NRUDw8PGo126dKlXbt27dixQ1NTMzQ01NnZ+dVkIp1Ob2lpsbe3R3Sqf6EN/MXj8QIDA9euXSsvL79jxw4VFRVVVVU1NbUdO3YsXbp0w4YNqampTU1NdnZ2ampqjx8/NjAwiIyM3LNnD41G09DQmDNnjoaGxsmTJ7u6ugAAXV1dbDZ77969tra2cPovISHB2NjY39+fw+HU1NQIBILKysqzZ8/q6upmZ2dzudz4+HgXF5eUlJRjx44pKSmpqKioq6snJycbGRnBueDGxkY9PT1EpwaW3Jh+U8d+JBJJUlKSpqbm2bNne3p6qJRFIBCUlpY6OjoePXqUxWJFR0crKipeunSpvb2dGsKAJHC5XDs7u71795qZmWlra6ekpHR0dBQXF1dWVu7Zs8fNzY3BYBQWFsLDWgsLCzU0NOAodV5eXmRkpK6ubmBgINynwmAw0tLSvLy8TE1N09LSBkSEfr5PBBCdkgltRKdkgm/SKD948GDPnj2enp7UyT4ej3f16lV4FGRXVxc8TCghIcHFxeXatWumpqZBQUGvTvLcs2dPZWUlFarm5mZVVdUdO3ZERkYmJiYmJSVZWVlpaWlt3LjR1dW1ubk5Pj5eQ0PD29sbrk+Huh0dHZcuXVJUVNy2bdumTZuOHz+upaWlqKh47ty5wsJCe3v769evm5mZKSoqlpaWUqNDdohAT09PeHi4srLyjRs34FcXMQwTCoVdXV2urq6KioqPHj2qq6tzcnJSVlbOzs42MjKKjIzU0tKKioravXu3pqZmW1sbPOxeIpHweDw6na6goADn7yIjI0NCQqytrTU0NLZs2XLhwoWmpqaQkBANDY1Xw1FwiQxMRltbm7u7u6qqqqam5qZNmzw9PV8ddbFz505/f/9XS+P37t0bGxurrq7+autDa2srKjtZEOjs7MzPz09ISAgKCtq2bduOHTuioqJiYmJiY2MTExPz8/NFIhEco6LT6SdPngwJCQkKClJSUjIzM4uNjY2Ojk5KSnrx4sXgNPB4PEtLSxMTk5KSkuvXr3t4eJSWlnp5eZ07d27Dhg0aGhqvjn51c3NLTEzMzc0tKipSUlIyMTG5ePGiubm5o6OjvLy8kpKSh4fH5cuXvyeMpaXlgwcPBkeEXN4nAohOyYQ2olMywTc5lCUSSVpamoKCwv79+yMpJjw83MTERElJ6e7du7m5uZ6envv37z9+/Lirq6uHh4ejo+Pp06e3bNmyZs2aK1euZGVlNTY25uTk3L17NygoSE1NDTItQ0PD69evczgcGxubFStWODk5FRYWXr582dTUNCYmhpyPKC0tjY+Pt7S03Llzp5WVlbm5+cGDB3V0dA4ePKitre3o6KitrR0UFKSvr6+kpFRcXDw5SubtcikSiUJCQhQUFExMTMLCwqKioiIiIsLDw0NDQ3V0dHbt2vXw4cP09PQTJ05oa2t7eXm5urp6eXk5OTn98ssvmzZterUqLjg4ODMzs6Oj49GjR3fv3r1x48auXbv2799/8OBBc3PzyMjI3Nzc/fv3w9PC8vPzPTw8Xh1gkZGRQS7TqaqqCgsLU1dX3759u4WFxatJXh0dHW1t7QMHDmhqarq7u2tqaiYnJ2tpae3evRsOg71dJpFvAgHIX9va2vbu3bto0aIDBw7o6uoaGBjskZqlS5fa2tpWVFRkZmbGx8fHxsampqaWl5d7e3u/eoJgocAhpYyMjLKystjY2LsUExgYqKGhoaioeOHChdjY2PT09J6eno6ODi8vL3hYhq+vL4PBeLUvRE9PLysrS0VFBa56PH78uIGBweLFi5WUlIKDg8PCwhQVFa9evUo+6agAPyACiE7JBD6iUzLBN2mUCwsLjx07ZmhoaEAxhoaGurq6Dg4OGRkZsEkNCwuzsbGJjY318/NLS0sLCAgwJoyhoeH58+cbGhquXLmip6dnaGjo4+MDv1siIgyPxysrK7t06VJISAiTyTx79iyNRoO9qVgsbm9vz87OdnJy0tPTc3Z2hm/V5LLZnp4eePBVSUlJQEDAqVOn0KjGcBXz0aNHx44dMzY21tHR0dfX19XVPXDggKGh4YEDB5ydnel0elhYWGJiop+fn5mZ2cOHD69cuZKdne3r63uAMEZGRufOnXvx4oW3t7ehoaGxsXFwcHB7ezsZHYZhTCbT29s7KSkpJSXFx8cnOTkZdu08Hq+joyM6OtrOzs7Q0NDd3Z3BYFC/iNzd3X3lyhV4QpWfn5+3tzc8i4EMHFneCgGxWNzV1QWJaXt7O/kBTQAAnH2zs7PLysqytbX99ttv5eXlbWxs4IybiYnJjRs3IOF+NVKYn58fFxdnb29PefQNtLW1ly9fPn/+fA0NDT09PU9Pz+rq6qysrNu3b69fv37NmjVBQUH5+fkKCgpGRkaZmZkqKip79uxRUVExNzc/duyYvLz8vn37ID3buXOnmZlZQEBAcnJyWVkZuenvrTKLPI8LAohOyQQjolMywTdplOFiiwFrKeDuMOgIP2orJAxccg5nkUiE4CpU+JMMh3wlJfdLCwQCuKyVXLcOVeBeJB6PB7tYmB6xWFQQr28AACAASURBVEx+34aMCFmGQwDO0MG7ZBGQlsFaIpGIetonWSIkkYVlSrqTIWAY1t3dLZFIyBpCjk6RtYX8oiJcGU3WGXjCBfy6HxkgsowNgdbW1gMHDqxZs+by5cuhoaERERGBgYHwePrvvvvOzs6ura3t6dOnGhoaJ06cSE9PDw8Pf/z4saOjo6qq6uLFi+fOnbtx48awsDDqXC1MCZfLdXZ2fjVjC7+YCdfS/fLLL6+I0dy5c5cvX25sbAxZlJ6e3tOnT5WVlZWUlLZs2SIvL6+srDx37twtW7Z4eHhcuXJFU1Nzw4YNy5cvf/XBx6dPn6InemxlPS5aiE7JBCOiUzLBh5SHQWCETnoYjaGdyaVaQ98e5Pq2/gcFMEkdhisvGfEk1YcLn4Sb6pNqJz0gyxgQaG9v19DQWL58+atDLpycnGxsbOzs7GxsbHR1dRctWmRpadnW1vb48WO4KcHPzy8mJiY/Pz89Pf3SpUsqKirOzs7nz59nMBidnZ3Z2dnBwcEBAQHXCfP06VMLCwstLa3i4mLyqCr48XIVFRUtLa3m5ubnz5/v3bvX0NAwKyvr1VTy9u3b9+/ff/bs2ePHj69fv97AwCAtLS0sLOzEiRPu7u67du0KCgrq6elBdGoMBT1eKohOyYQkolMywYeUh0Hgjd3nMHoDncmedeCNYX6/rf9hgpl0zsOVl4x4kurDhU8CTfVJtZMekGUMCHR2dmpoaOzZs6elpYW6EC0/P19DQ4NKpzZu3KimpgYn5V1cXE6cOLFv374HDx7AUUM+n5+amurp6QnPKNHR0YmPj4dfySwqKuru7ubxeKmpqb6+vl5eXuvWrVu5cqWXl5enp+emTZsMDQ0fPHigoKDw6qOQO3bs0NDQgGun1q5d6+LiEhAQcPToUU9PT01NTUSnxlDE46uC6JRMeCI6JRN8SHkYBN7YfQ6jN9CZ7FkH3hjm99v6HyaYSec8XHnJiCepPlz4JNBUn1Q76QFZxoAApFPLly/39PS8QBgPDw9vb++jR4+uX7+eSqeOHj0aGRnp5OR04cIFZ2fnc+fObdu2zcDAwN/fv6ioCEbN5XJPnz6tra2dkJDA4/HCwsL27NmTkJAAT6uKiYl5dRiKs7PzwoULV6xY4erqamVltWTJkoMHDz5+/FhVVRUecaKqqurn56elpWVlZRUREYHo1BiK9d2pIDolE7aITskEH1IeBoE3dp/D6A10JnvWgTeG+f22/ocJZtI5D1deMuJJqg8XPgk01SfVTnpAljEgAOnUwoULXVxcThHGzc3Nw8PDyspq8eLFVDoFj21zcXHx8fE5fvz4iRMn4J7NixcvwjM5BQLBq+/DnDx5Ep5JBgBobW21t7d3dHQMI0xTUxOGYSEhIVpaWqGhoT09PY2NjWFhYa+O1H/1USl1dfUdO3aoqak5OjomJiZqa2uHhIQ0NTUNnuyjntc/hiwjFVkQQHRKFvQAolMywYeUEQIIAYTAx4pAR0eHmpoaeYIX3PkhFos5HA55nP2jR480NTVdXFxiYmIcHR1PnTp17Ngx+P3NwMBAuPEWXl8xquPHj69Zs0ZPT+/EiRNXr169cuWKsbHx0qVLFRUV6+rqGhsb4TkMTU1NEBJIo199Ll1FRUVRUXHnzp3btm3bv3//hg0b1NTUfH19/fz8jhNGVVXV398fbev7sFUJ0SmZ8Ed0Sib4kDJCACGAEPgoERCLxW1tbfr6+itXrjQ1NXVzc3N2dnZ1dbWzszM1NV22bJm1tXVpaamPj4+Li4uWlpajo6Ozs/OxY8dOnTq1d+/ef/3rX+rq6r6+vpmE8fX1dXR01NfXt7a2vnz5sq+vb3BwcFVV1e3btxUUFF6t0GKz2f7+/pqampGRkZ2dnXCrb2tr682bN83MzDZs2KCtre3v73/lyhVfX18fH58zZ854enpaWVl5eHicPXtWTU0tICAADU192KqE6JRM+CM6JRN8SBkhgBBACHyUCGAY1tXVRaPRrl275keYX3755fLlyxcvXvT39/fz83v8+HFDQ8Or0SkmkxkZGRkXF0en03Nzc1ksVmhoqI+Pz6VLlwIDAwsJExgYePHixaioqLa2NjjmBM8M6+npSUxMpNFoLS0t8fHxNBqNx+PBM67gF82joqIuXboUFBSUnp4OT8eAnKm7u7ukpCQxMZHNZhcXFyckJFRWVqJtfR+2KiE6JRP+iE7JBB9SRgh8TAi8cYnSx5RYlJZ3iAA8mA2yE+oX+uCxXmTEPMLAakOqwIPfxIQhfUILeTwYtEBiBGfoyKPg+Hw+dZDp1YorslpSD4ojHckP3ZDpHHzM1YBkoJ/vCAFEp2QCFtEpmeCbUMpkazWhUv0WiUWvtmQXBaEgf74FiBPEK5k1eKYouXp9giR/fJJJPeh8fEL8iEORSCT/+Bbsg8OP6JRMRYDolEzwTRxl2L+S75Hw1fMfcCX7UdjawhUbE6dYxj+l3d3dGIbBtcPjH/pHFiIsbrFYTFaDjyyB7yQ5cEU5zDL2jzOw6sIrbKAgdebz+Wih+jupT5RAEZ2igPH2VkSn3h6zCanh6+sLPzmsp6e3/x9kdCgGfud1z5495MaiCVlUY0007HXq6uoOSs2+ffv2DmOkX8KdqP+1tLSMjIwuX748VrQmvN4vv/xy8ODBf9Cj3JcVygOtA78UqaWlVVFRMeELbCJkANEpmUoJ0SmZ4Js4yj/++OP58+eTkpLS0tIS/0EmiWLS0tLu3r27YMGClpaWiVMy45ZSOBVSWlq6cuXKBMI8ePAgeRhDgW1CWlNTU48fP75v3z5y1m/ccJwgAdnY2Li4uAxTvBPYOYViUgmzfv36nJwc+G3HCVI4EzWZiE7JVHKITskE38RRVlRUzM7OHrAQdeIkf1QphUtJli5d2tDQMCqFf5An8rPERUVFW7duBQDAxcLkLNgAy0TPulgsTkhIOHDgwETPyJjTb2xsHBYWNmb1CaT46kT1x48fwwRPWvb8fsoL0SmZcEZ0Sib4Jo4yolMTp6zGklJyLxWiU2OBb6LpSCQSRKcmWqFNgPQiOiVTISE6JRN8E0d5MtApuCR52bJljY2NE6dkxieliE6ND44TJBREpyZIQU2wZCI6JVOBITolE3wTRxnRqYlTVmNJKaJTY0FtwuogOjVhi+6jTjiiUzIVD6JTMsE3cZQRnZo4ZTWWlA5Hp8YS1kTQmeRrpyYtnZoIdXMCpxHRKZkKD9EpmeCbOMqITk2cshpLShGdGgtqE1YH0akJW3QfdcIRnZKpeBCdkgm+iaM8GegU3PWzfPnySXjuFKJTE+dZHIeUIjo1DiCiIAYhgOjUIEhGdBiw0RTRqRHR+ufcRHTqn1OWQ+UE0amhUPnHuiE69Y8t2g+aMUSn3gJ+ePYMVIDH0tBoNAMDA+iCjvB/CygnmldEpyZaib1dehGdeju8JrhvRKcmeAF+pMlHdOotCoZKp+BBf7Gxsbq6unw+XyQS8fn8AWNXbxE08vpxI4Do1MddPrKmDtEpWRGcUPqITk2o4powiUV06q2LqrKycs+ePatXr6YRRkdHp7S01NjYWF5ePiIi4q2DQwoTAYGJS6ckAJAyMtJo7RQAYMAxniMjNnHvop19E/gYT8rzDK0j10Pqqegj+0R3ZUQA0amxAJiYmDhz5sxPP/109uzZ06dP//zzzz/99FMLCwsul8vn88cS4mTSIVsD8ah7+g8Oj6Li/zx924/MkPkkLTJlgwylzyIBEoq85kykPxibBAAxIZI3xT7udEqaEul/IE2vNCWUG0OkX8a70khe/x8cIHkP68WgvbDvIzOSXlEvrJ7SRFPRxu2UyjukHQ+PvAGLYPCV9PD2FmoayHyM1jLudIqafmkiqG7D2PtApSBFeuyHH+lKtfSPR/prNP8lYnDI+FBYWPhInoeKilqm1PtU+9BhUn2Mi52C2dAxSl0RnZIi8c7/Izr11hALhcKamhpzc3M5ipGXl09JSYHLp6if93rr0P+hCrABgY2RGAARAL1SEUk7+3FpZGQMRAo/md4+h13/o/Q0OwenJpCVkNykzyPscyktHMliqF3o68QRNjKQ/rG+9iV1J8LtC0iCJwEXcT+RUOOBdjKl1J+vgxxkG186JQVAIiZSixcybiVEgidN6qGP7Q1Ov4wuVBihfXCApB9hby/Eo7CocOvWLQCIe0XYUDi/hp0sCGiRslYyEjyT1KqOASAkBAMACvkI9AKJCJfRQ9EHpTQNeFykDCrYIRxEIhGNRtPR0Rni3uicyOigRSx9nOE7krR4RcSzTrlKiGpAXvvglAyRc5xpQfwo6njLQSCMhyDltBByMkFSKPB8kI5UC8DDMDEyC7/9G+6BNFQ/A2qn9NYAZ7KwqZa+yi1V6UsD1YeMdiJkGLwUbTIPQ1gQnRoClHfjhOjUWHAViURJSUlz5syBhGratGlWVlb4wwv7CQqfGkvo/0Sd4doW2FLK2LyMlzqlaYXp7SsJCQC7/kf5SXYeHhFBnF63wn0e+9OpkROEqxBqlPjIlp+qSrkPo4GasJ/p65GIbrivMyaJKexqXutIu5WRa9Y40imy14HJE8MuRULp/YmuEPaW1CyPbB/Qr47wkxoOFQfSvQ9b6b1eTATBKSos2oZ/AlkiwunUa6gpOONo9ycFuDdp3y4NkShjkk6RFIokUqSFIFUSglENQSrIEVwy5USuB6ehT5dSZ0Yq7XdBp+A7EqyEUiZJfW8iM9oLYHZhtYVZwV8Q+tPJPuz7F3K/fEvrEFSUAk/WPakDUfmoP/B1rxQ6Rb1F2gckhiyG/nGSvkg9HH/qD5gaMk2kwmDLAC34cxhvA/yOVNIAIDo1Mj7jeBfRqbGAiWFYVVWVoaEhpFMbNmxISkrCMEwoFAoEAgqbGmXjNpY0TDgdsgnAW02JCIgJ6TfE8vrVXzqO8X5c+npHoql8jSuZYJxOKao+yS7Ae0fYcw7qPHE1qgLVDttEqgtRLwY4DG5yh6s9UJFsackOh2BR5At9H/HrS9jrbA1rG3c6JaIMw4hhtJQ8k/mluJEgkpnrs0AiRq0V0goEqxG8Uvvn1/TiNYxkTGTwUuwkgr7uvJRTvOOH7XgNxQgSSJQq9C71S46Q9CMAMGwquGQGCfU+ykVWH2Lspd+YYv8QpGml6uE1DP+DKSEzQbW8ziw1KYPsstOpQUHiYz4SIOoFIhFM4OvSgFyUHJ4TACCgjNP1EhkiCIs005RHicppqeAN8QRCbbKwqLBQ6BCecGKyzzT89h1KRJSSHiIZwz/d1FhHiHIAXgOiwO+ST26v9LkhKffrp4eMoa+gYTgDAu//E9Gp/ni8w1+ITr0duLDLgTrx8fFffvnltGnTbG1tW1paBg9NUT2/XTT/UN9EE4D3VEAkAEI+EPJALx+IBR9SRAIgEgIRJpXePp4nEvf1WsTrttIu5ZyneXjjS22YX7dlhG1AEwl/ku1fP0XYMQzTRpMqZIcM+9S+WT6CWlB7WdxOMFT8pV+IgwlzhKeVEsWbKtW40ily/AYCRmABubFIDHrFABMDIXHF4FUEMAxgQtArJBIvwGtILyF4AUlriEQAqIL3ylQRvu6HXo9/iPEUUIVKi8j5Nl4fB6hgF+36f7birFmA4VeRdEQNstOBsA/o4KU1gCyRPrLX21e7ejEAZYj6JiJ4iAj0ikBvb5+3XoyARXrFdQm6ggdLTKKSxIoYHqPUqjcU9njRKTzDsK8XiYEQA0IBEPGBmA96eQDjAYwPMAHuiBEuvT1A9LdUeoCIh3uG5YvXWCGR614cAQxKb1+twAR4OJjwtfQK+6oHbpE+vOJeYvSYUuelBdKvAgAAeiUWhsZRIaE4nrDi9UUBI5LWPbwGwlTBguvF6y0m6SdCCV6Thb1E9jHiOiCdZK2GdRtepWmGGcdB4BOA9ABxDxD//VpEPcQtIRD3wrUGfeN/ZNbexKARnXrDwzB+tz8uOiUUCqurqysqKkpKSurr618QpqKior29vbm5mcvldnV1wWtHR0fbUKa1tbWpqen58+f19fV1dXVVVVXl5eVlZWUZGRnZ2dlsNrukpKScYqqrq5sIU1lZWVdXx+PxmpubW1paWltb+Xx+e3u7WCzmSw2PMD09PRiG8fl8Doezb9++7777Ljw8XCKRdHd3d3R0dHd3C/obeEIVWWRw7Ar+FIvFIpEIw7COjg4+n9/S0lJbW1tTU1NeXl5aWlpeXl5ZWVlbW9tAmLa2Ni6X20MxMD1cLre9vb2lpQWmvGVE09bW1tXVRSbm/VmIZ54YAcDwHvHvDlBVDkqfS/54DqrKQN0L0FAHXtbj13GU+lpQX4sHDqWqAjQ1gOaX4M+q1451NaCuFtTWgvp60FAPml6ClibQ2gzaWkF7J+jg4tLJVdu+veDx477ODOsFuGB4U4t3GDyA9RACuxBpL0L2AXg3Q3AF3EXqX/g3EPyN64oxfKyuVwgEfEIEABOJurol3G68y8S7EKjFJ3T5BA2VXgU8wPsb/M0F3Z2A2w66/gKtDaCtEdS+ALwevHBxVkMU8pvaXNwvMVU9Hqei4zRQIh2i6O3sAPy/JR1t4K9m0NYE/iLg/aMMlFWC4hJRfgGorASVFaCqEvxZCWqqQV01aKgBDbXgZR1oqgfNDaClAbS+BG0U+esloEr7S9DeCNqb+uSvJtDRgqPB5+J8XSgAAgEQ8HB4AQB8Pk5c8OEAMcBJMyECAWhvBxhWlper8H+vBz3doLtL3NwE2v8Cf/2FXwkR1tcJ6utAx1+A2wm6OnDp/AufuuoV4KXJ54p6u8USXh+f6GzD73a047r1dXg1o0pDPWhsAE2NoLkZtLT0SVMzaGoGLxvBywa8QtbX4zWTlLo68PIlaGoCzS2gtQ20tYOWdtDFAzyhtIwhtYHMnXAb5jIudArWKTEEkI+BilpQVQde/AkqS0FZESgrJK5FoOw5LhXFuFSVgOo/wItyUFMJ6v4E9TVDSM2f4EU1eFEFXlSCPyvAn+XgRdlAqfkDQKktAy+r+qS5BrS3Am6XpKtD0tnRR0mFQiAQiNva8HL8qx2Xv3tAc6v1vv2J166BxhpQ+RxUFYOmF7gFStXzroLHoIwN6spBbRmoLwcNlaD5T9BUC5paQHMHaOnEpakDNLSCP1+Cij9B5R94INUlfRn8swzUVOB5rP0Tr9K4VEmlEnevKAGNtXiA1aW4VnVxn7yswsP5sxQ0E7dqykHjC7zmv6wFXe1A2CPkdYskEhE5RDmK5xrRqWEegvF3/rjoVHZ29oYNG6ZPnz516tTFixfLy8tv27ZNRUXFxMTk1QiQjY3NpUuXQkNDr127ZjeMsbCwOHjw4I4dOzZv3rxq1aqvvvpq6tSp06dP//TTT6dPnz5t2rQpU6ZQVpDLLViwYOXKlZs2bfrhhx/k5eVNTEzs7e3Nzc2dnZ2vXbsWEhJy7dq1UKkJIUxwcHB4eHhoaKiPj4+Kisry5cudnJyuX79++/bt0NDQ27dvh1MMnU5nMplsNpvD4bDZbBaLxWQyGQxGaWlpSUlJUVERh8NJT08PDQ319va2sbExMjLatGnTd999N23atNWrV2/atElRUVFTU9PW1tbMzOzYsWM3+5tr166dP3/e1dXVwsLCdhTG0tLS399fLO4bPR7/CjVkiNIXKaKLFfS2NVT+fv+amfE1/YO3LE1vWZnftjkcbmeTcspjHCXV82Ta6VMPvDwf/ud0+lmv9LNe5bdvFd8MzP/vL+lnvdJOn6KI54PTng88PVNPeyZ6nUrzPZfzqx8r5Gber78+C71dFXuvPjV177q1iVcvN+fnYuV/CEpL+aWlvD9KeH8US2oqxTUVotpyQipEtVAqRTVVUqkW1fxJSDXuUltJ+CkH9ZXg5Z+g/k/xi/Leqj+ElX8IK8uwyjKsogwrK+tkMusyM//8/UFD1qOGrIyXj9NfPv69USpNpCXz96bM3xl3Qgi5xQoPfhpwmRN84/mtW/UPf8c7cpEIfy8XYH2kasjSkTqOL53CZ3AkmKiprjrr95LUhCJaVHbI9Qz/S0nnveJPHY+2s/3NxCTM2CjSwvw3E2MoYaaHHpz2SPE6mex1KtnrFDvwGjvwGgvKzeusm9eZwX3CCL7OCL5OJ+XW9QJC8m/dyL91Iy/kxh/x0eUJsZX346qSaS8zf/8rL1vw/BmorugtK5VUVYD6WmFpsai8TFReJsblj4YnmZUPU+qzMjKDb/y//+ebnNs3nwRfZ/4Wmh30a07gr7mEZN+49vja1cfXrmYH/cr+LeyP+Ji631Pash+LSwvx3rG6DNTh/XpPVdFfnLymnEeV9+NLYyIYwYE5/ldSz3qlkXLmP2ln/pN61iv1rFfBrwGE+Bf86k+/FsCAEhCQ9p/Taf85/cALl4eE4PYzXunnvB9fupjjd7Xg+q+MwEBGYFBhaFjN7+k4q8b5K5wzen90Cu/XJQAIsaac/Ahz+wg90xv6/w4wPBhkZkgRoyAzo0BCrpsahdpYxrq53j/lkfCze4J7nzw445Xw84nfHI/cPGwRZG5GiGmQuUmQ+aEgc+MgC6MgC0OKGARZGARZ6AdZ6Ada6kcftU086ZLp65nt50sPCy6Mja5OS3n5+JGw6BmPw+rMy219mvXiYdofiTRmxJ2nwUGPrl+LO++zb91aD20t2s+uEUfMA011A4z23SQChMHesjYKOKRz1XDfDXO9CCfL6KO2CR7OyadPMAMCmP43oPx+5tyD096pJ8+knDwVfPjQTSvDYCvDm5Z42gLN9QPNDALNDG9amP7mYEdzd3tw5vT9Uz8ne/6c7Ome7Hki5bR7ws9Hf3OyuWFucMNcHxcL/Bpgohtg8u+bVofuOFonnTqW7Hk81cv9wZlTRUE3ymKi2p9ziBcwMb4hBg5MIjolbb4+hv8fC53q6emRSCRhYWHLli376quvNm7cuGbNmpUrVy5btmz58uULFy5ctGjR/Pnzv/zyy9mzZ3/zzTfzhjELFy5cvHjxqlWrli5dupYwGzZs2Lp1q7q6urKy8s6dO7du3bqZYr7//vvVq1evWLFi1apVK1asmDNnzvz58xcvXvyvf/1r9uzZX3zxxaxZsz6XmpmEmTFjxuzZsz///HMY1zfffDNnzpxPPvnkC8LMnj17FsUMYG9Tpkz5/PPPv/7666VLl86bN2/GjBlycnLTpk2bNWvW7Nmz58+fv2TJkrVr165Zs2bz5s3r169fvXr1smXLFi9eDLP8zTffwDSQV6j4zTffzJ07d/4ozNSpU2fPnv0BTnMgml2CTvFBT2tW0NUwM8M4i0MPXB1SXBzuO9knOdrdd7JPdj4yjpLkaJd4xDbB3gZKrLVFzGHzONvDyc5HEo/YkpJ0xDbpiO19e5v7R6wT7a3ibS1iD5vcO2wSZ2kaZ24abWJ019jAcfX/FfD/7bltoPfbIaNwQ8NwQ8PbRgahxvrp7kd///mnhz+7EvLTQ9z+08Ofjz782U0qxx66H8fl52OEy9GHP//0+8+uv//smnbMKdn1SIKDTby9VbiJYbiJ0Z1DuITq60eamN4zN481M400Mogy0o8y0osy0os07pO7xnoRh3C5a6J/18wg0twwytIo6rBxjKVxkrV5mo11gqll2vGTrWwO6CHGqPChpze3NuNHp2B8EiASdBRk3vdyu2Gud/3QgQgbk2g783hH60Rnu/TjrinOR1JdnbJOnkhxPpLidCSVkBQnB0Lwn/cszUmJs7K492Yxv2dlHkfIPUvTexYmMWZGMWZGseaHokyMIoz07+j/m2ZpEXrgwJNjbmG6uhEG+lDuGOpH25iHWRiFWxr7HdA69O3/CbcwiLU3j7I2ibExjbE2jbU2jbEyuWdtmmh/ONH+cLy1WZyVaZylSYyZYYTRv8P0dX4zPBhjYhBjYhB1SD/axCDO/BDtsGm4wcHfDulHmhtFW5nG2R+mOdrg4mCT4GBLiE2c/eE4O4t7Nub3bM3u2ZjF2ZjHWZvTbC1oNhYJdocTbA8n2lkn4WJDCF45oy0OxVgeirU2vWeDqyQ5Wt82PHjbwUbY1CAW43RK1He+wxuKe1xGpwAAGCbC50OFGP23uzd1DGgmFolHjyR6OMcfdaL95EL7ySXhJ1epuCT85JLg6hzn5BhzxC7azi7G/si9I473jjjG2B2JtLaLsrG/d8Qp3tEl0floovPRBJefElx+orm40lxd4l2d439york60VwdCXFIcHVIcD1CiH28s+09B6soO/NIK5NoC5Mok0MRRgYRRgZ3jQ3vGhtGGBrcMTYIMzO6Y20WaXc42sE61NIkxsn+xI/bLx/YG21vmeBqd/+YQ5LbkfvHHJOOOSUdc7p/zCnd83iCq320vWWck02cg3WCk02is22ikw3N3ibO1jre1irO+nC8tRXN2jrJzi7JwT7B1Z7mhkv8T3bxrnZxzrZxznbxLkfiXRzinI7EHLGNsrOOsrWOsbOJsbOOsbOOPWIdZWcZ52ib7Oac7OaEyzHHpJ/sE13t7x91SDnudN/tSKKrHc3FNs7JimZ3+L65Zdxh62dht/FhUVEvPvNMTO+P5rlGo1NveBjG7/bHQqeIJxOLj49fsWKFkZFRY2NjfX09m81mMBg5OTmhoaGBgYEBAQHu7u42NjZ2dnaBw5jg4OC4uLjnz59zOJzS0lIul0uM7uOD/BKJREwY2G1ADBsaGoqLi1ksFhwoun37dnBwcGho6NWrV52cnJydne3t7cmBMDj6Y2Nj4+joaGdnd/Xq1eDgYD8/v2vXrh07dsze3t7GxsbBwcGGYlRVVRUVFXfu3Ll9+/YdO3Zs37598+bNGwmzefPmLVu2bN26dffu3dbW1idOnLh+/Xp4eHhubm5RURGPxyspKWEymZmZmSkpKXA8zNfXl0wMtNjb2588edLPzy88PHwYSPo5f/bZZzNnzoTkdfxq0ShCIumUhAfaXzJDrtHsLFuDr4O8J+BpUNhB/QAAIABJREFUJsh8KH6YzEuKG0rieUkUSYznDxJeIsVDn+c4/n0aKYLkBEFyQv3t4BfB1xvvhPDv07C0JCi9qUm9qUmi1CRxaqI4JbH3fjwvLqrz7u3W0KDGoF9rA65W/HKh+Lz3szNexed9Cjzcn7odfeLq+sTV9fFPLo+POqfYWyXbH04+cvh+n1jdPwLF+r49FBucqOFcDadrxF3cf/KRwykOVg+cbB/95Jjl5vLoJ6cMF8dHuDhl/eT67Mx/Knz/t+TsmbJzZ8vOnSHkP3+cO/PHuTOl53EpIaT4/Jni/z3TcMO//oZ/faB/ww3/9pCg+suX8x1cM35yb8zJx2eyMGIk8n3TKaJK9PKxgsdP/nMs1c2eeeE/9aE3mn8L6bwX+XfiPVF6Ksh/ClgFoCAH5D7tk5ynXbEx3NhobmxUd0zUy+AgUhpv3RxBmm7dJCSo+VZQc3BQS3Bg5eWLf/iee+79H87pk0VnvdieHnnHfspycsxxdX3i5JRua5vv5pbj4gLliatL0QUf5v/+p8D7VN4ZD4aPZ+PtG1XXfvnzxpWaIL9aQuoC/eoC/drv3Oq4c6vhhl/D9at/XrlY5utddNYz95hL9lGnx452j+ysnxyxzXNxZLsfKzzt8YevT+WVizU3/BpCA3sSY//uk3s9iaTE1gRfqwkOqAkOqA0OqL0ZUHvzGhR+Qmyf0O7xpSJIiBUkRHdFhzfeDnwR6FcRcKk1PPCBndk1/f2dleXwYHfyePeRn8nxolP4wikhvpCLExVzx9Ckzj8A5D4CrGzAogMms78wAJMBCvLB0yfCjN//Tk35Kz6+PZ4mlYTu+2nY75kgKwfkMaRCB/mEFOSDgjxc8vNAQS4u+bkgP4eQ7O6UxHZaTGPUnfqw4Pob12qu/rfM9/xz7zPpDvZPj7qyPE8VnfMuvHT+ud+lyqCAmtDA1pjfOuKjW2PvttOiu1NoICcTsPNA/hPAyAWMvD7JyQLMfNz+5BHIysAepnTRYluIKBpuBzfcvvny9s2umMieuJje+wmiB8m4esETQH+KCyMHFyYRVHZWb2Z6d+r99oS4rqQEqdB6UpM6Eu7xccVsqTzFnwh6DmDlgeyMrsSY7vv3OhOiW2LutN4JeXbCPdXSuvhWMFwYQB45MnIpw7uITo0GpXHx87HQKYFAgGFYTk7OmjVr1NTU6uvrSQJEZT8wz3D50Ziv4wLcGAKBGenq6qqsrGSxWJWVlR0dHSKRSCgUikSiwdkcQxTDqcDAc3Nzv/766+3btw9YzjWc1ni6E905vnZKzAfNddn/9U2wt2oMvYk3Yax8KBJm3lCSDxj5gFHQJ3Q6GFJID4x8CTN/qHCGDDwP98zIlzAKJHgslIgYBYBOlXxAJyUP0PukPSWpPSWxPSXxL6qkJv2VmtQmldbUJFzSSElsTSMkNbGtT5J4TzJ6c5+8bs0ZZBS5gE4K6ZiPd0sFBVKhgwIoBYCe3xl3j+NxOtXpaGNeAb6qlxi0GE1RwkoyHmunpLFhAv7TR6k/OeSdO9OVlICnmU4XMxkiJkNELxDjkj9AJPR8SQEuRAYp135lQS0Xqp0soKEs+XkgL1eS81T89Envkyzx0ycgNwfvnqEU5EnoUHIl9H7Shz/sxUe44h18f8E94yQAhiym50GRRjRkjFLHgjzJICGYRDZOQCFE7AJAz053sgk2+je/9gUEfZQtyXjRKTHcSSASP4uNDTM5VPbf/wIGA2Mw+hMpklcxxAy6mEkXMQv6Cx2vEoSIGQwxgylhMAkLQ8IghS5hvBYYjphZAAWGJmYW4I/w6+dUascf8Hwxs0+Ih71g5CsZsphZIGLkkyJhFuBCBPg6BCI7vawCKCIWNXd0EZ7fwdLnB0aEB4UHWwCYdKlQ8pKf+1fIrQSrw4zrAfjqQ0wAxPh8H77LWPqojfAf0akRwBnfWx8LnYIdfF5e3vr167///vvnz58P+Zo1ZgpFVRxfBEcZGpUtUZs8mLBRBjJmb0PSqfeMCTE+Jcb3nTXWZfn6xNtZtUbeAax84TMGFAGbPqQIWQwhiylkMTEWE2OyepnsAYIxWRjhgfDGGDKQER0ZAjZTKiwBmz1IWNK7TAGbIWTToWAsOsai9w4S6E56GzHqobM8pMpwOIgYHBHjGSFsCYfdmpiQ4+b++1H3zqJiIBZL8OMhRzXb9w7olLDlfiLN3pZ56aI46wmgMzEmm8fm8NgcPpMlYDIFTMYoBVYA2a8Ym0XKgNBGmZIP6E3IpGOMfIxRIGSwBExW7zM2YOalO9neMvo3v6aPTuH9LLGlYOS2YrzoFH6cBH4eRi/nXmyoqXHplf8CJlvA4IhYbAmLRYqYxRKxWCI2fE4ZAvaAhxS69D2DZLngzzuL2cscKNCd9EZ5NsmneCQLqfiOwpclPSI2jhIuLJaIyYQCCgp6YqPDjPQe/+IL+N34lhSxSCQBvYhOjVzL3/vdj4VOwYwzmcyNGzeuXLmSxWIJhXC7ymtIqN2/LPbXIX44G/xq8nuL/4PTKbhiFd9mJhKCxrr0s6fv2Vj2JN5DdGpI5jSk42joFCh81paUmH7E6YmHl6i6lvisCzzv+83vse+CTtXH3Yu3s+Vcvgzy8j84nYJMiM8ogIITdCm7gl3sB6RKo4l6SDr1+wemU8TaKSqdYryRTuHvJIPkNQF613TnXYf/LuiUgBZ3698H0v/Xu297rwRfIge/gvTGTgSNTr0RovHy8HHRKQ6HIy8vv2HDhuLi4sGjU7JQKKrueGE3hnBEItEHWAYuTSg52QexfZ+YSE9QIuhUQ22q58+x1haiB8kSZt6Q1IHqOByNIMeoPuzoFByLGnx9t6NTLBaea2Ksjhid4hBXNigqbEtKvH/YJtfLR/yiDojEYrGQ2AHwYehUa/L9hCP2jAsXxVlPPyydwtgskj+JnrFFz9gYmwWv8JaQ9RajZaNhP+Puh0KnmAImS/SMBZh5vzvZUif73vvoFHECVi/GuRd729T4jyv/BVI6JWaxqEIZnXrNnIZkHu+a7rzr8IfM1AiO1PQMPTpFL+iOiQo3Nsi65At4XJxRITol7dQ+qv8fC50SCoUSiaSmpuaHH36YN28eh8PB+4FBA1QfFXZjSMwHWLSEn7PT91XmnJycL7/8ctu2be8f2H50qrEu7fTJWCvLnsQ4CTOfypyGtH+0dErIxif7hhSSSwnxGczX7+JCNoPITv/rwLmPoWcASRz65j3h7CeLOvvJEhTktdJo9w/b5J05B5paQW+vWMSX4N+I+zB06s/oqEQHB+bFX7DMLMBgi1gcAYfDf8YRsNhCFs5v3rOQw1EDLO85GWOLDmMxiFU4DIzFwlgsSSELsPIynO1DjPUFdTWwOYLvSG9smsZrsk+ML84Tg0F0qhcn+n2TdDiRkk729bJZGIclHFEwTt+EbC858zXIgocDZcSghozoXYQ/Alt64y2yMmAsZj86JcUNMOjCJNpNXZ2HPmfA312vJ/tG81Sjj8y88WEYPw8fC52COeJyuUpKSp999ll+fv745fFjCWmElo4cKHoXaSXH+VJSUr744gtNTU34qeZ3EddwYfajU031tOM/xdlaYanJIkYej1UAZUguJWDTSRrxsa2donKmEewEnep7Iyebzv6WAUtJ3kynSPX+mLB6GfTGe7EJFlYF3v8L/urEzxqV4Mc24yf/vWlJzTuY7MOq7t69Z21deMVPnJX9mk5xEJ0aC4/sT6eYEmJ0Kt3Z/tZHQKfY92JDDxn9gS9Fxyf7iHFTKZ2ikCFEpwazK+qz/JpOUUADDLogMf7OIcPUs6dBZxscnUJrp4braz6g+8dFpyQSye7du6dMmZKTk/MBQXlHUX8oOkVmJzQ09PPPP7e0tOTz+W/sXEmtcbFI6RTAv7bRXB9ub5V4xBY8Skd0imhMx41OAQ67LjLynokZy/cX8Dcf0imxRCBdkD5SYb4LOlXx2293TEzLbwSBp7mQTgnZHCGHI0SjU28/MjeATgFIp1zsbx3SF9bXkkU7mkd7nEenMCH7XmyIsSG+s6+AhTGfITo1mDYN5zJKOkWzs0o+fRI01iM6RVb1j83ysdApsVjM4/EAAGpqap9++mleXt7HhpTs6fngdOry5cszZsw4fvw4PJpB9hyNPoR+dKqpLsjcOMnBDmRnjYJOwXkx6c4+6ZohuHKo74rPfZCv+4P3DQ092EMZDBvjzr4hRqRYdCGrb9+f9O7Qu5aoE3ZC1mjS/BoHsv2VBkKuo2KCome1dyMiDYyf/XIFp1O9+Ff8xOIPRqfK79y5pW9YHXobX4rOZItY7F42G2PDmT402UdW2lFZMBajl0nvZTLgljQJh4Hv7HOxDz5kIKyvIx/GD0On4mJvGRmMTKf6ZujeND1HnYwbcr6vl80ar8m+8Qp/OKo0Gnfycca3MVIGpciRKjg69eAn56RT7viXeXr5Egna2UfW94/I8rHQKQgJhmGqqqpTpkzJzc0lp6g+IrQmbFJgC3vx4sWZM2eePHkSHnb1PnPTj07Vvwgw/jdOp3Kzh1s71X+N0evOBnYkg69kk0RY+q9Mws9Z6C8D1yq9HZ2i8LD+zIkSS//1Uq/TT6ZzQBYGppASFOXWEOFIGRWxpZyF06n6qKjf9AyK/usPevjE2clC/LvI+Ldm3mDexehUZcTd38wtSm/dwvLzRNLFNL1MPLUkFO/TMmDJ1Hv7OS55xOkUsVaPCI0BOHSQ//R3J/swcxOsoZ5sMN8nnSK+zSgCmKDmceYtQwOG138Gj07hi6iIdX74Yv/XJ5L0swvZQ9eHAY/J65/k2iliMRbOwEYvFF3IzAZf+1WMUYQ8LuVLfZZxaiU9JALQC3qTE/FPR5xyF5eXknTqzd8SIp54tLPvDQ3f+N3+uOiUSCTavXu3nJwcnOwj11CPX34nY0gYhsEl8BcvXvziiy8cHBxEItF7Xj7Vj07VVuF0ynFEOoXziaFb2PFwHzC5Nh50Ch+Xep1marcxZIJhxwCX60L7kN7eyhFjMcAzTmNMzJ1/6xde+Sjo1J/RMdE2ts9uXBfkZvcyGb3So3QQnXqrkoWeMRYD7nvADz9j0cEzhigrPfWIdayD3QejU/jH43A61VXIuWWgzxyGTpE1nPpcUO1vi0Y/ukOhRx/K/W3T/0b/1PYB0AtEKfeTHe3ve3q8plPEG9KbN5igpejvsc//WOiUSIRv6ZZIJHv37pWTk0tLSwMAwOm/94jGPzMqgUAA5xlPnTo1c+ZMd3d3iURCvsu+nzxT6FQvqK0MMNZFdIo8opDsbN7YyI7sYSCd4gnw0SmAr0b/UKNTL+LiE1xcGf+9ws/KEhF0SsxgitHo1JheFah0CmPRwXM2NyUhwcr8oceJ3pcN5BP9Xken8APlxEDI7yzkBOv/G6dT+UwR+zl17RQcjIQEmkqhqPaRK/bgux+KNg0X7+AUyugyJJ1KPtVHp8QSkRjRqffTdb1NLB8LnSJX8+zfv3/GjBl3797l8/li8ZtnKN4ms5Par0AgsLW1/fzzz4OCguAHfN4nHIPp1H0n+5Em+ygjPTI2TOQQOiUc6lqlvqEpIYclYEMZ8lT0fgej4/sNOfgQl3SBFF06O0mMqOEzGmRo/VYIwVaS2lZSB6jehlf1n74kJgdxOlX4rCEqqm90CqdTEvy0Pwn2oZaiv0hITD52PP9/LwrSM3vpdHwrOHPi0SkRhzNcPzpKd0rdG/uYK0GnGBix0g7SqZa4qHhLk+xzZ3tfNpCHsLxXOoU3JWKACSCdYlHoFLWqkxWbSqGo9rfFp9/yqQ8xOiXCt1OMvSjfqEtFD9ALsPsJyY72KZ4nxeV/gF6+GP8YJz5/j0an3mcv9sa4PhY6BUenxGKxjY3Nl19+ee3ata6urjemfhw9kI0RNcxRns8EP64MFUc4Ro+MgszsaBo+anrGZifj3b9//7Rp0xISEkaZr7FFN6RWPzrVUv+rif59pyMgN2e4pejUibM3Nj0je4ANE77Gk8MhhC0q5LQ/zephFgjYjO6CPPBHaVdeLvbsWXt2Nr7pbCgRsFm9hYUCNqsjN0fIYfUWcbBnbOoCqX6nIXBwQtZdQO8uoAtYbIzNIc5Yws8KIlfQEwfzsChX4hM6fUdJvbGZptLB1wvtcTpVVFQXEYkvRb/s19fWSkSSXoF4FF/ug7VxPL/Z14t15eXcc3HJO3O+90GmiE4XEnRK9O5Hp/gMRnvWEyGLBZ4/B3+UcXNzWzMzubm5AiYTI9bCj3AVMJm4VnExxmZ3ZmcLWSzxs8IB/tseP+YzGNC9PetJV04OHldxMbUqUpkW1X3MdqImk3SqAHAKym7+Gm9pWnrjV/DXX2/18jleO/vwh11Kp24bGWYfOwEKWGL2c+JkrCGqNJVCUe1vhQnGYgroDIzJ+uvxY/BHmaSoCBYEn8Hg///snQdYFUf38FeNAioqCmqssUZE7N3YEns0mliwNxRBjb0l9q4RNXZFMdaIiNKLIB1u2b63IfaCCoiU2/v+39mF5VLFKOjzfe4zz2Xu7Nxld2d25rfnnDkHRY0kZSQpLYbpcLxYq5X8ClrtfqqJEuXxeCX3lixRCWGzWCzn840kxT7UH3TmH1SZIyoahXUhgb6LF0bt2UW/fEEbtGZG7PwVp0qdaz5j4ZeCUyyRGI3GqsepUochzt6oHDz60GbT6XScQJ6macv8hx7qg+qz9EbTdDGc4pxdVQHVFcGpjJeXPVxDVv5OJ8ZXGU7pQYQ4ZpqUiLUYqsFRBSxUIkI9RepIQo3hOpLMEwhKZSkdSRpEIvaTTk3VU6RJKtZThAIWWE4JFnlcheJKBFMimArFGZeVYC0bg1PFAw4yvt2Bz0Nu9KyAXVEx2698ogISC4pK8/H1m7+QOHKM1ulBPzEZgHMKoPV7z1YJOGVQEljI5s2Jm3drgyKNQlhH5PsiqsA1vpcpy6ugxTAjSalhxCwSm0ViPUEaSYqWpWhBrEBcT5DlJJUQlvMF7G9NlEiL4TqcMFEiZs7O/6EGw+V8QR6Pr4YRWpaiwwkthpvFYsv5snJwCmOkU4ieENKEUHr2ROAS1yeXL9HyD3v5/MQ4ZdDmioir8+Ymb/qDhnEjIdaX4aPV4hkpaor+IZIeFqdosVSPE2z70lKZiRIphbBSCLNNrEbR9za0niCBc3mSyuPxdcxrTzm9gt1Fp9zXYrgGxdgW5+JOWrb7J8/TKKwNDvh3/pyo3bvpzAzaoDMzYueKiKbor7ZT7xn2PuXu/99xipXTGJnNZDJxGY1GU4x+3nvXy/GDwP1WoVDQNK1SqcA0ZzLp9fpSYY6r/0kyHBFyOMWS3GfEKb/1KwKWe5iiIqoSpwwEoRAIFAK+ntHEGUSUniKUCJyVmEjLZAaRSIkgZeEUR1RyocAoEalxVI2jeorQU6SlXo/NqzFcjRE6QqQjRGqMUOO4BkQ4yZdOcbFxLDLA0QOXKjAcl45TOhwx41j67TuBi9zgvw7R2TlGrYY26sxGvdn8/si4nx6njAZD6v3ovfujVv4h9wk0CWEts4Cr8liKCxejJwgNAqRHahjRE6RZJGYkFrgGA6n8iTYnMQmwEcNhtERKy1JoiZQRMQJBI5tR40BaaRIDUJPzBSyuqWEgfuNSpeKUjhDSGJ845nln8YI3t27S2vzIBxUcMT4dTplps5E2aHLF+LV5c3ibNtEwZqIkZbm8/1Q4RUtleoygxVIjSbHIq0FQA0kZRSItToAXGEsZc7n0rEFQWpbyXpBiK+QlCwyk2CSWGkjA2VWFU0JN0J3LM6fd3bmDVippo56VTn3FqQr29iqr9gXhFCtE4aRTubm5VXAXTCZTXl7elStXFi5cKBaL9Xq9jtkuXrz4559/pqenV3AF3LNnz04y27Nn+aHdyzr59PT05cuX3759m9VmVoFkyBKnqlevHhQUxKr/PhNO6en0l2HbNt32WKwNC65MnALWRYy5CZCI6HD8xb2oPfPm7pk398W9ezqRSCuicN8bJ1YsDziw/11SklEqVRNgFAbzJetqkgQRUdigKO8EfPphag4s5F25tHbi+HhvL62EUhKYmiTUBKEhmBEcJ3U4qcdILU5d3rZtyejR7qNGXd62TUUSahLX4CiYX/P1fYQes0yWfrMK52NuYi6RKQOnCEQPw5kBgcFL3Pn79tPp6Vql3GTQ0uYKBUutBJwy0s+eJhw+GuKxKuvyDRan2Am1xBVV5KrfU0eLgTuswzENgd86uM9t1E8BRz3zMIR+8PBtfELY0aP75s9/GBysJUkVjqtwnGtcLdPohoJJV4mgRrHkaVj4rd17jrl7PAgKMoolKhTjZmgtSSpQ1JyamhYXG3zs6LKxo5ePG3Np6+aMxARtQWRAYLFnYdPzSa6XBW4djmpIBOAUyoMP7/ddPD8zJIDWa8sacEot/0Q4xUQ2N+lpk1Yuwm7Mm8PbsIEGwQTFlYxTuBEnaans1b17nosXrxk/nvT1NUgkChRNuxd9bvXqc6tXp92LZttXa8FVXAkoLGhuyufmjukzwo4cyWflgqeeHQo4zNKRpIakTq9Zu/7XyY/D7xrFUgucYlf1lmLOaOHlpNje93Rmyw5Do0KV/y3vab9F7NxBG4Gw+at0qtRe/dkLvxSc4pRf7u7ujRo1OnHiRNXYTrE4tXTpUgcHhzlz5jx58kSv1ysUinXr1nXp0iUlJYXDHaPRyAqT2BLO/IhdN/fixYvZs2e7uLi8efOGM6XS6XRyuZwFMlYgFBkZ6eLiYmNjc+DAgezsbO7gldoP2P9iMplat25drVq1N2/eVIFIrNgVWSj7dHR6Wti2P2+7u1UmTrEsBQLqGYDzQ1xDEIk3rg3v/H2nBg2Orl2XzuPLSSLh38vTB/XbOt0lLSb6LSzQpUiNlNhEiA0EpcEIg0hC33+gl0jfCgXZJJaBCXVPUq//tbdro3r/HtqXjvKzSVSbIlOLxHIYVcGYmZQaUZEmCT21bFX3b5vYVYfqQ9AIp++v7d2ZhwnVOKKnQLQyPZkv5NATpCE/EZajZwXyZeEUquYLsoJCwjyW8vbs1j97Sht1DEtVyMqC7Sef0nbKaKTTM/gnT/m5Lsrz8TEjQg0AUExDAkVPBS7zw+qwdlFaDMvgJW32WOBQp9rUMUOirv+TyUtWYvieJYsn9OiafOVKJo8nl4rlUrGSJHNQVPfogUIilgtgRbJAixJaktJQlF4mexARsXP+vN+6d8d8ffUymV4m00mlWrFESZJyHFcSxBs+L/j8mfEDe9tVh+yqQ05N7f7euOZNQhyjZyS0WKHXjE94pUCwRwCcAso+hBe8cbXXPBc6hQD63A/ZPh1O0bROTZt0WhFxa94cwcYNNI4rYLisS/446RQQ8bJSXhNJKWH4QXjoLz2c29eutX3xwhdJCdk4htzwWTL8x+WjRqeGhLxN5hmkMoNEqsTwdzy+HMO1UqlaKskQ8EGGIHWUOIcviDnnNah5szMb1mcl8QwiSQ4KHmrd/ZQcFFWhuBrGjKRYg5Nqsfjfgwc6NKjXqaGd4KavQZqixQgdimkxRIvBwHnvByQWrSravQFO3bl5cfrk0L27aL0OENWHbF/9Tn3I3fqoul8QThmNIKzYnDlzbG1tL168qFAoLMUnlUQeOp1OoVC4u7vXqlXLxsbmyJEjGo1Gq9V6eHh06dLl0aNH7N319vYeM2bMtGnTNm3a9OzZMzZIi1arDQkJ8fDwWLhw4blz52bNmjV79mxWOoVh2KZNm0aMGOHq6hobG8vCYlhY2OjRowcOHFivXj1LnLK8zI9qzDJ+zN46o9HYunVrCIJY4CujbmUVF+CUGUzw6Wmh2zazOGVC+aXG7PtoU3TgmId10sPilJokYn2u/eDcqT4EDXXsfM/7olwsiv738vThg7bNmvEgLCQdFaABfttmzZrdt9/KcT8HHPLM4vHzUOytQPgoOmrPsiWTfujzp9u8Ezv+cGxc3+/s8ecoLztFdH7ntl+6d3Pp0+ewm0dGTKIBFcuu3XEfOnJ8397nD+8/umXT6G6dN82Y+jw6QkXAWgrVUpiWxLVkvhis4N33k+GUii94FxwavnQpb88u/bMn4G7TxgquAaoEnDLR77IFp8/4LJyX9e8VGgU4pSJBqgyc0qAoaw3zhp+0eZVbyxb1Gzf4ZuOS+S8T4vNwfLv74h+7dOJdv64UiV5h8Pl9u6YO6PdL7x6r5s8Ux0VlCWElgmlFYv6164tGjlg8brTn2lUrp00e/n37ZF8fuUxCBAXs9XD7tXfPJePG3Lt4IZPPfx4ff2DNilF9u+9Y9/v2dcs7t3JwnTjmdUK8FsPMYlEl4RTjCbMQp4I2rj6zwIW+T9Cmz4VTJlqnoo3aPEGS37zZyOY/aBxVoPla3ZJQ9dE4RQAjJ5wwkZQChu9HhP7c07k2BP3QqZ3/6RO5EpHwps/in37yGD06JTRULZHIgkN2zZ03Z+CgRT/9dMvzUCYCZyKwXCzKEAov79i+YOjQ/a6uXps29WzqcHbr5vTEJDVBBZ88MWPIDzOGDd48f24Gj6chRTqxRC0WY4H+U4cP+QaC2jayg/39FcwbVz5O4bDFCl/L1b5l5z9k5TKNCJV+N/6ZMTlk/27aoKMrsKzEchz/ilOWd6NS818QTpmB53zjxIkTa9asGRAQwJouVTZqcNIpe3v7//m7GjBggFAoVKlUy5cv792797Nnz7Ra7alTpxwdHSFms7Ozmz59+uPHj/8XD0cgEIwdO9ba2trGxqZ9+/ZNmjRZuHDhq1evSJJ0cXGxsrKCIMje3n727NkYhqlUKi8vrzNnzly8eNHJyakqcYrtQHq9nsOpSu1SpR68AKdMtElLp79icGqxLizIhFQdTsXf+vcH5061IahJ9errZ8y8Hx0V+e+l6T/9sGP+nDe8RGHArbnjRjS3rl4XghpXg3q3+PbMn5te8ZJfxMd7rljer31Lh1pQe4e633/boDYE+ZyE0yqGAAAgAElEQVQ78ZyCvT33dW3RuB4ENYGgznXreC5dnsWDed5Xpjj3OLF23RtYKPS96TZqxGaXqS/uRagIoZZCAE5RAKcsdRA68pPhlFoofBcaFr7Mg7dnp/7ZY9r0uXFKroLPeV2fP+f1pQsAp0hMSVUiTrEGUun8pM0rFjexq2kNQcOcO4adPf1ayN+ydPFgx/YJly7lYNj5fbu6tv7WGoJsIKh+g29+HNqHjAyTi0X8Wzfnjx7xbU2oUQ3IqWWTdg71BnftFOt/kxd6Z8nUXxybNKgHQa1ta00dOiD45Im3AqE0KFgcFPhayOcH+A3p2nHn726vE+J1OF7ZOKVmlX0I7/PjlElPG9S0TvnqbqjvnBnkjq1GAU8NXDmULnr5tDiVGhE6vqdzTQhyqA65/jw6NeYez9dn4Yif3MaOloSFksGBG2dMb/tNjYYQkBP3bt50v/uSl3HxmXz+tb17fmj33bcQ1Km2TY9GDVtZf3Nkw9o8kow5f35ouzb2EGQFQU2tqm9f4ppF4Yr70sfJCe4uk38dOWxov56tGzW4e+lSLjDCy5dOaXDYMlJCRfIf9LpIIwKV378lcIrRtJY62hYt/IpTRe9HJX77gnCKFeGMGjWqWrVq0dHRrKvJysYpmqazs7NXrVrVv3//nTt3Nm3adNu2bS9fvly3bt3AgQNTUlKePHkydOjQ4cOHBwYGBgcHb9u2rV27dqdOnXr58uW+ffs6dOiwbdu22NhYb29vZ2fnSZMmiUSiy5cvT58+/cSJEzExMWfOnBk6dOjx48ezsrIUCkVeXp5QKHR0dNy/f39WVhardKuCa2Tv7ZeCUxlvQrZtCVi2RBcWWJU4FXPj6rhBfUf36bXcxWVQ23bn9+y67X168vCB62dMxQNvH9qwckiXDrtXL4u4/o/3wd0/OTv+2r93ks/1+CuXR3fp9FM3x/OeuwMunZ09fmRT62rXTx55ACfNnjBq3OC+AVe9w/699MeiBX2aN+ffvJWWmEzdCXx0N+otX/DP5i0jWre+uXunAhMocYFegmsoTEPhGgrglAVRfRqc0hKoSghzOGV49qgApypktFop0imlGvE6f23e7JcXvcworGZwSklVlnSKxakMXtIm9/nD+nZZOXda92/tV0yeJAi4vXbR3NF9usf9848sNHTK0EG92ra4efpY5K3r27eutaoOHVy78mlC/Jmtm52b2M/9efQt7zOHd/45pJfT0L5dw+9cv3ru71/HDFm+cMbNf06dPbp33MCee9wXP426Z5Kk6ClxwsV/XAb2X7NgJh4Z/CYpQU8QJhFVUjDzSUrAojYC5XAqZNOas/MZ6ZThM9lOsTilkT+6c/PGLBfx3l265Hg1CFtZJTgVDnBqaOcOK2ZO7dHU4fjG9Um3fOaN+sl13GgqIvTfw3+N7OLoPnG838ljXnt3TBzQ58fv20d4neP53Fg4asTgjm1PbNkUcu7M2hkuLWvXPLtne2pU5EYXl+nDBl8+dujOde+NK9ycmjmEXvZ+LcKP7djy04BeN696L5zt8p29XfxNn5yPwqkPVPYhArXfv5dm/Ba6bzdt0BdIp9hX1Pc/2l9xqhIBquihvyCcMpvNDx486NevX/v27VNSUti1b1WAGrm5uW5ubmPGjOHz+W5ubk2aNLlw4cKqVat69OghFov9/PwaNGhw9epVLbMRBDFlypR169YJhcLFixePHDlSKBTSNJ2SkjJz5szffvuNJMk9e/a0atWqXbt2PXr06NWrV7169dauXZudnc3eealUWgynirZIZX0zmUzNmzevVq0aa5RWxeZTBdIpM5jg32YEbfkzeMXSvDs+nLKv2CvdB729lTZRlVD2EWSi380x/fssnT7t8pEjP/fpM/GHgbs3rR43uM8fC2aHnD+98NexU4cPRP188zD0VWL8ibWrpw3oG3jq+OX9u5wa1TuwZrksLjKdQi7u39mxXu0bf3sS4SE/9ejSpJ5V5/Ytezm2a1m/jkM1KPjChUyCysKpLAQPPHzs5+8dN0+b9jI6KkeYTD+QaMVYZeOUBkaywyKQbVsjNqx9jfBpMxh8zRXwksB5dv2ktlMmOk9BXbrsPcPl1SVvM4qoCVxJAQFVWdKL0pqy9Im5ZE3W55AWwzN4SetdZ08aPuDOmWM7l7i2r2ezf8Mq9zlTBzi1v/fPxWt797SqVePw+tUZAn42ij6Mj5n6w8D5w4ZJg0I2ukzv3qhR5JVL2Q9SqNjIRdMmDezpGHDr8uED2zp3aN6+tUPfHh3btbJv3bD2/JE/PQgN01Ni+uGTF9Ex0Zf+WbNg1hb3hfdDghm/R8DtZ8kz/MgSS1N0PQ5sp0I2rTm/cAb9PJX+XDhFG2m9mlbL7/tcvTF7+qO/PWkc1uBwWc/vJ5ROsbZTE3o4Tx8xNOL6pd8G9B3UpvWJLZumDB3k+su4xNs3V8+ePq53d7/Tx9Nw+A2OXPM8OPXHwcd2bL5+8shgx/Yrp0+RRIbnSET+Z092bmZ/YONq2P/29MGDOjvY9f7+u26Obdq2cLCBIK+De+MD/L5v5nBw92ZMmLBgtkvTujbxPj55OMFJp7QVVfZZWqO/v1ebxRRYg4yhZkFy1uXz/m4LqCuXwMo+k4lhqK84VVlz5X8+7heEUyaTKSkpqUuXLgMGDHj06JElSLH5/3yR5f9QLpezOCUSiVAUHTJkyPDhw0eOHDlgwICHDx+Gh4fXrl376tWrarVaq9X+T141d+7ctWvXSqVSNze3QYMGYRimVqsfP368cOHCuXPnCgSCbdu2tWjRAoKgevXqWVlZ2djYTJ8+nSAIlmDEYnHHjh09PT2rxtbe8tpHjhxZs2bN+Pj4qo/eY4FTejrjzZ0/NgYsczPdDalKnEq+c2tknx6/z56JRIQfWL9ukFOnUUP7De7ttGrOtIir3tPHDZ/840DEzydbKEhLjD/754Y5Pw6+eeyQ994dP3RovXeF++PkOPWT+zf/9uxQ1/rqX/vhwDs/dGpvWx2yrgZUA/WrQQ7VoBObt+RKU7JIke/RY8M7dNwyZ07q3XCtTKQRE0YZpaVQNYlyyr7KkE5pESwnPJLFqTcIH5jUAJx6/yts5eCUkX6XjXidvzpvTsb1K1WGU5m8pC1L5k8Y2Cvi/JmYS95Thg8a2stp9LB+PTq0irjgFXneywGCjv+xIRfDlCT1OC7m998muY8Z+ygqev00l+4ODlHXr6bLROLEmA0eCwf3cQ64dfng7j/aNLf7BoLq1ISqQVDDmtD4Ht0ubdu2dtKvuxYsIIMDM0T4vg2rJg7qE3n6lAZFaYlYjQg/Ep5K/rzAlQZjO4ULTclxIRtXX126gH52/3PilE5Fq+SUt9ct17np/3jRmJAxzS7dEv9T4pQQmKJP6OE8Y8RQNCLEa+e2YR3bTejfe0RPZ9dJPycF3d6ydPGP3ToH/eP1Vgas5W4ePzJv0rgzh/ZcPfP34K6dlrtMfiZIlj9IuXX6eI92Lf7avD7xls/sn4Y51IDqVgOGHaC5IWjLMvc1C+bUgqAmDWy6OrVraGtlV7PaiM6d7531+mCc+hB7KR2OWeJU9pULvvNn4Re9QcxpE/s8f8Upy8nti8h/QThlNBqvXr3asmXLuXPnvnz5kvWbYAlVlXTDOJwiCEKj0Zw7d87W1rZu3brOzs4EQfB4PCcnJ3d395ycHI1Gc/v27TZt2uzfv//Zs2cbNmxo167dxYsXVSpVcHBw7969XVxcxGLxiRMnJk+efPHiRZIkxWLxgwcP0tLSOIJJTU11cnLat2/f27dvOX/llXRpxQ47a9asGjVqhIeHs5K/Ynsr9WsxnLq7d5ef20JN0G1W2VdMNAWCt3zg0FNi7ikhnSKJuJv/jurbY/ksl6c4khwSNOfX8RAEtf62/vJZU/hhd9YvnT/yh54XDu95jCbh0aEzRg8bP7BX+DXvoAunh3zfZvaoYWiY/xNBwqpZU5vVhC577ifvhY8f2GfqyGGx/r6xfjeIu2FEaOijmLgMPnzvn0tO3zZZ57aQio3MEGHZIkwlIVQEbBATehHBmqJbsBTwI1ri/Mt/eS19ZZ+WQPUYIY+8V4hTZiNw4Mm+zb6vgStB2WekM7MSj5/wdV+c6XO9CnCKNUUHOLV43oR+3WPOn8sU8i/9fdD5+1bWNaFejm3uXvC6HxE+qEObOeNG3o+9lykmb3qfamgFrZs3R3wvcsfype3tG+zfvAFPjg0LuDGkf7eB3TtFBfhc9zo2bmjfvX+sCrl5KT7MD7kbfD/qLnLbz+O3X0b17e5z/iSWEOU2c/KI7k5ViVPqmLsBa1f4b/idfir7XDhlBso+DS3PSTp66ObCOXK/G0ZBUpXh1ENmZd/s0T8+SI5/FBezae6sRhDUvE5N18kTBOGBp/Zs69fhu4Ob1j7FheK4qN9nTh3Uuf3103+H37j8U++uYwb2Dr9x+RnK3758SdM63+zZsFIQdMf91wlTRgwJ+vefhMjgpMjQ5JBAWXys+5Tf6kBQTQawakCQNQT1aOwQcMiTcWCGaXCkwrZThaHWK/K8W+LUq7Mnbi2YLbl2FYQ6+IpT7xvKPtf+Lwin9Hq9p6dno0aNNm3alJ6eXmW+kTicEolENE3n5OTMnTu3Zs2avXv3Tk1NVSgUy5cvt7Oza8tsDg4Obdu2xTAsNzc3PDzc0dHR1ta2bdu2dnZ2NWvWdHFxefbsWURExMiRI1syW4sWLQYPHuzv769Wq3U6nclkIkmyXbt2e/fuzczM1Ov1FZQcfEz/0GiAiz+j0Thp0qRq1ardvXu3ijV9QPKRn8xAXvI2E/M6c8d90TOvUyaEpy7NkPNT4BRqubJPQxCRF89PHNBn+ZRfU+Nj0yni1tmT/RzbNqv7zdo5Lo/58X7nTwzt0em7hjbt7Ot0btawUXXoD7d5KfFR0uiI9bNdHO3qdLKr07WJXYtaUEMIun70r1cUunLWtNZ1avVo0bRbU/seTRvPHDpEHBqaEhYxY8hgWwhqWs+6YxO7Pm2ar5g68WFMhC5FlIfytcBXQlEfg8AvzqfEKUVUNLx9690NazNgPlg/b/qsOJWeEe3pGbBiWZavjxlFNQQBTNEpVFOGbU1Fppmy6jAr+wgthr1NTto4y2VK/97Rp0+/5fNeoPxNS13takFOzexjLnq/Q+CtixbYQ1Dfls2+t7NtZWfTooGN76nj6RRxz+f6sK5OzepYtbGv1/Zbu4ZW0Jh+PXjBt/3OHhs/oGczK6h7y8Y9WjX5qUvH0xvXv0hKPLl9c9dWTVvWt3Fsbt/c5pvF48ekhgQbSIoJTlIpyj7Gez6AaQMulN8N9V+z/O72DfSTz4ZTRr0GPNHZWVG7d15fMCvn9g0dP0FPlmkb9NHSqUJHCRoUfRQWOqm7s+vYkY8SYpVSSfKN6xP692pmXX3BxLHC8MBEf9/fhgxo16B295ZN2tvVbWlTY8ZPQ/GI4IdJcZsXL3BqZt+pcYOuTe2/q2vVsAZ0eOvG1yT617pVHezrtWtk26V5Y6emDr/26wv733kcHw8H+iPhITF3fOdMGNuhQb3AE8cV+f5gUQ2j3Cz5QliihA0MBdTcFdR0W+KU7OCekGWLnwT50zoti1NmBqwqErXvq+3Ux8yeH/TbLwinaJretGmTra3t0aNHOVnOB13Mf6hsNBq1Wu3atWtHjx7N5/PZI/D5/Nq1a/fu3VssFtM0nZ6e7uHhUaNGDSsrqwkTJpAkybqSys3NPX36dLt27Zo2bTpt2rSxY8dOnTqVXfR369YtZ2dnCIJq1669bNmyBw8e0DStVqtNJpNYLG7fvv3BgwdzcnL+wwn/55+YTKapU6eyMfv+80E+wQ+NBjori/Q+H+CxKO3iWTPCKzHugJApH41TGHOEIm484atXFw4e/MeUKW/5fHPqgyeRUXsXLXS0rrV73txHEWEKivDzPPhbz25NIKh7w/qHVy4XhQTmUHgOhVMhgbOH/dAEgvq3aPrHnBnODetd+2uf4oH0OZz856J59SAAWA4QdOPYkVcYfOf0yRY1qzdgChvXgJrXquY+aZwkMkSeQr7DBer8QMsgqB/nFvLT4pTyXsz9w4fueCx5EBJMa3UVDZRK05UinUpPj/b09F+xPMv3phnFtAQBHCUAnCp8Uy9rirUsLwuhLMtZ3wQgghCG7ps/b8HAgbGnTqsxXEHgiZcv9W1s/2Ob1lGnT6lI4lVywr4li5pDUHMIGta2ddyVS0qxWCkSvU7m3Tp0qGv9+h1trBeOAu4Sfu7WRRwa9CI5PujUMZcf+jWEoMYQ5DpiOHnntpwgn8XFnv1jUy/7Ri0haM4Pg3Dfm3IYZhxz43qKKnSXX0bEFcuTr0hej7MhegBOGXFhXlhQ4JoVoX+u/ow4BQYEs4E2Grzmz700d7oxOswgTDKJiLKeX8s2tcxX5PK5OnocV/D4eoJMDQpyHTp48fBhGUlJaop8w0s6sGLptzUg1wmjkRD/dAK5dezw1IF9m0BQp/p1Ns6ZIQ4NyiNxOYlT/nf+nOnyXXXohzYtPX6b0KFh3Z0r3F8Rwjcksn/N8u9svvmuGtQUgq5v35kjgPNgLBfBchAsF8O3zprTr1Fj/pVraoLUgLhVjNOpIqHQuWjolpZSZfIld1ElMxoUNlLAgZkmPib18H4/t/lP74UxNxzYQjKePCvkT+4rTn2Caatih/hScIqVl0yfPh2CoIiIiCqQ2bD3h433otPpigGcTqfLy8tjw85otVq5XK7X6zMyMix9b7JQlZ2dnZWVpdVqc3Jy5HI5F0CGXceXlZXFllg2h1wut/xaZfmpU6fWqlUrKCioyv5jKf/IaKSzs0nvC4FLF7+6eKYycSpfX5ZvcYJhCj5fIRC+jYuX8wVGUqQnKDlfkH4vOiMmRiEQqlE0m5f8jpecnhD/JiE+PTEhBxYqCDyPxLNQ4Wte4rO46FfJCc/jop/Hx2RhcK6IyMSE6ajwUULsSyHvDQ5nkFi2lMogsSdJCU8SE54lJz2MjX4YG/0kPkYhE72jkCyUz+AUYKnKwylVdGzK4UP+HkseBQXTau0XglNvbzE4hRNqElVRiIasRJzSYmhGTExWfAIbgSQ3KVlPkE9CQ7MSE3MEAiWO52HIm4T4tJhoBYq8iYvTikQaktJS4hwBnJmY/CYu4eW9mLSY2Ld8/vOYaJWIVIup10nxT6MjX8THvEmKf8vn5aGYTixR4WR6fGJmQtLbxORcgUCNAYpiKZlt4oLPTyOp0jMBpA0YqiMQIwZwKmT9KoBTTz+j7RQNPCHl5HgvnP+v2zxzQqQB4RkovJJxCqPFEg2C6sWitJjotKgoNYrKYTgbEb4jkCeJMWnCpDcIX31fKheTbxHBa17ia0FSFirMQeFcWKhmHOLLYfhVfNxbVJgmTLofG5mG8rPE+DsR/pyf8FqQ/OxuZHYi711CsgrGlELgpFcNYxqEyEnkp92NzuXDdMp9DYaWglPAmWfpdmMlgan8EkucInZt9V/q+ooXw/qQM4E/ZnPFnu2vOFXKNFQ5RV8KTun1erlcPmzYsLp16yYnJ7MXWwU6KTZwHmehVewmc1RnYjZ2L6uzs4yRzKKYpb0898NiB+QMfrn/WE7Nkr/9yJIvCKcuXghauviV9xka5VeadKo4ToFotRKpiRKxs6wGRVRCoRYDzgWMlEhPUe+SkpQYqqFIjYjSiEFSkoSSIrRSsSFFZkyRvRPwc2BhLgrrpGKtRPSWz9NJJXIcYzN5GJqHoSoRqZfJcmBEQ4q0IrE55X4egqhwzCAR0akpGhAusBJxyoCT6pj4IjhVUYvVypFOvUmP8fS8s2J51eCUFsxwbML0BKmGEWadHaVCkDy+QI3jWclJWhFlkEkVOJqHwBqKzEPgPARRE6RBItWQomy+MFcAawgqmy+kUx8oCRzUxOBcVJiD8LUSypgi0YlFOrE4D0HzYFQvkqgxEjjQl8lMEikbKptr4oLM/8M4ZaY1KvrZ00uLFt5e4U4L4vQIr9JW9hU+0ToUhLg2y2QgXhCKgpCaEnF6YsJbIV+bIpVTRC6BKiWUUkQqKCIPR3MxRI6jKhzXUZRRLAYRYwhCheO5GKIQk7kUrpBSCgmllFDvMPitkM/6TFehuEKIKoSoGsW1KKlFSZUQUwgQPUHRUhnT0xhn6JbSqcrBqYT1q8JWL80hhbRZRzPxzL/i1EfOhpXx8y8Fp2ialslkgwcP7ty5M4IgLHZwgVwq48rZf8HSDBtAho0DQ9M0C0xms1mlUrFIZzQa2UI2hrElOXHnZjKZWCslLqyy2WzmnJGy1ViDMPZQbCg9jqu441ReZurUqVZWVl+CdIpgcOq191kaFZSGU/9FNl7Wqx5QkRC4gQCh49mkhgFIsfUVAr5CIFCB4McEnZJilEqMUqmKJN4J+NlCgYokVCSRIxQoUERHUToK+GLO5iXLhUI9RdH375slUjUKYq/mMdoH+n4qeG1FMJUA1WOUDiX0GMmE58M1CKJGYKAgwCsLp3QEasBJTVxCIU4pNeANtkI6gcrEqZW/Z97yNaO4FicrVTpVwFKokSTNYjEtk+UkJoFAyGDGJdQ4BgIsUiSIokiROrFILxYZJGIFiqpwwiCRGqUpWhIErs7jwzk8QZ4QplNS9GKRhsINUkqOCMwyCZ0qM0nFoJUJMk8Iy2FUg5M6klJjuBJB1FghLrOxeJnPT4lTRhC+plA6FfaZpVNmWqWkJZKrbotC1q+kkSQ9wlOhgrIkNJYKPst8WQ8v8AJfiMgAlEEwRByjRWIthilgOE8oADFtSEKJICaZVElgObDAIJMYZBIliYNEYAoMlSOwCgPUpQUODvIjYecKBAaZNAeFVSJSSRLMi5DUIJPmwkIlhqtQnJbeV6O4GsU1GKlFCQ2Ca1HCRImZiNokc24l/J5XBk7FxUQsc4tct0KTQgI3yF9xqvLmyI878heEUxKJ5Mcff2zdurVQKKwCuRR730oFI+6WcqxTMsPVsTyOZbViFbhqpZZXQaHZbJ4yZYq1tfWtW7dY4ONo9fnz5+vWreMkZ5V7MmaaznqHXvDyd3d9ef4UDSLZESWTgSKM/ymV6u8nX99HgGB5Opzg4rOyI3X+UE7iGgJXg0SAwMYkmHfzwxszozDzQxDgAiSMMJRIehTPTwhuQAgjTBgRwojgRvAV16OYDsXYg7ATbUGEGVJPfLApeulBLfB8nJIdPnRn6ZL7/gEApNQ6YLRK0yaT6ebNmzExMeW3b8eOHTMzM8uvU9G9ZjP9NpN/6tS/7kve3fGncZGeFGtFhFaM60SlNHrJbsCVcP2BjStczuzL7ioZflhLgNDIbEBrNUWqKRKIIZkmBi1OkFpKrMJJNQ4iWOuYaNYFU2+++TA7/euZqIsWqASmZ3VBKhBHsSGxQUQUy/723tMuv4Iex0wYZsTAGgsTJjTFxwSvXXnJdRawnQIRJQo9YuTk5Hh4eJTTTJ8oZh/zH1RqHYJ4zZ0dv2sLLcaMuEAuTObay/IpNpT2pLNNXGr9kixliVYaFNHgqKUHdtBAIIITkyhcA1qcTbgWmK/lN4cWw9lHD7QvI6PiQmLrRJSGiWiuwQiAUICi2ERoMUKLcQdh+RhoXYun8nAqP+YgN/6U39yFyr64mMjlS8JXLVVJcFbL91XZV07f/oy7vhScYgU2Y8eOrVGjRlJSEmvMxAp7KvXu/GecKqakswSp8o9ZqZdT6sFZbPqfFfzkyZOtrKwiIiJYOdz/IiQ+fvzY3d29Ro0a3bp1437LajYr49NoMtN6A535Vuh19vbiBc/PnjDBPBUGF0tqFFajsObDk+VoW3KoYtZbsSyVLy0oxClmuQ0I0MviFJhfCQ2jEdAWQJglQhkxwojmJ46riuGUASEMDEgV4BSuQ/PHU9ZImT2fgrMq3zNCsb1APlF8HCcQPYNT6rgE2ZFDt5cuEd+6RWt0tFavyskLDgoaPny4jY3NxYsXwcRb2sbqr9u0aZOWllba/g8uo7Va46OH0Yf+8l2+PNPvjl6AqhBMjgnlmECBCpSosIJJhQhViFCNCC27RGHb4cVuDvhaBk5hWpaSS8MpNUGpcFJViFNg9tWiOIiszEhE2E9W0snMiPnTMyftYERTOGeBzsbrLfgs5SRLdtHyS1icMhXgFI3wQ9avujDXhb5P0XoN+wr6P4H61q1ba9as2bhxY04KXuqzHBQUNG3aNE5IX3IEe28JcMBhNNNyBS2RnJszK2LTWhrl6eBkuTD5k0in2CbmGt3y6c7fxSw7YOVVIDg0julJEGU8PxVZPYrnvwixr0PMJ2hfNrH694KvDHiRjFwZfOowksFrbugom6XAGppybKf+O05FLHOL2bhal0LRWgXNuOU15XtAeb9Lua+2U9zUVtmZLwWn2OtkcYp7ga4CGVX56FP+gGLZNiVrWu79EvJqtXrWrFm1a9cODAzMzc198uTJunXratasaWNj07JlSx8fH/YktVptyWv5+BKwuNcMnCCBcOh5OcQl7+BlbukXz5kRgZp5xbT81OCcBcx/yZQ1J1kKNvIVDawegWEpRnpRBKdY11D5MiRGFmVJUSxOGTBm0mUGYu71FwzTGJ6fUIaimE8t0PThnI6j5JRf1pmXKC8dp3Q4aiBIdVyC9Mghv6VLyJs3TemZd2/7jxr+Y/Vq1WxsbKZMmSIUCstqTVb73K5dOzZIdlnVKl5OG/QKiozcvz9y69a8kBATUPZxpuiIFizuq6hBOnsHwConFFYjQhUsUMECFrBKDTZc8t6y7VsWTmkIUkNQyqI4pccJQMAopsfYJXXg08gojvVFpR0sUalBBJjC9i3Rah9LVKwpOiedonEkbtfWfxbOzE28Z8559+bNm+3bt9vZ2dWtW9fGxubcuXOsH5ZS20uj0fj5+U2aNOmjxlgzTRtMtEJFp6dfXDA/aM1KGk42MOp7PVmEaPObgwOdEhkg8yOKJ1Y6VQ5OsVBlCaHx/JUAACAASURBVLvgIMzBwQHzF0KybYczOncgV7ZM7DPLQhUIrlx0b/7XUkSMpcmlWElVeTj1YR3AUjqVsH5V1PqVcgqm1fKvOPUlzKelnsMXhFMmk2nevHk1atS4dOlSbm4uayRe6kl/wkJ2rCnrgKWORFyh5a+4Qi5juffz5jlZ1JEjR6ytrd3c3H7//fdazAZBUPXq1Tt37pyenp6Zmfny5cu8vLyMStgy08FB32RmvE1/pX7+OOLYoXNzp+J/H3h9N+RZVER+uhfxlEns1+dREWwqrMDVLJp5HhXxMjIi7W5+UqNwqTMZo6YBb5Yc0OS/7zIaASWFKSicSYSCAkklIlWcGKPAflzLjLk6HNhUAUN1xrgK2OIQ+W+6rLJAjecrgBhffyxaYQCn8tENkAQz5WB6Akw8pZ5wsUKLaaMITrHutZhPFJxYfILkyCG/ZUsubNgwvt+AutVqWFWvYV3Lqn79+jt27Hj+/HlZzfs/hyAZGRn16tUTiURl1fmg8rzXryTBQRdX/u63bs2Dq5dfRoQ9jQx/EhX2JCr0SVTo06iwp5GgpILpWWT486iIF/fuvoyOTIuNehV373XsPQ1jTFPsRpUlndISYOWdhiKVIlIuBp8qxlRZSZJqglQzOKUgSBVBqUhSSQITK9ZVIwtJOmZ6NuG4AUH1hXqffHTWYBgwjLNoX0ZCw62W/7CptOQVsTIYAwA7oOwzYkJamCw6ccRv2eLHfjcOb93coEEDW1tbNlK7vb09+zi/KWPLzMy8dOnSiBEjcnNzMz9ie5X2Kuf5czrtxb5ffzk5Y2pmiP/LqNAXcZEvYiJfRpeSXsSAXSVTqZXToiPfJcbL+TyWqEpKp0rilKEAp4DKj5FOMS0CRIYaRuRc7DnNf1rZXRbPMotWRpzUoTiDztwTyjQop+MD8FQslbqs778YgxbiVHwMtXd74PLFr5NjQJAuRjplpM1GIB78Kp36vLNrkf/+ZeHU5s2bGzdufOLEic/lSqDIvSn4olAoXr169T9zBHYuyc7O1mq1rFH5kydPcnJy0pktOztbLpfn5eU9fPgwMzNToVAUUwgWHK+q/1rilJWVlYODQ+PGjSEIqlmzZo0aNSAIqlatmpOTU/v27Vu1atW8efNmFdiaf+DWolmL5s1bNG3RrHnzxt9/a9fyG6htNahbXaiXQ90eDnY9HOy629fv2qiec0NbNnW1t+WSs71t+al7I9uuNrX61avTq7b1wflzVYiwYFbjpjeQKdQCADMpYFTBTlFaHM9BBO/EmDQ24n581IOEe7KYu5J74S8R/gshL51AnyTGPU+Mf3Av8gUv8Y2Qn4egcopEo0KQ2HAyOuIthStFVB6MsgY3zMQM1g3lm9EUvtpajMgEeLvVk2hBYr1klTfjWrAUpsfBhMoq+yxYCij7gBV8fILsb89D40b1rl+vmZV1bag6BEG1vqkJQVCDBg1atmzZqoytWbNmbdu2hSCoRYsWbT7F1qlVy64NbL+HICcI6lETcra1cqxv7VTPqku9Wk71rDrXtwapXgUSW7Pg07lhnXbW1Vx+6BNwzFOJlYHORUQdBKtRNRCkmaDyhMIMAsYigl4Ikl7yk2X37t6PupslEALHB5QoLTHxeWLC48Q4WVzUS4SvEosyeUlPY6JSwkOyBDw6RUbjlEmIGjDGDo8gdYXWeMXbFzRQ/lz7X2bTkkTFilv0OOMoAReaeQnU3563Fs2f2bZVcxurGjVqWFtbszhVo0aN/0Vqd3BwYHwJl/LRqlUrFr+aNWvW+r9urb77zqFF82+b2Hdv1sixBuQMQX2tqzvWq9m+QS1HOxunBjZd7Gp3savt3LCOc8M6Xe1tuzUqL3HPO5fp0dC2b33bfbNmPg4KLMeOqsijQQBNn4bCVSI8GxPejwx7EHM3E4fFIQFP46NfE8J3EkJ3P+VZTMzjuJg0fnJaQvzL2Ng8HH+Ho1REsCg6LCXx3lsRqiRwWiozi8QaxFJAzijyClmKY2XLDFZCvVtsb3mPuWWjcziljo8hGZx6w+IUM4GwK0wqMpd8VfZV5C59kjpfCk6xAYb37Nljb2/v6emZm5sLdENG4ye5yI88yPHjx6tXr7558+aBAwdaWVmNHz+eJEmapuPi4n7++ecxY8YMGTKkV69eISEhCQkJo0ePhiCoWbNmmzdvTk9P/8h//Ul+bolTtWrVWrlypaenZ5cuXezs7CAIqlGjRpcuXTIzM1n4M5vNpVpaFCvkhHAVzLBuUgy0kTZracXbywe2nFjnmpYUopThCplIIRPJpVSuhMwWEyBJ8BxpYcqW4eWnXAmuIjGjhFJhsJbAFLCgfJzSkriaBDjFDsQaDNPflyX5+0wfM2xUry4zRg75vlHdjg3rbnF3paIjXuLwxoVzR3d1mjl8SJvatdbOcJGGhJzfua1hXUCiXdu1iLp+JZckNaRIh1E6jAImOMDoiiyBU+wwyoytYESGC1gKQNV7JRnsqTLCiVJwyoAjBjwfp9QJic/Pn73httBn967fZ83u0r6DXb36EARZWVnt37+/HHsa1jaqdevWL168KNbc/+0rrde9RQS3tm8O27c7IyYyT4xmS9A8MSIXIbliNFeMVTDliLFsSWHKEsHKB2JFKvUW4yvQ0kPjFdUcAfTRE6SBII04qZeILx89YFsNWu86Z0jnjjUgaED776K9L6goEezjM7Vf3597dhvbp3u31t96/7U3yfe6x4SxDhDUoha0cuok3M/XRIhMKGHAwQHzHbECYrZgKQZ3dARcxLgN+CLiUkUnVMvJlUV/phvke0U3Jsc98T7nt3Ce6PTJi4f+6tu3r729fbVqIOCcg4PDy5cvyx89AgMDf/vtt49R9ploWkfTOq2Kzk4/ucrjpOtcmkIVD6icJ5LsFCJXBlKOFM+WYO/EKJuyRWipiatgmckTYXoxaRKBNXTlCKgs7xKr6VNTuFKMSyNCfp8ysW+bZgvGj+xga93W1ur3+S7wveC3FH7g96W/Du7/c7+evZs4rPhlAu5/58Ku7e3t6thCkGMr+8tHD7wV8oAjBrFYgyKMDAxhXExZGCyWp9RjbaS4Vi6QJRd2gFIlWFz9/ExxnPp98ZskRjrFtKuRpis4O37FqfIfhE+490vBKfaSrly50rFjRzc3t+fPn3/Ci/zIQ3l5eVWvXt3BwcHZ2dnJyalp06aurq5ZWVlJSUk9e/a0sbHp2LHjqlWrIiMjXVxcGjRo4Ozs7Ojo2L9//zNnzrCuPj/yBD7y55Y4ZW1tvWvXLpqmVSrVwYMHBw0a1LJlywYNGvz999/cwFoRQvoPp2QGz78J4NTb17d2/un3x4rXwTc1qECJoUoMlaNILgLnwEKQEEEuKsxFBbmoIAcV5GCC7HJTDirQiQglKjSIST0FMu/BKQrglJoEwxaYnyhKLRVF+1ye/NOgpt9A3zesM6hj606NbId27nD96KFnMO8P13mtatVoXatGr2+b3DzieWXP7h7NmrRt0ej79s06NGk4smsXSUgoff+hnhDpCZGGFKkpEcApYNQMEmOfwU63hSxVHKfeJ8moIE5pMVwRF//wzInbKzxSgoNouTw5JtbNdVEXJ6cGDRr8/PPPSUlJ5bSd2Wxu0aLFw4cPy6nzAbsMhhyBIGjL5nu7d+dGRRolpE5GGiWkSUIaJFTFk15K6SzSO5inFuEaMaHAwZIFy9mUy5eKUwCqKEohpc4d2WNTE2pW38qpdVPnds1b1beZNrB/6t0IcXDwGCfHphDkZG83eciAAO8zy6b/1qJuTcdWjZ3bNuvdodVOj8UvYmMNIuC4qDAV4lSR9i1BVJydcoVmU+5aLDOMwXUhTqVduxS2zB05epjOyqJp+ty5c/3797ezs6tVq9bmzZvLMTOnaTo4OHjKlCmcjxj9h28GvT6/MyjlZ9zdvObOoQksG05S3qcUFKZkkoJA5TichwnZJMeECrR4khfs5apxlU1iSk/gKligEPDVCPASVzJZ3h8diWspXC3CFWKcCLqzesbkJtWgjvZ1e7dr3rmVfduWdvu2r6Ni725xd21jb9vW3rarQ8MT69ed3751cMe2jk0bOH/XpHuH5iN6dsZ8b6iEQiNJFrAUrMVAKkTk/4BT73vGi1wIQ5CsV3Qgndq/I3DFEoBTRh1oVpo2fMWpDxiJqqjql4JTrGjE19e3ffv2c+fOffbsGSsmqaLbUO6/OXfunI2NzZEjRxQKRWpq6tKlSzt16sTj8WJiYvr16zdp0qSHDx8ajcbw8PAxY8Zs2rQpNjY2JCRk8ODBs2fPZsPLlHv4St9piVO1a9fesGEDd2+zsrL+/vtvJyenvn37snH9Kv1saAOdlRG5Z2fACnddRDCNYyaCMhEUEBvgYBUVmyxe94so7Cw5qWAVNKiQJ+DR92Vmidgkpt6r7MuXThXgVHpcrEYmFgT5zRg9bEL/nqEXz73CBV67t/Vt3XzviqVoaOCamS7f1697cc+uVwLei6TEjbNmDHZs7336cKDf1QOb1jWrBl3dudsgTjHgIgMu0pKAqMrGKSCXYlMR6VShBqH0lUGWOGUAyj6g72MTEE1hIOlxTIPhyvgE2YmjPh6LZSHBYB2lwWDU62Gh0MPDo1OnTsePHy+ridlnsF27dq9evSqrzoeVGwwKviDsjy3xO/YoI6IMKJiQDChsRGA9iuhRtPykQ9H8VNokqkKESligQWF2SVexqagsnFKjWAbMP753q3V1aMWCma9kJBYf+fvc6Y4NbCPOn0vy+XdsV6fBbb9DgvzTCTT4oteEof2WL5rpc83rsveJab+MHNmnW9LNG/r7KZoyccqifQmYa6OKTcPF5RPFLor7qgUOxmAa4avDgwPcXKN2bFO/yH//1Gq1x48f79+/f+vWrcs3NggMDJw0adKHNWix2mbarNGDuV2l9nZbcmnWHBrFaDGZJUiWC/kKIV8JC5TMigFuVaYWgUtNnL05m2HX9qpBh0GBAT4J3KaUpe/jbgvIMDilYnBKHB7k8evP/du19Dl15DGSePP88TE/9p03bXz8bZ/9a1Y4t2q6b8Oqx8kJj+Njj21a92OX78/u3+F/+ewZz11Na0GH3BfnJCWyRo2s6/NPg1PsY14eihX2gSLSKRanEqNpvYa1ndKD4D6mYg1S6tev0qlSb0tlFH4pOMVeG47jPXr0GDBgwIMHD9hoepVxzR96TG9vb3t7+8jISLPZrNVqT5061aFDh6CgoOjo6JEjR+7YsYMNQXPlyhUnJ6dq1aqxBknW1tYTJ06USqV6vZ7VlXzo//1U9cvBKfZfPHny5MKFC6x0qpIUrAUhkE20UUu/fhW1bVugu5s+KIAWwCYYN8G4EcaMCGooSEYUz08Yzmq4in9arF3nHHWyi9g1ZUksgMeg/IU/Wmb5T359DMsjUEGQn8vIIW4Tx0kiw+X3paK7Yb8N6Lt+9gyh/+2Nc2eN69kt9vqVbBTN4PMXjhnZqBpU3wqygqAGTNo5Z65Zko9TOgIQlY7MDzaiI4FWiLHdwYHVeaG9FGc4xSj7PginMKyAqFADhhoLkgHD1CiqTkoUH/W8uXQJ5utLqzQ00JibjQaD2WyOiYmJj48vq199epzSG1Q8QcSmLcj+w7kBoWYYsJQZRmgEpVHM/L5kQrHCBPwt5ScWwgBpYagWgcEnkyyn1VJxCiC7EDeIJNcPH7SDoECv028p/AXC9zt9vLXVNzeOHEKC/Cf06r5ozKinCfFvYKHPscMDnDvYfAPZ1AYmSdY1oR96ON46eUyTItNQhdKpUtvXQKIGAjUyyUAU2rqVu5C+cCq1vJaieaBI0hKYAUdoAtHeDYtYsfz2mtX616/Z1yE2LpZGo2GF0GW1NSudmjx5cjFRdDn1S9kFQEoP5CRZOcemTfdzXUwjqE7AN0rEOqyQlQ2oxXONoMbSEvfgGwogm21f9i2iVGIuelsKbp0FTlGhAUt/G//b4L7xt65nSwg0+M6CiWNcfhoc/Y/3gSVLfu3f5/Jf+zJxNE3A2+WxuH09axsIql8dqgNB30DQ1pnTM2JiGIdwlpo7iwV95SGR5U9Ys0gLLeF7nCkUXEgx6dTBnUA6lRhNa9W0CcTsMzA49dUUvZRu+fmKvjic6tmzZ9++fVNTUz8vgli2yMmTJ+3t7b28vGiazs3NPXr0aK9evSIjIy1xSq1WBwUF9ezZ09HRcciQISNGjBg2bNjKlSslEgnrGJ1lGsvDVln+vTjFyaX0en0laSeL4VTk9hI4hZTEKdaxUxk4VZo3IBaPSl05D/R6nHlywVLqQpzCUWGQ3/QRQ+aOHJ5w47pcJkm+eWNSn57rZrhQYSF/zp87oU+PhBvXFRj+Tggv+/WXdo1sB/Vw/HlY/1E9nCf36e21foOBFLPSKT0h0hGFLFVZOGW5dL+AMwwYMINVJSYQngdvLV8qCQyidXrgmcJsNBoMXCuX1fEqA6dehd8NXL2eOnzCHJPI4pQJ4NT7WcrMsBSHUJaZj8Ep4FuVkvx7+K9GEHR43epsMfVWTJ7eseXbmpDPiSN8f7/f+vVZPnHCy6TEXAKPunRxZL/uzezrOHdp06tXp97dO04d+2PAuVMKMVgeyCn7ysIplqXYT27pwEfiFLvKjMUpAy/BEB0ZvW6N3+pVhvQ3bPuWL5GybPqgoCDWdsqSqCwrvD9vpmmtidaa6Xe53gtcby10pZOS9UIhcJdaBk4VYlPBi1PxktJwqnRyKs3fmKV0KjU6wn3SuFE9nIK9z+TJqCTf67PH/uj6yxjY9+Zf7u6T+vT89/BfaQJeGj95y4I5/b5rNrRLh2E9Og3r7TS82/f7F7lmxMQYSUolhIsq6wvAqGpxivprt//vi1/H3wM4ZTQZzbSeNumB16+vK/ve30+rrMaXhVMEQfTs2bN79+4ymazKbsF7/9G1a9eqVas2adKkgICAq1ev9u3bd/jw4Q8ePLDEKZqmeTze9OnT582bFxAQEBwc7O/v/+jRo/cevAoqVASnaJqudOADj74JBElIfxW6c9utZW7K0AAzDLPeL3VokWgSjLKPdZNY6MjHUtNXLM+KnThXCKWOvxXBqV7fNt631P3WEc+dixYOatXi+Pp1D2OjtyyYN7FPz6Qb/ypxMgdGDq9dNaBT20M7Nl07/Xfw+bMhp04+Do/Q4tSXgFNGkSg3JhrZvydg9conUfdA7wJrOgBLsdJHdu4stdd9epwyGJ4Eh9xes476+zSdLATKPhxmxGmFbpyKCx0LMJEVS5TajqwsSsO4cMz/xNFiHhMK2xowdKEpug4ltBLJ5aN/1asO/fJDv+vHPC8c2jt2YO/vmza863Ml0c9nUu+eKyf+8iwmRomTqJ/fwonj5kz++dihXZcvHPe74hXjdyMdhRUEwfokY4mqynAK3BMMZ3w0YEYMMSQnqMNDIlevCtuy2ZiRwTXxe7mZbX1W2cf6UueIqtSOUWYh+5KkNdB5ct+1a68vmK+PjNCicJaApypwJveffcixLWv5mJfaGYoV6hmX6Kyy72Fc5LLJv3Rr1mj9gpnXjx7c4r6gb+fvPGZNlkXfPbhi+dg+3a8f83zBS3qLwl7b/vy5R5fTO/68efbv25fOXD9xKDUsRA0jCoGQlso+I07pGTBVx8eIDu3x/33xGw6n6K84VWav/Iw7vjic6tWrV5cuXSQSyWe8KcX+9bVr16ytrTt37ty8eXNbW9t27dodOHBAoVAUw6m0tLQNGzY0bdqU9UHQokWL/fv35+XlFTta1X+tCE5xqtVKkk6BqwbvUQxOZbwK2bXt5nI3eViAEYE5eykwgOL5iXMtrQEOY4DZeLHEGk5xo62lE4RiIyz3tXCKLSKdIkDwLxxFA/xm/TSkndU3PRrZNYegjta1ZgwaEHb2TGpk5B+zZv7cvWv8lcu5QiQPQeOuXRnVzakBBNlCkB0E/dimjdjvjlKIMjhF6YFoqgzpFFA1lq7vK1hRzxpOlWKqnK/1wIBLSU4DUtRRIWbAcFokzo6MFOzZFbR+bVpigdW5OX8NkE6nK0eZWxk49fJu5J31G9CjJ7SxCXoUWPIaCBBCsSLqG65xi2W4TlIkU9QBVWFbF7AUAz2kBiPUUsmlvw/WrQEN6e7YytaqLgS1rlNr7byZsrgonq/PtH59NkyZkhYTaxBJnkZGeq5e2bGhbR0IqgtBHezqbl+88HlsrApncYrQkSCxXhjy/2NB+xrIfE0fJ50qsKNi1/cV6nS4/vnejB4HviiBjwYMN2EojcIZvj4BHkuSDv1lYBYRc42r0Wi4aKEcKllmaJoOCAiYOHFiMVefHzw6AQGVjpbLQ3ZsvzJ/bl6Qvw6D3yTFqwgQ/oVNRZqp4AGvYKFl07/3/gDHYIyjBNYUXRoVunrWlKa1IKdv7epBUEMIGt236+3zJ18Ikg6tXD6mp7PviaPpsECbIiMCbk8b0KdFdcgGghpB0IA2zTGfG3K+QCWETZSoKE5Z6vu4pZrFHtiSyj5mcR8QaH3AcgRgF2iBU3eWLwI4pdPQRpPhK059cE+tih98cTjVu3dvR0dHsVhccal1Zd+na9eu2djYnDlzZuPGjTNnzty/f38G8y5IEMTevXuvXbvGMVNaWtrJkycnT548ceJET0/PV69elSMMqOzT5o5fEZziKn9khgsazc7cJRrRDNzQZbwO37X99vIlqrBAc6l2TgVuytnBlDM5L5axHGot8xUZdtlZ0ECAFe9gxCRJyu/WjH59pvTueXjFsj9mumx0mRp8/HiGgP8mOfnqrl0HPNzx27fph49AWDeJhO9zw23ECNdhw5aMHnXPy8sku8/gFFVk/XyhtTJRhPZITEeiOmBExfrwBJ8Wq+iLDc2F8y6YTQtTPlQxF8sO30BuQeNkTlh4/NYtYVv+zMBxGuj43qMO4GZZNhhRs2bNLL2iszp3o9HIZsrvz+zemJgYb29vkUikf5v1Iiziqscy4tRZVWy8TsDXo7CBAJbFFWqjUrU5loUF/URXJJwIuGMFiJMvl2JZSk+QtESqkYgvHdnfoCa0ZaX7Vo/F84YN3TlnztOoKJWIFPnf8Vyy5NIff2QmJNCpD7ISk17Hxf2z+c/FPw2f2a/vuQ3rUgID6fup75KSGJDKD2ZigW6MX2+GqBjDKcxIFE+sfrn4Tzg1dHkZgnH0QBlxyoSTNIbTMPz08iU/jyWU93lansetL7F8hLnGLfEk0px0yrI+K+LisKzYrpJfQU09kE6F7dr1z9zZ2ohQE4boKRK8DuFspLz8zlngjamsr4X9vLBvlN2+hXUs+gMwWsdBsHMNBVb2Se+Fuk8dP7hHxx2rl/w5Z8bqX8Zf270zCxYoScJn966Tq1fxr13NgYVaiTgHhVNCgzdOn+o6Yvi8oT/cOXQwMz5eDSNst7HAqYLntIilY5mvQBYnaQleFeVp1mhBi6E0zH/udeL2MlfC5xrAKcaN51fbqZK98bOXfHE41bdvX0dHR5FIxK3b/+z3yMvLq27dur6+vjRNq9VqjUbDDTecgkytVrPnyY1f7ApkS1n657qQqsSp/0UGFIvFKpWq+MWyegGg7tPR6a/v7tx+Z/kSdWgZOGXpuLxgSLUEpvLzFqNYaWM0O/4CoUK+IyIFX0BLZc/Cwhb+MGjOoAH4nVvvMFgpEenvpyhFIjmOK0lKLZHoZSk6SqxAsGwhnIegGow0iCRqkVgjkegosQYDAUkMjH8jzqqGyRRjKVxXBKfyA2tU6JwLA5sA6Q6bmB/mR2YF0ikUl4eG3duwPmrH9hyJlGmF9+AU11JardZkMjVv3vzFixelYhM7YbPuqdiINNxvLTN79+51cnIaOXLkhaNH//nzj5MLF8iuX6cpSicUaAR8A45+Mpwq6Ccl7x6n4ONAKl86haB6mfT60YN1IOjUvu1ZMpFWLFEJgTd5ECiGIAwiwNYKgVAFI0aSoiVSPUFqEFAB1AFOHXEDSemB7VQBThUPkAIEkAYCBeBI4MUSkMwxnrst1dPvzxeoLA04g1MYg1NCYar3eZ8li2XXr9IqVUlgsmyUkvlSccpkMmm12ufPn7OrO9/r/M9gNNB6Ha1QxB0+fGnOrJzbvkZYAJw/FfbV/MiG7A0s45Pz2lX8gWWf9JLtW7KEfRyAz3oC+EoAfqeiQlbM+nXUAOc4/39zKSxHINAQRJ5QmMPnKxFEQxAKBJEjsIYiDTKpTirWSkQaEQX8tiCICrFkKUu/Yv/dtLzkOZdfUgyn/JYuBDil19IgWtdXU/SSPfrzl3xZOEWSZDGc4ujkQweLT3hrr169Wr9+/cDAQJqmOV0Y+yrPeXbhAIubbLgT4C6BK6niTFXilE6nc3NzO3LkSGxsLCep0muZ1dRgWq8snCopnyh/qGKkU/k4pRQIlUJYfNN3Tt8+i4cPk4YEKUVkhoCnoEgFSeVhWA6M5CJorhCRw6gKxU3SlByeUI3gOkKUAyNvefxcAazBgKDrP+IUExCjfEZkImbkYxMjo8rHKcb2CGfDMJtRnMYoVWhEyNKlSfv26R4+zpdMFSj73tvxzGZzp06d/hf9zbIm14G5jOXeknkMw6ZNm1a/fv0m9W37tf52UrdO13ZseRUTpcVgDSzQCAUGRl/5ngaykDr8h5rl4JSSwK8e3GNfDTqx/c83OGK6n6onKCMpMlEiA0mxSU8AmSULUqxMyywS07IUhUAI7GlkMo6ldOxy0SJSpXx9LqvWZMVR3CfLUpY/r3CelbRRBk46JRCIzp6+tmTR04DbtA6gMDcclWyUkiWl4hQ7jp08eXLdunUhISFv377V6XTcoFfyIOCJ1qpptRo773V9/twXF8/rBMlq4K8yv6+WwU/FGKtMnKpg07MsBSIqsjhFAq/oVKj/mlmTx/XpEnn1/Ct+okpEKgncKJUapVItSSoxVEOSBolYQ5EqHFeThE5EGSRiLck44MUJHUlysfyYy+FQr8AtZxEZVZlC5QpeQslq/74IvgAAIABJREFUnIctVjp1y30B+RWnSuuCX07Zl4JTLC2RJNmvXz9L6RQ3gn9GnIqPj1+1apVYLOaYiW0/ViJVrJAd0dgKH2uX8Im6SVXiFE3Tbm5udnZ2o0eP3r9//927d3NycsB1cNIpY6F0ShUSYAZerUtKwisaGZdDkJKD0XtKCqRTBoJUCeHc5OT0mJiLGzecWbsmLSEuB0WUIkonk+WgaB6Kme6nylEMiKBwSolgBpGETnmgRUmTWAqcoYslKhTPik80MOIuMH8waj7O/Ku0+RLTAZWQheMGJuhNEW1mKeZiQHzCJBwsnmJ+wmhV8sMFGjCCJkXK8Lu+ixbxPA8ZX7ykzWbGBr3A3WKJHqWy2Nhwjc2aNROLxc8tNqnFhlhs8RZbsMXm6+s7ceJE1j1345pQYwga3bndAbcFqYG3dRishYUagaAitlP/x951wEV15P9VY73UfxJzl0u5eF5iTC7F5FL0TDSJUWMScxdFBJZerLGjiCgoCCjYO4J0WLooIKB0tr62S9FYEhV7BZbtZf43b3YfDwTBSDN58/l9dmfnzZs385t5M9/9zW9+vw568L54qz04pZJIVQQhSU2a98O3RfHRDVVyJYbrSTk4dVqLE40isZ6kjPIqBALMimpQUwutnxOkSa4wWtRooLIUu0/1yCkyG1HBzrWeJGX1MroLupOTPzhRpJaS62hTsUZCbsZJs0SM7doR7el66VgOFFrQgfmbh37e57NNOIXy7969+80333z//fdXrlx57NixW7SNUHSp5TwMRxdQq4BWU5uYkODocHrnNrWwvAmXaXsDTsHNProvdBShlhPnS45HBazZ4b2YOppxh5TpT9UqCQzBKSUmU2IyfZXCVFurIogmHAMnT0KnfjgBj+LKofojbYMXvllWRMhgvl6AU+f370jxciaT4oCuWTrF+ey7z/DulUt9BU6hxut0ugkTJgwcOFAoFKL3ti/AqV7pGPbGysNYLtbr9Qzg27p165AhQ1avXq3ValH5SCEGbdywWf0wcQzD3nrrrf79oau4SZMmhYWFCSuEmgY1gGs6Pf9ev5rnvzZ9nqcVTjEamtYICT0EM1CpvcgDS6RYCzBabhEAsmhIUJSWotRyucpCCpUc2jeHJs4phZqE3mO0lEKNU2qc0uCUFoN6zTfKyo01NUqpDFTXoENAWpyA3nCJtutvOXtI7xOhdiEIdauy7FZl2Y2K0mvlJVdKiy6XHK8rLqwrLqw9klljJUlSvDgxXpgQVxEfUxEfUxYfXRp3qCg6siBi/7ED+45F7CvYvy8rJDhywbzl4z4OsbPJijkUlxR/SBB7SBC7L2L/AWvYZg1btmwJDw8Ps4bQ0NCtW7c+88wzPj4+gayw3hoC6OBPh3V08KODr6/v6tWrfeiwatWq5cuXf/bZZ0OGDBn2WP+hPN4LPN5bTw5a/P0UIin2+okCIKfMJNlbcAp5hoGej6sgqRTQ3oGehAcItBiJIjoSLqUobqQURkqO/I2Yq2u0BNkkkapkMnDqpLFarpeTBjlppMgWGlGsTUDkb1tDYCpcqsQkjZgEmgUnpE0kpqQekEhcSZJNBKXC5RocuuZVlpUWBgftcXa4XV4CDBbE3OovHPOCt4rodLr09PT//ve/bU5uFy5csLGxGTJkyODBg8eMGbNo0aKsrCwEqlrODCZgok856LRUbEy8ne3lA/sAiasInIVCGDhynwiDVBgJ0ANHLAIqePIAng/QUqQaejEnmyDBjlYpKI28BalJUl+laMIxFUGoCPhfxeoYioKwlaoGNaeUcCOYoonZ8ushOMX8nQCY+Pz+HckefDac4lwgtzl0ezexT8Oplq9uZ1VAepehrZ5uNps7/3+RuddoNJ44cSKUFUIeOgQGBn7//fcMxAkJCQlmhYcuvrmAzZs3v/zyy0OGDBkwYED//v379ev3yUefhKwPMWuNANqfM4EbEE6lzfdsOpJhxsTNBqMZ4Tkp6xScYsEjZurpZAQqodPCJEa3Bsr2KUojlyMIxXxCE+c0nNKQckiEXEuTDn5SptparQJ61TVVVWlxAupjUXI1hqlwGXOyiQ0H2XCqCZPUZKQKNviHebqFe7mHe7mHzXHf5OUW6uka7OEc4uka6uW2aa775nkem+Z5hM51D5njvtHLfYOHywYPlwB3Z38P57XuTn5ujmtcHFc7831c+GucHUI93FZ+M3nWiJe8v5u8wWfFCj+fJf4rF6/19vZdxQ4+1sBCTYHBwcFbt24dPnx4YGBgDCtkskIRK7AEVbJaVhCJRPPmzXv22WeH8HivDRnwxWsvbpnvfvJwqp7CzAoSKOTQcNRD9F1nurg96RTqbrihYyXrAJAjH0G02TDaECuUA8mtV6EtVlBbqyVJo0IBzp1rEAvVBGaoogxyiKWQUMSiYG6FU2xZlOlkdfH+PbsWL9i9ZOH2n+Zt/2netla0aN62RfO20rSNjrfO8NP8bT8t3L7wpx0LF+1c8NPu+QuilyyeP/Zjp7fe2L9k4a7goLCwsPDw8I0bN7KmjdDm17JlLDQ01NHRcfTo0aw5AEY3btwYFASLGjt27EBWGDNmzPz58+vq6th/veDrDOGUGRh0P6enJdrPPrdtCyAwFUVqyfZUzttLf2D81OYwQP0O/VIjCTF0ptkMoZhORxE1SaopsomEWArBKav0l1JhpLHqpFKCG+XVbcAp1kwFp6/72aDqgnYBTPzrvu3JHnwiIQZooSo67bAPcp+zOwX6UujTcIr96rYUMvclFnZUl9ra2suXL2s0mo4yNl9HcAoJANDn2ocOPj4+X331FY/HGzt2bEBAwNq1a5FoAX0+dPHNBfj7+z/77LM8Hm/QoEHIZsSXX3y5Ye0GS/M0SnDjam4AhFPKoxlmvBfgFH0CiDRaVZ3QkmmBU5RcwwilaLkUglMIS1lkVIScxlJyNUHelUpuiiobcNktYWVlxMG7lZWmmhqo32rdvGNjKS20it5sll2JSaozUpM3+G/2dNs23wvR1vleB1Yu27/KQrEBa6zkl7U1DFHm1rCCg3sLDu7Np6kyKR6RKDGeSEzIXu+/w25m4ZbQxksXLt+4cuHWpQu3Lis1KnSKQqvVoiP0SMmP/Yn2qf/xj3+cPXsW/ZNpHpEPEsvPz//0009fffXVaZ9/tuDrSXs83K7kZGtEFUYSg5t9mFRDOw9pcznsskSK1NHHAqA4iiYGGCEYbSSgO2QGUkPLq/Q+mo72uqihLKbtmbtgOXK5vkpxp7Ly7JHskxnpd4TlhioKWtRsB06hTT2NHB40a8QkR7eGbfJw3eTlttHdaaO7U9A9FOjuFOhB0z2Xgtydg9xdgtxcN7q5bXRzC3Z1DXV13jBrxpxPPnB5Z1SIi0PoGt+AgID169f/z1VfZ+aNdevWzZgxY/To0exJwM/PDwkaAwICOgun4KCBgpLLxwsEjnxqQ4AJlzXJ4WZ0l3XlgyBvNoxmOheJJNmmwhg4paJIJUkgRAXRFQ2wVBTViBFNGEXEJ90uq0S7flb1KZahBAZUdTeckonP790ucOeTVjhFO+zj4NSDzEo9kpeDU93LZrFY7OvrKxAIbt682b1P6kTpu3bteuKJJ9atW9etpyYpinrvvfcGDx7cv3//8ePHr127tuhEsV4NLUnSm30GcOMqMuPZ2HtwykSQJhyuploK7gI0WUjepFA0KeA2n0quUCoUjVWQlAqFit7sU5HyJkqulENSUXIVRTWQ+G1cVldWItgUvPg/31NZ6eDs6SbaUBZCVO3BKR0F7Wnda1JLReFKCmukqYGUNpDSekJCR2SNFN4kJ1QKuIWhlOMMNVI4oiYSmkIlD0YI5nlVRR0AGpUJGHRwH8hosiil32+UoP3f11577erVqwhmsXeImN1hxmgCuoqAFzvnrl27pk6dGhgYWJSZcSwkOH3xoiuZaUap0EhI4Xk3eoMMeUPrxhUXWoRC7n2goIKWO1JqOaWSw0+0siKohESSqMfZn0g8qVLI0T6RSkHVy6T62ho8LSXQ3SXKd+Wl4kJjtVyLY+jsHvvIHlsuheAUspqmob3zqqtIdRWpqaHuJXUNpW4rXVMtp0mhqa7SVMMzaPoq6k7J8ZwNaw94OYMz1UAPt+/v17str5lMpsOHD8+cObNlsuXXpUuX7Ozs2tzsY//FpYXNAJjgmf074soUJ0fJah+TTKqG0qkukMo8+PCATj91VnEUwkxog8+Cn+TwZVfSW71NCkopJ5VyspEiGkkCgiqKpIlqouSNBJUeutnzi6/wZIEabgIidNgWluoB6RQNp1I8HPHEGGgoAbqXAbSon5NOtTl+ey2xD8Eps9l87ty5cePG/fnPfyYIosMzut3KM7VaHRUVFR8fX1JS4u3tvXLlyhMnTiBzwyqVKj8/f+XKlcuXL09OTq6vrwcAVFVVhYSExMbGXr169ezZs7t27YqJicnLy3N0dPz73/8+adKk1NRUpLH0MP/7f1uT0W6j2WzevXv3oEGD1q1bh2ry20rr8K65c+c+//zzEyZMCAkJKSwsRPyxqqLTZjxvXs1ZvzZlgWcn4dTD6Ei1OSMbcBzgZFN5pZGSywTJ2/xWRoRvPBi8frmj3cYlC6m8o0q5XFNbW32iMHjlskWu/BWuTkRGphKnblSKYwMDvd2dy7MzbpJE7p7d65wdhcmJaVvDPnr1LyOGP+7y4zfSjBS1nFRTECohLMWonMMIUlimI80KN/TJPja6UlH4/amVUVPLak0S4OTJM/EJSXx+9e6dQNUEjDoTtD1lNJlNnVluzWbziBEjrtE2Idvs6Fb7723+FIvFBQUFSqWy8fyv4h1b0ua6X0pPMmIiPSnRkjK6md0vuqClU0g+oZLJ1HLqsrjiYODarT7LDh/c4+00e5WDbcH+fY0k2VRddVUqrkwTrHC0W+5oF7He/2JFhbq6pvpw9pZFP+3wW0UV59dWnNi9zmf38qV5+/d4zPh25POPTx0zet+qZVdLikBNtZEg0IEyaCCgfULCKtRTTSTG7l81LcFCwIv5VMuhPnVLItU0HFTLST2FmyXCo74rD3o5gVNyCJsfJNwfTkVERLz22mujRo3y8PDIzMy8fv26Wq1mjMKwnkMDOLMJGHXaarnAkS/y9gYSzEjIaWc4PYaomjcQm6TSmsyMnSuWxgVvSAoOWs23D122qCI1+Q6Gaaqra0/k7w1cN99hpu9894wDuy9h4mtScc7uXRs83EpiY67LJGJB8kZPz5yduzLCtnzz1ttvP/d/zpMnSZOTdHJKT+EAomfoxvtB3CF3ARMaj+ef3RGWNsflTP4RoFfT8kBgordauc0+1mjs/WgfglMAgJqamo8++ujDDz9E7lkYHeqe51N9ff2333776quvfvTRR0iretq0aVevXjWZTNnZ2Z988smQIUMef/zx/xkdFQgEarVaLBY7OTlNmDAhMzNz69atEyZMCA4O3rlz55tvvgm9p/J4y5YtQ3Z92CtQz7SLkUUFBQUNGzbMz8+vrZmxa+piNpvd3d3Xrl1bUFCgVqvREm7QGxCcsjiZuXkVWUVvyOnUZl+bkOhhEiGcqv3ZIMWaJNLsndvGvffGqBF/+ecrf36Kx3vjhadDVyy+KZXg6emrPF1fevbx/jzei08N/WnGDFF80l0JHrM+8IWhjy32chYeyZgx9uOpb4+uTEpYMP3bZ+he/vNTjyWHhzZZztyx4BT72BcdRztEjGAD6Swj+IVwVUefSFu/1ScOqqp/TUpOd3au2b4NNCmBQWc2G0w9C6eQwyI46urvELu3pnrwLwhiASXRkWINJaWBJjyW+DA92PG9tHQKwSnoFrpKXn081/Hbr974y9Pj3h45/DFoI/urN18/WXDsTpU871DEV++99X/9eE/3473/yl8OBvhfFYmqjxxZ8MP3H4x8Zdfm9UFrlk799L0Ad+edPsvHvv/6kP7Q9bX75Ikns9J1OGYiCGTuqBWcYsNoBmah85hqAmP3Lzzo1xKHtXv6jyI1clIjJwwUBsSVeau9Iz0duxBOIdFjdHT0/PnzMzMzf/nll47nBbMJ6DWaanmig714xUogxgChoHXj2jix2+YxXjrxYcZDs1EGFYZVxkZPfe+tMS8N//Tlvz7P4/39uSfWLvA6lX+s6sgR/4Vz3njpuf486L/c4YepOTEHbxJYxtYtX/9z9PyZ/zmeGGv7+b8njhhxdPuuNXYOL9E+D57j8WLX++ur5FpSppaJtIREiyOCJv4t1M2bfY3H82s3B2XMcztXfAwYoXSKVkE1dwZLAQAmT558H8fnHfcvl6PTHOhbcEoikbz77rtvv/02SZK/QYO7063uOGN9ff306dN5PN6qVat27do1ZcqUF154IT8//+bNm0uXLv3iiy+Cg4NDQkL4fP4PP/xw5syZW7duCQSCiRMnTp48+Z///Ke7u/vZs2dra2uXLl06YsQIFxeXw4cP9xacQjox//PfvHjx4sGDB+/atYsBWB0z4gFzmEwmgiC0Wm2bUNgE/1Npwa2rR9avTV7o2ZCTYeqE7lTHa+eDaFdAk9kEDmpqTQTVIBLHBQZ89OaIce+/udrLdYm9zajhT7t8+/XJvJyk4KDvxn3kwZ+5bvWS+a72H7768gFfvztC2S8Fx+fO+OH9v7/046Txbw5/er+vzw2RKGf3zi/eHDnqxWf8F3n9fCwHnLy/XSIoo7oXTjU30yrWarVRyPqJUJRMC3X22YQZKaouNTXL3ZUK3wSaGoFBC2g4RW+zdtyXXSKdYqShAJiqDuxMdLE9mxAJagkNJVbJewhOaVlwSkuSupM1lzCR8/eTX/rTAKfvJu308/7hkw+e5/HSd23/VVi+xG7WJ//4m/+iuaGrl7v+MG3amHclaalKhSJjx7ZJ/3r3gzf/9um7/5jx1b8rBQlYdrrPEs93Rr1k89W49O2b7kqEWpm0PTjFQCiLbSqkNkfgOhLX4C0OfrKBV4dxuE0sxw2kDIgr8laviPTkg1NUV0mnkPGX06dP19XVIVis0+k6mC7MZmDQaqoVCQ4OIu+VQIIDqoqGU9aDuhbPKvf52VlD4c3vSItXvhlONUgkZdFR40e++unfXw5ZMM/HyeHDf7w65eP3JSmCjK1bXKd/Y/vdJH+fxauWzPn3u6PW/zT316KiurKyVR7On7w98uuxY0Y993TkmjW3hOKK6Dj+5xNGPP3Eai+30wV54FR1k1SoJcQWgoiqR+EUHrAmc75HXWURNINsgVOd2L+n33gOTnU88XVRjr4Fp0pKSt58883JkyefPXu2zfW4i1rdcTENDQ3Tpk0bNWrUxYsX1Wr1zp07X3zxxby8vHPnzn3++eejRo2ysbFxcnJCHgaPHj0KALh27Zq3t/fw4cM//PDDrKwstVptNBojIyOnTJkiEAhUKhVjnqDjx3d1DjQhOjk5DRgwIDc3V6/XdzBFPlwFlEqlSqVCNhose0z0PykrnLqG4FT9w8EpdDQafbYzz7b9l1dPECqRRCPDGqXS2MCAyZ+OWezucLq8mMzJtvlyvMu3X+NpKTuXLflo5KsTP33f9sdvvv1q/PDH+q2wnX0xv0hNVp2Ijx339uvDeLwlzrPPnCjU1VRfLi9dPGP65I/eqS45dlsq0kNlC4toyqJ+bpVOMeYcLXCK3icy0j7smOZ0oi1YSxRlQVQ6aImbvJKRecTLEw/dCJoagFFHwylo4LEzoUvgVLMLXr2m5uCeeEebn2P2gdNyK5yCJ9I70ca2+66TN7LhFPj55wYS+1VYajd5woR/vn48KfqWHMvYufVPPF5k6AZFYd7Mz8a+/ZfnXP4zzWbyhM/efuP1J/8UvWH9LZnsXEmRzxzXZwbxxox6JTIs8JKk4jopTYzcMemzMRuWzDlbnK9VwGN9nYVT9BhA9UcGr5m2WLaArYPkfj+hEAvXyjEjKQWSyrzVKw562INTJMTNDxLa2+xD0wJjqa5TRZrgZp+mRpHoyBd6rwRimYmg9EQ7akaMRIcdeVjpjgVOaQmyUSotPRQ5+d03F9j88EtpsSIvx+6br6aN/VdZXGx0gP+/R48cP2b09Cmfz/7P1JF/fmb2l59Lk5PrSSJfEDfps3/937D+Lv+ZJs86rMLlt8SyFbazPxr5t8rs9Ho5rsTE5hqqQVTaW3BKtHrFkYVe16SVwAQtYtDSKQ5OdWp49mSmvgKn0AssEAhee+01GxubixcvIi70/NYYem5DQ8PUqVOnTJmCVH8yMzOfe+657OxsgiAmTJiA9u94PN6wYcPefPPNAwcOIDjl6+v79NNPT5gwoaSkBJlQj4qK+uyzzxISEhobG3uyX1s9C2EaW1tbBk51N1pFHdesuEof6oUK0SYduHWdhlMe9TnpnZNOId2IFusrAz6YCLM4tR9p1rHQy+VKTHZXKhGEh04ZNybQe+ElSeXJgrzvx/1r5oRxVYcPb54799Unhgztx3tiCG8gD27uOH856WRmjlJGVaalfvrmyGcG8pa78a9KhA247HJ5yeIZ308b+56iOPcuJoHmjFlwiqkP9FjM9jpCkEYrIUPhnW5LKzhl2fLTEbiZqrpx+MiJxYuE6/3BlTo4+XbaJDqSYt5fd6rVuOrgp05Te3BPotOsn6P36LEyDSlUkRI1gWvwNjqU4VLXRFjSKQ1OaGuqzovKHL/5cuq/3sFzMpuq5cejIh7n8faG+NeWHf/6/bf/rz90aD2IdnX8+pOPhy9adFsmq6us2OLn/dQA3luvDk/avUVZq7ggKovdt2Xy5x+sne96HRM24VLYoThuZOy8t9yzYwRUzWpzLY+83Q853YuuLIVb4RQmQnDKVIt3FZzqoEPbvGyEquh3CWmSi1P58uVAJNXLCB20u8agfOumGBtCseMdwSn224TiLQdJM5xS4VhR5IEp773l48a/JKr8uei4t6fz1E/GlMREH1q39u2/PPd/g+HrPISmH8Z+RKSmaWprpAVHx455cwiPN8f2vydz85oweQNG+To6/Xv064XJcfrTtSpc2iQVmhSEjpTS1LJFHdW/ZW1bzGOduaQ8nl++bFHRyqXgwjmo+M/BqTbHYR9I7CtwCv0rioyMfOWVV9zd3ZGbCzaWsgg5eopl7cEpiqKmTZv2xRdfREVFpaenp6Sk5ObmVldXm83m3NzcTz75pF+/fsOHD/fx8UH4KTY2dvLkyREREXq9nvHr11ONsDwHsREAwIZT3SqdarOBZvo0ClzgIZxal7zQo+Gh4RTtYoXtve7+U1XztKtTyBtw2R0ZhFNTx44JWrHwirji5/w8x2++sv96IpGaus/b+7txH893ddi/KyxiR1hseFhBRNRdMX69UrLaw+2lJ4f05/HeeP6p0sTYpmr5+bITK51mffGv0cVZCfVy7I6wnDE6pYE23y21QlabLU7coFwKGmugiUQNYUAVc0s7kea1il60LOhNRxCAqrp9JLd42dJyfz/DudPov2yb3dFmYofSqTbvajdRp6k5sCvRadbpmL0GGYJTUjVBQP+G0Gr2/Tvr4a6yrN5D9GaFU9M+fIc6mqlRyE9EHhjM4+3bGlhbcfw/4z/+6l/vbA3wjd0RlrhjS+aeXdW5uVcrKkpiDk356N2BPN6LTz42f/Z/5Ecyb5DSg9uDJ376zsZl806fyOsVOKVlpFOEtHCdz0EPezUp7D04ZQJGPTAbLpeXJDg5yNasAUKJTobroBnePgSniqKi0sPDvv30Qxeb73eFB+7bFhyzKzw7cv/FsrJbOLZ+8bxXn318MI834uk/5ezZ24CRd6SEjz1//FtvFKUmNCoIDYk1SUWgVtGsL/UgcPAhh7qyMP/4gjklq5aBKxfpc5RQLmXq5P49pzvV7vTU9Rf6CpxCLQsPD//rX//q4+ODzAo0yzZoRND1rW+/xPbgVENDw/Lly0ePHj1x4sRvv/12+vTpq1atunnzZl1dnbe398cff+zr6zuTDvn5+WazOSUl5b333vvggw+Cg4MvX76MQEwPQ0N0iB0AMGvWLEY61dNwij4DZARmYLbAKQENpzpjd4peeluvvkiQ8xvhFElqFPJ6XHabhlPfjB0TvHzhNVHFmWO5bt9PcZg8EU8RFO7f980nY/794dtTvhz79bh/zfj007yde6+UVZbEx495/W/ffjlu06olH7z8wuLZM84Jiy9iFU7TJz0xhPflv99J2bFJpSBUJIYQVQ/DKb2MbDhWWL7Ku2iNz20SA1bfI+2P9BZXuhxO1UZA6dTpmL16aamWEqkp6HpWC81Mt+7Qh1xyWt/OglPQ81q14ryozOmbL7/94B1FdqZeLi8+eABKp7YHncUrgpcvfP2Fp7/66N3vxn007V/ve06bWnXkyLXyig1urv/6+0sLnWctcLL56r0344PWXxKVx+/d8q+3X/vXiL+sdbGXpyYrRcJek06RsrKN/oe8HG8LT/QWnDIbDXBlN2pP5mTHOtidDA0FYpkOI/oCnLosrDxtlU4JExMLIw78OGHcB2++9uW4MdO+HPfN+I8OhQdfkoqOxxz6+t23Zk+asP6nuR//7aV5P3z/c0HhNaF44ffT//bk0Elj3k4MClBKxaBWoWnH5nB3m/FUFuYfcXMqW+0Nbt+AelO04oTFa1eL17ftH5zuVNt86YbUvgWnAgICXnjhhZCQkPr6emTnhi2g6obmt1tkY2Mj2uxraGgAADCbfWazubq62tHREbkke/vtt6Ojo69fv56QkDBp0qQlS5acPHkyLS1t/Pjxtra2/xNlyWSyTz/9tH///t9///2ZM2cQiOlhKNN34BQ84Afh1A0onZrv3piT1hpOIa1VtocZuO4yxEgsMD3RmliHhphs7AhTCKElCY1C3kBgd2TitLCQ6R+/H7Z0wc3KinN5uY5ffmY/8d9VGekXio7vXec75rUXB9MHfOZOnlKVlnk2L3+F7axP3ngt89C+c+XFPg62bzw+eKfv8qukaJvfsif6854/mQjaAAAgAElEQVQbzAtbOv+OTKQiZBorMSt9y80+0khaN/topyvMTh/UO2mbmOawVdFRHKpq6QhCK8GU+YVCX5+CVSsuVZYhONVZzSkAuhxOnYzYk8ifeTZ2n15aqiNFGkpGOxnsCTilg75fIEH/cdWKOmGp25QvfxjzTs3hTCMlL4048OJg3t5NATdrSNmR9Hkzf3iW9ocz6vGhu1esqCspObFv//dvveX53RT8WHZWxK7vP3yXP+6T8thDWF6W3ZQJLw3g2X7ygSwuRotJGUwPO7pHNvt0FGYipYCUiTcFxc1xvn4it7fglBE6tzEBrZpMSYq2tbmwcweQYjoMntxsVzqF3nFCpm8m9C5bxMzoRWDeGh1r35zZ9Wu+Ck+WELRdBviCq3Cs5OCBae++tcaFf0VYceZE4Wp3p+8+GlMeE3OxuDh5a9iX747uR+/d//Dvj48nxJwuPrHOzeWzEa8mh4VeqCwLW7zw47/+eceyZdeFosPbtr8yaMDjPN4mL3elVIyMI7DqzNasf0hVeua9bhFhJgRlYX6ag22Fnw9orIdeOC16qJ0VUHFwqt1lvqsv9BU4hWCTr6/vc889FxYWplQqmfNoXd3kTpWn0WiQ2wxkzVypVJ44ceLGjRsAAJVKdebMGYlEcuLEiZqaGrSpV1dXhxzH/u8AXX19vUKhIEny7t27Go2murpaKBTW1NQwm329CKcGDhyYl5dnNBp7WEKG1CZpv2IGcPtmpr9f6k8e6mOZZlzULD9vxhAQGbAIeftCKbgVarCn4/tMbexyLBIReFhdTkC/aZj0QuExIiXpTM6ROxXlepKkBMmnc47eqqzQUtS18lIyPaUkKqI0MuLs0RwdKW+USM/k5IgT42/LJBo5dS43R5oQdzon+45EqKSwwog9UkH8rwV5d4TlGkKqRYRL2efA0QLP+oRH/KAFSPq8If2JpmZ2i1C8xZRNO+GxqEyx1xiVSKLML6CC1uetWFxXUQLBKzCZaE/IHY57thnPDjN3KoNOg+DUuZh9BmmpnhRpSSlyjkub0CQfTHPoXl2i9lKsmAaVD4GmglKRGC5IJFOTNXLCSFG3SksrY6N/OV7QSGBNJFGbfVgYG1MaESGOjb1aUnq5qPiXvDwqJaU6K6OJIm5LRVhSgjjm0K3K8uvCcjw16cS+3VWpgjsVZRAi45CQ25z2zuWxl3+oWmcldjo73jZnLO3C9QhOEVIsPETg5XIjLxvoNA/0Rrenit6pbmVlMhp1cA9frapOSoyxnXl+53YglWlxdA6DGZ/NEevL2/q/EGv8N4MqtvUQ2IltGddg36gjiEaJ5EpxUW32YZkgSVWluCERyQ9nkumptJ9j/I5IpEhPK9izWxQXezon51p52U2REBckY4LkmyKhtrrq56NHJPFxivR0JU5cKirGk5OL9u87nZ2lxqQ6XMrCUpb6M81h3sFWEXafsuOtsjE/mTzsdjUV5gtsZ1au9YWW5ODbbNns6+R+HwenWAO2e6N9BU4hCYqvr++zzz7LwKnubfp9S2c0tZmIVgvPziC7LIyFaGYK0+v1jHUAlJMp3mQyIb+kKIW5hcnQ3RG2dKoPwCmj6dLFzPXrspbO0xUcboZTrdU5mw8/Wz26Mwo397ggvZ8eA1MOa3cJ2YWijWeqMalKBpXHEazR4rgaw3QUaVTIQU21jsA1mJQ24Q0NLqtlUqVY3CiCZ/dMcoWOIJRikVomMcpJk4LSk4QGkyrFIqVYqJZZ/s7CA9Vs9SnoohVZ624BJphplM7cUtEVta4lf5j5lx3REbhKJG4sKCCDAnKX/1RXUQyAAQADvS/Qscns7oJTDjN+iT3AwCm6pYgJLTjQNoBoDzDdP52BU7RtAni4Etq9JKCFAhIKkIwUqcMws6IK2suQK9RSGfpUiiUaDG8QSZRSuClprK4CJ0/BRVok1FOEBscaxMJGkRDUVKOjeSYFZZJTzMFMaIOjnYqx+hdarmeInc6Ot10OC06ZCSnAJXh4SJqX663cXoRTWginVE21iQmxtjPO79wGZFKNBU41H25lRinTRgQXGJXBVhF0tTWcakvZjg076PyEmiCacEyJY00U2UhgWoVcTRAqDFNjmFaGGQnKRMqNBKWR0SkEqcKwJhxTkyRygazCsHqxuEEiVWHwzAQ9Ici0OPzzZmAIh04n2X4nmQa2ijDtbRVplY35yWRj86epsEBgayNc5wdUKuTgAOlOcXCqu5fOBy2fg1PtckxPBwCATqdDoApJlZAgDWEUBlcxpSC0xMifWlnP6nkshSAgqr+NjU1vwikzoL3PG01X6o6GBmYvm9+QlQwY6VRLuECLpu51QY8g0UPDKdr2j87qQc+koIwUqYfISQZqa0B1lVEh1xCYSibREbhJQWlxmUoqohGSzCgnjHJ4zl9PEqC6CmaWW2ABWiPhEqug9BTWbD25B+GURiy1wCnvxX0BTv18cG8iDaf04hIDJdZRMhootAEo2wYQ7aCTDjK3hFNoA05PERb/NjSc0mCyJoiMxWooTSHQp5GSa3EC1J40V9fo5XItSZqqqhjQzGAgBKc0mFQlFaskYq1Myiyu7VWMWSbhkv/QcMpAYhycQixlwyktjimlUqVU2oRDiaOmSt5EEsYa2JX0AQhChxEGnNRjMGKk5Ea5wlxdA06dAj+fMlRX3a6oMFXXgJMnm2Qyg0IBiZLrLUY9sL4Bp9SMv6jO20rgpFPM6tzdkb4Cp5BLmVbSqV4BH+1xHJlyaMfZArypvdoy3nLay9DeE7sqHflfAwD0OpyCSjxmI2i8W7hzS8Yir/NRewBm3ezrCTjFElBZ/+lqcZmGdsqrh1sJmBaXQUkV7VdOJZMgtHSnvPRuRalKKtSRMlAtr68sR0586yvL0S30T/ovLInrIUrDdaSsIzhF0e5aLW5nWMttO2CxJX+Yv7PsiI4gNGJpw7F8PNA/13vxpT4gnfr54N4Eux/Px0UYxCVos482o9qj0ikGThnlJMK+RjmpxTGTXK4Ui5VisUmuuFlSYqTkoLYWusslII7X0HJKAyWHGjkSiVIsYoRPoLZGJRVrMKmOtnzBrOhMhntBFat/uwZOgb4jnTLrgVplkU7t2maWiFR4S5vvLOUnhg9s6Usr0RT7fCsa3oy/JuZ2JsIwH8mKjAq5QaFQQ6/GuEYhbyJxU021Xi6HAjMc12G4iZSb5QqzXGGSK0xVVUaFokkmU2IyfZVCL5cjDN0oETdKRGpMZpBTJrmc/q8Fd/es0inM0CvSqbV+QKUBRnqr70FsJXBwqqtW0g7L6StwClXU19f3hRde2LZtm0qlug9A6bBVXZuBrQ7PjnftU7q1NITk7O3tBwwYIBAIkEJYtz6xdeFQg5LebzKZgLJeEn8odYHbxUOdhFOUDp4Fe8jNPnQ7o0rFaH026ypBGGSVJBnoFdcqSIDYCJ3rYTbv6O2eZhGUBpPQB3xoPaf2Nx/ZHu+t+kOk9R8wqtJvgFNQuZ720kroJLKGvGPYhnV5K5f0CTgVsTfR7scLNJwyECIdSQtycFLf3JvtbpDdC0oeIIXe5rPkZ8dZ4q7mJbmFLSjLCKFZaoE+GkyGMutJKJts5b8Zqb4xGdqsJPOsh5RO0b5ocAOJQTiFiSqC/BOd7e/m5/SW7hR8zU1aoFNXxcemufFPhYcYRBUqHHpmtPqRbHZeyfYs1Hk4xXjjafnPwfL+toJTOgq669HSPhDVckJF4RbvPbRQUIdhEKthmJ7WdYP9aM0Pb4Gwz/IqoWcxvUY/BaIoK1kUvJgM7Lqx40yGVhF2HnacycbmT1NhwfF5c04sXwYuXgZ6MzCZoZtEM9zF73gLnzOU0Hop6sbffQhO6fX6qKioUaNGLVq0qK6ujtkv68bWd65oNoRixzt3d+/nQljKZDL98MMPyFBCb8jJaDgF9/xNoPEulZ6YPM/53P5tnZNOdRWcYnYP2WKqlvClWR0eSaqgzIkmluvTFnlY6WwUxcRbSpXugVOWbS9mGv1NulOEFtphp1snkdXn5srWr+0jcOq0FU4ZxSV6XKjFJToMnvzqdjjFgk1t4ptWkIjFf8sxCMsiZ92YYzKg0pifrSKdeZYVo0MNqla3Mz/bLocGClrKCqfkeEWQf5zj7F7UnaKlJDqgVUkO7E1xdbi4b4dRXMlgKQZRMYihuYG07tG9cimUgsAE0p1iSmNkVPfCMiY/A4+QJ2l1KziFYwaChlPo5Ae9Kcy4R7SWjxAVOioLQZsF2VjPHNA17CFVdMSNpsKCExY4dYUNp6yCqg6WGE461QGDuu5y34JTmZmZo0ePtrOzO3v2bG8s+W3zlQ2h2PG2c/e9VKS/ZTQaPT09hwwZEhsb22t1hHDKCJpunynMTvR0OLk9tM/BKbL5SB2zW9cqAo8iQpAEFcbZl5qPKDJYypKzedXsbjill2L1ubnS9WuPrVraF3SnHk04xUguLdIpBgQw23nsFHa8bRjUQvr1UJt9Wjl0MmMkMYBLzRUlZyL2HPlpbnXUgd6STtH6kEagbiwMC012sqtPjAGYRKcgEZDqXTjVwrE0vblvQV2YRZEcuay+B07RQMp6irBNLGWAVlqgcrp1Hmg2VsIARxRhjw12vFU25ieTx/Jc+tCoFU4tBxevwLMlJiigMpmZfb8OpnMOTnXAoK673FfgFNJMiouLe+WVVxwdHZFV9K5r5kOVxIZQ7PhDFdqDNzOHE7du3frUU0+tXr3abDYjhvdgLWgjvmYztOrbeONSeX68m51icyDAhHpCShMyfMCcoGbOSxN6nDBAwqGkHR6ukRohSYy4FJGBgO5IkZ0bHclgF7Rrw0ikSD3OItpWDW2xBj2IeW6z/QUdDk9H30us89Iy9lV2OjKLRYuaUH0sW0gGkjIQ9xBJIds5qD70lIq2INmfaI2H5UC7WfQhNbQ9oYNtgU0zYrhJIm7MOSJb75fnswwaSjDpaa8UndkTgMp/JpPptdde65K3D/4d0mlPHdyXYDfjYuxBs7DELKs0ycQmmdQklZkxzIRhJlxmwqVmQobIRMDzlTTihBtqbP+GrDhuIC1khBrZkAAkWWvCZeBeorNZHodLTTQZ4Rl45Dyk9aeWkGgJidW1CLxqoGQGEg5COA7p282YFDB07xPpFDMmZcgkkzDEJLaKoLYwnGEiJppXAJcCTALEFWcP7Mma7ymP2NdbcMoEl3czaGrM3uCf6GinP5wKCLFJgdCG5Z0yQK0jmnDMyCITTo8BNBJafVqz0a98R+XAgQRLhpmRVNK6vds8bAhmnw4zYDJUDROBm2ky0iMK2XtjTJDQMwl8tJGupxmTmTEZsBDscdhlOCQTnIgsZVqqAWcqS5NRE9DPVtbyDKhwHDNjkACGARkk9BO9I0YcUxXmF86fU7hiKai7CAwG+I/UZDaZoKC/M4GDU53hUpfk6StwCjUmJibm73//u4eHx9WrV9mezBlAwLTZZDIhoQt7TxDpXDOf7IN4zI2djyDkhEpD5/iQlXbmiUjHvEtsOLHV1RnEhqqKHtr5aqOcaGlEEj5UQ61WGx4e/swzzyxbtoxpwoMW+9vzIyO+ZhP02ae6faPy+JElc4mN60zCUj0mhtiIkJhIGZDjQEEABWmmMLjIYRK9TAxJItKJK7WiMkBClRGACQEhARRmEpYDsQhUKwwUppVjGgraIldhMpVMppJhKhmmkRFajNQRlB6nDDhlxCgTLodEQDKTCjOpAITCjFMmjDDKMBOGw1kel6F12oTLjJhULxXrpWKdRGTCZYDEAUXAT5pQNiMu02NSnUyqlUrUErFaIgZVVUaK0uK4BsO0OKEn5XpSbqQUJrLKiFEGGWnCYGUQGTBKj5E6K2kxQgtPaEPSsEhLUFqC0pBUE47flUruSsUqAtfL5SZSDnAKSAggFAFZOSjJk/j75vqsuFBZAhX/DeZO2vvrWjgF39CrV8Tbw1PdnW8JEoCoHEIEKFbBrGuSBMhEQFwBLwnLACYGmAQ6vyPlJrkCVFeb5Qo9Di1ymSjSBI9eYjpcaiBkZoowU7iJlJpxMZCKgLgSliAqB2KahKWgsqQpJ0tfmAtKT8D0yhJIwlIYl1bCwYPTQwgOJDHAJYCSAkoMTuGgRqYlK8zVUi1ZcaeiwFQl0VGViPRyoV4uNMiFerLSQFbC/KQYFiWpBKIKIBWDijJzfm5DegpsCyEGpceBpAJeRSQVAoYkQsCQVAzvlQhhK4TlFhJXQLZIKoFM2EzSSmuiCLaabvjlQxFHF8zFdu8EOu0DifO7yu6UzqAFZgNQN+UFBwncnNVpiQArBngpwMXWXmYgyD0RHAMyGSSpFJJEYiGptON7GWQDhxMOMMwoFuuEQoNYYpRhRhw3EwQgSEg4QRMOIGqhIRGBwZcXl5lFQvjKiKUQxBC4XlSpkwq1hESFixqkFU2YUE9KDZjEKBbSOStBZSUQCoFYfDM1FZSVwUrKpEAkQolAIgVSGU10c1ANZVIzjZ4h5qZwSCQGSU7PIZgM3lVWAcoqgVB6OzEFFFeAMiEQSoBEBmpqgExmlkr0xccla1cdXux1HS8FRiWcQk0maB2dg1O/fUHqljv7CpxCC3xmZubIkSM//PBDFxeXqVOnjhs37vPPP584ceILL7wwdOjQ/qwwevToL7744jM62NjY+Pj4rF69OqhliIiIKCwsPHbsWHFxcak1FBcXFxUVnWgrpKSkhIaG+vr6Ojg4TJgw4auvvho4cOCQIUP6scLEiRM//fTTCRMmzJgxw98aAgIC1q9f7+/vv3r1am9v7+nTp3/77beTJk2aMGHCF6wwkRUmTJjw9ddfOzk5+fn5+fr6+vn5rVu3Lisry1pN+F1SUpKfn79t27bQ0FBvb+/vvvvuq6++GjNmDKs67UYHDhzI4/EGDBjw/PPPf/jhh6gW//jHP5588slFixZ1y1C6f6EWnwhGqLiqutMgKol2mJUzz/PU/t1X0pJvHcm8lJpYn5vdVJhnKCsCojIgKjOUFymP593Nyz6fFHc2Lqr24F753u0VYUF561YdW7eqcnOQdMsm6ZbN8t07TkVFXD+SdRXS4WtHsukJGgMywkJSAmAkkNEkJYEURm7nHLtF0+2cY2fjkmojY8g9+yXbd1D79lP79tG0tybyILl3r3jbtorNm/PWrj3i61u2adOZuFhs506GZDt2SHfskO6EdDUzC1JW1uWMzEvpGVczD988mns77xiQ4gwZSitvZh29LEi/fTjnVnYz3Th89Dqi7KPXWHQ1+yiia9lHgQQDUswsRX9hZUAsNlRW6kpLr2dmXYhPqt17gNgSXuCzOHfZ3ERH+9w1vpekouY+6YR8qsvhlPHmjcpt4UkufFlw4Mld20UbAsrWrTnus7Jg5fKCVd553ssOL1mQvsArb+WSXO/FVTvDye3hl5JTbmXnaItL4SJHUECKwfWJJHTlpU1Fx+/k51w/mnUpI/XXlIRTcZG1kXtlYcGSjevL1vme8PXO+mlO+nyPRHfHGKfZ+2f9J9JuZgx/dqyjXayTXYyVClctK/RZiqg8wFcc5E+GBct3hMl2h0n3b6mJ238hM77ucNL5jLjL2cm/pMbUZSUydPVoysWM+DNJkSdj9gnDg8qD/UsC4HMz53slODvEO9mleDgfsreJspsR4zgrycMx0m4mQ1H2NgzRiTboEkqMtLeJtLdJ8nBO8nBOpCl/1VKGJCEbqK2bZKGB+auW5q1YjOjYisXHfVZkL5oX52xPQOlU78ApOMB0amDU52wMSvZwr9oUVLNnE7krmNweRm3byiZy21ZI27cSVirwW1PgtyZ/zWqGjvn6HPP1YTKQ2+lbWpbDLpOOb7uSmHQ9JeVmRsadrKyG7CNNObm6wuPmklIgloDySuPxIvWx/Espgl8S4k5GHVTs33tig3/2Ku9C/7XH1/pRYeEnt+88t//AxUPRyiPZ2vxjptJiCG0llQCX6suKr2Wk/hIXo9i1syTA/+jyZYI5XrHOTvGuLrEuzpF8h3h3t8xFP+V5e0uDgsnQsNptO07v3ns5JvZ6YtLdjAzlkew7WZm3szJvH868dTgTCCsMZcXq4/kNeTlnYqKq9u4Wbwop8V93YvXqOCfnQ3b2CY7O8fb8dHevY0uXlazxq9q2XbF9+9nIg78ePFDqveS434pLlceAsQEYtdBcQieN83Kq6M2TYLfH+gqcAgDo9fqUlJSXX365X79+AwcOHDRo0IABA3g83tChQxE4GMwKPB7viSeeGDBgwNChQ3k83qBBg1hYyxIdOHDg0KFDkTcYXicCQmzooYMHD0aP7t+/P+uxg9HV/v37Dx06dEDL0L9/f/SQIUOGDBo0aODAgQMGDGDjHaYKKBH97N+//6BBg1AcFY7i/fr1GzBgwODBg1EGlKd///4okV2le+OIGzwer1+/foMGDRo2bBhqzqBBg/6XsnHjxt7Z7IPHUIzwr1X9LezQwVhHfpazU4rd7CxnxyxXx3QnO4H9LIHDrFTH2anOdmkuDqkuDgIXu2QnRPYJfNs4R9tDzrMjnGZFOM2KdLaNcraLduPHeTjHOjsk2s9OtrWlaXaKrR1N9imz7FJs7FJm2iJKnWGbNsM2faZdyiy7eHv7GL59rKNDnBM/zskx3skxxsEh2t4+2t4+xoEf4+AQy3eMd3SO5TtF2/MP2dlH2/OTXN1jHBxj+U7xjs4MxfKd4uiUBEfnBEenRL5TkqNzgoNj/Gz7+Nn2AkenNGeXNEfnVL5jGt8x3dEpw8klje8osHNI5Tum8h1TEDk6JvP5iJL4fDahRIEDX+DAT7FShoPjkdn8IzZ26TNsEv/7Y5azc6oTP4FvF21nk+DKj3GyT3L3yNsQ9ItYCOcPBKR6EE417yM33D0eEnjIfmaim1Oim1Oyu3Oim1OCq1OsMz/GmX/I2T6Sb3vQwSbaxf6Qs13SHNdUT7ck29nptg7ZfOejTq5Z9vzSBT+VLliY7uAgcOYnODvEOc6Od7JLdHVIdOPHudrFu9gluNgnuNhDtORsH+PKj3F1POTCj3R2yF3tnbH0p1gvt32OdjFe7tFe7ofmuEd7usa7O8e7Oia48uNdHGId7eIc7RKdHSAYcuUnebokeTjHOdvH8GcnODvE2NsK3JxjHWYjine0S3Cyj3e0i7W3jXOYLXDmp7g4JTo7xDrbx89xjXB3OODlFL9kTtFG/5Ql86M8nGPmukV5uNDkHOXhfMjT5ZCXyyEv50NezlGeTjQ5RnnyD3k5HfJyivZyivZ0ivbgQ3Lnx7jz4zyc4jyc4j2c4tz4MS72cS7wQZF820g3+yhPPqLdDjMiPRwOuNpJDu0H+t6BUxqDFmqjq5sSVq8+5OSc5u4W78aPd3OItbeNt5uNKM5udpzd7Fj72TH2s6MdZh9ymB3taHfI0e6Qk/0hZ/tYV0eG4tycYlz40U720Y520Xy7GL5drINdnINdvD2khLYo3m52gr19Ep+f5uqS5e6aOGOGYMaM1Fk2abaz0mfPzpg9O9VmVrLtrHhHu2gnuyi+baTDLIGX287/fBfrzBd4uUc72ce7OApcnDNcXBL/OyPlPzaZ/7XN+nF2oYtnnqtHJt8pzmZWgqNjgqtznLtLnKdbtKfrfhd+6rJFkR6uu/l2B1ydYuZ6JM+bm+DgmGLvlMp3TnN0Fjg4Chzgq53q5CSwvtqJDvYJ9naxs22jbWxibGclONjH8+0j7Wbtmz3jkIfTPhe7A15OOetX73WyjXSxj4Uvi0uqi3OKAz/b2TXL0TnJxjZr0cIrZYVA3wT0OhpOQfWpzgRus68zXOqSPH0ITgEAGhoaIiIigoKCtmzZUlhYWFFRUVZWduLEifr6erT3Z7KG8+fPl9ChoqIiNTXV398/LCwsqGWYN2/exIkT//vf/37//fdTrWEKHSa3FWxsbPz8/AIDA1NTUwsLC8vKyjQa6LoB2fNEnydOnJBIJEVFRTExMRtZYd26dRs3bty2bdvevXuzs7Pz8/MrKipkMpmQFSpZATUtOTl5/fr1a9euDQoK2rx589SpU79jhSlTpkybNm3t2rX+/v6hoaElJSVlZWU1NTW6TgRG8n/16lWxWFxQUFBcXFxSUrJnz56rV6/eu3naJYOpE4WYoDaPTgPqLl7MyLgQG3sp+hC2MbB0jQ8WElS+bs3xVSsOL5qfMsc9db7X4aU/FfqtKgv0J7eH1+zb/WvcobrUpNuFuWZSYiYlN4/nnssQ/JqVVpsUK961TRwSgm0MRpTu6YUo1d091dUtxcU1xcU11bmZkl1dyzZuKA62ELFnZ23UwQspyTeys35NSrJS8q9JgisZWY0Fx/VlFV7vvi/etuOCIO18cuqVjCyGLqdnXk7PvJIGqTxkU3lIaEVwaCWkkLLAwGJ//+Nr1iR7eSZ7eQo8PVM8PbMWzJcEBlZv2SLesEG0YYMQUeCGig3rGSrfsJ5NKL1y/fr0eXMRZXh6Zjm5Zju5HPXwPDpvbsma1bKwkDOxEVcOp4Iq0kxgJoy4K5VBHQsmdGLm7SrpVLPpWo3aVKO4kp15PiP1TEpSfdFxTWU53GeprdGIRWYKB6dPggvnQK0cnKo6k55cl5F6ctdOPDCocMnSdDf3TA+P2Nm2sbNt07w8kud7pi1bmLtm5fHAtWWbgyQ7wqsi9/4cf+jy4bSbx46qyov1MhE4ewrUnQd3bgJVI2hqoKkRKBugp7PGu6DhNqi/bbZs1EJ1K5NEpCkruZ2XeyUr80KK4ObRo9S+fdFeXtOffz7Pz69g3brK0E3CTZsZqgzdhG/fcSoy6nxC4u3sbGVBvl5YYSJk4FodUN0FpiagrYernboRaJRA1wQ0TbAmqgZI6kaaGoC6AajqaboL79LUAzVNqrug6S5Q3oHUeMdEYSYKM1MYoLDr+bm/ZqRez8sBCsJcQxlrEZFauUxfjV8rKwS3rwKDnnnlmT6/T6SrNvsalPXwP5JOfZvAz6Sknj+nVAYAACAASURBVE1IOJOScC0n61JK8lWB4KpAcEUguJwC6VKKoC5VcCFNcD5N8Gu64Jd0gU5aqZcJ9TKhARMbcYmZlJppR4S/pMMM59Ng5rpUeCMq4QpdICqW/Unu2IFt2SLevEkUHIQHbxSvW1u0YlneTwtSXV2y584tXLa02He1ZFsYcWD36YToi+mCuwV56tKi0Jn/zd+44Uru4V/TBbXRUVW79wgDAstWrimcv+So69x0J49YW4d0r3mVQcE1ERHnBEk3jx9TSStB3S/g7g2gU4L6m7C/rl8GZ08aSMxYUakrLKrPPno9Nf1UxEH5rt3izZtLAwNP+AdYKCAgce7c9MWLc1evPhEQIN+z51xC3J3CPK20EpySA109UN+CZFaDu9fAz9VmiVBVUHAlMenMnv3SjaElARtyAgOVp2uMd28Cg56GUyYTMj1zn26mL3FwqiMOddn1vgWnuqxZXEH35UCP6k5ZXZ8jxwhQkcdsAEYd0GuAVg00KqBWAbXaQho1QKRVw6s6RBqg00LSa+E/M70eGHQ06eHMYtDBRJ2OzqOBWM1CaqBTAW07pFcBC6lhTSyEyqcL1OuBRge5qGw6FL519F/+yv/2+9tnzgGt3kJ6A2DIYAIGI9QStRBTQx30TWvQWAg2WQM0VtLSP9Gn5p566lSw/u2RtglolRbSKeH8rlcCQxMwqIBBDRll0EE+Q7UpOlh7wfKzra+uglPN2oQGA+wXrRZodZBpOkMzWVinpzsUMVwDu1urgihEo4SkbtT8ekbz6xmgVsJGWUhDs1QHh5BRDxluNMAI/DTShFKs6WiowJFjHT+6ljXRGYDWAPmkNaguXp43y+6dF1/Zu2EjUOuBSgv0pjYIdrcJLWlQH9hopLWD9VDyatBax5IG1hA+nR6lsHrWGloGiRGOGSNdToef6Inooc2Z6fbCxdXYKQNErE7vKjhFCz+NAOjhJr5eDd8pUxMwqSATYNfrAeQ2TXo9/ebq6c7S04ck2v+EHUrzDd3FFMK8ffdG0AwA3yb6xYcvDj17NM8A9GxDTzg58XET333nxy8m1gorIVeMBnqUaoHGQrdrT2ov1o18+unbp0/DqQkyWQtbZ1ADkwaSUQ3J8rqhB6nh291MWkuZcPzThCax5qmMHpBwfmCRnp7otNaaqDVArYFTohZOU2agNUJW08PGBJVsWV3abpSDU+2ypqsvcHCqqznKldcOBxg/U1ZXU2aoSwkPqNC60ib4Lxeuaoz3BIv2OjoS2PKTfkRb1+HRQSsZLae4Ybn3I2t+dCOyNwo/1Ro1AOBiXd2XX33F69+Px+OdKCoy0kcD4FTGqtG9LUZWtqyflipZ2obO5CBVUotCqQnqjLOJVWH6QDRcQlGE/jSYof0ZPVzGWhKdbkDtpdvVqQkX1b+r4BRzloKOwP5gVx2ZHzRY6w19Clq6x0yvEgbaPKHebNabTHqjUWc06sxmNDJat4XdBa3iTI+gdGj40Az/zRutXgxbVcloBEqlpqJC3L//IB6v39eTpl6/dosppFWE3rSmvSHSNUf1t4xc2Gb4NKgqfP+AatZ+nlYtat349m/szJWug1PovWX6Ew5IM32an34/2qiLpUfafyfR/PCb2svMMeh9R30C42YzJJPJYDQZbt+55eziPHTYkMGDBx2Kirxz5zZUNTHojPAQLDwKq6fPzC1fvfLxZ5+as3AeUxMTbJoOjSA0fuHrZtabzQbrpwE+xYwALzyAxxBTcisIaaAfCidBy2TIgtdw2oAK56jyBmDUQExHzz3QhT280AZ/70ni4NQ9LOmuBA5OdRdnuXIRB9irAkxh/2ZmVgZFsSNMTiaRSWkVacHrVtesP5thkhXktK5K8+RrnTHNKlX91i2bXn/9tSGDB/Tj8X78cfqvv54GZj0ky3rKwgPNYJBZEdDTW9SvnR/WetK1slbRUmla6xTGrexDa5gVI7ZEZjRKhUl0Ic33dDj1dg+cog3k0MxCCAbCJXot0gG4NLXko9lIn1lCgAwCMRTaQSaIHS150YzJmasm2gs081wGgaKeQ586g+nS5Wv2Dk6PP/HUY48NHjnyjZ07drfTUzCZPSTZLEZdYQHm1t5iuq2TEfZAtPZx63a1Kuo+VW3zUhfBKYbHqJqWSrUcqAyrLJGW/14s/zTaTGSxuXUhrEvooczMYmkuwx/6AByUh9MicSjKTkpL+ts//jZwyGPD/jR42rTJBC4FAKibGoAZygANtDjxlyvn/zryFd5AHm8g7+fzZwyQ/YBuF9MKCPFpoEOjdPhfyMD8I7KgN6uwVE+LUpFAlZapNktT4d8k9D+qGXohDIZAOXwjjAhSAbOOnnrg4IOmEuBt1jekzU62JHJw6n7c6dJrHJzqUnZyhd3DAeseH1x02AvPA8SZuZSZI++N3PPc5oR7M7eZAivELM1wxTca1DdvXP5h+rQ/DYPHJAc+xntsAC83J4ue1hASYJZmtJy0qmhzFTqMtVmjVoktC7H+EWejLHpytV6gGW5luVUi2LKMlr+6DU5BmRAkq5gKIRjEOzamobPB/9ywTTQvaeEUPMRkaUzLCqMBxTC9VQRxDyUikdd9nqvR6ssqKgcNHmI9FDJw/L8/u3P77j0PtCSgwuGPlp3UhXCqVXOYny0faHl+e/VsL72L4BQqHgH3e1d2dg8w1e/ySHNX3NMbkDnolUZCILT56uThzKMP//QfwHv88aFRB/erlPXKhjsACpkse/bzlizoN3QAbzCv/7DH5i1eAE/QmPRsZiL/Lgj3Q8ESpBYCZiSmMtIwDu1GW/enm/d9TbTMDN7YGksZkYCTKRGhToTXODjF7og+FefgVJ/qjt9hZZjZ/7e3rQuK6OTDmSeheRjs2rXjjTf+MWjQYzwe3O57/PFhP0z//vr1q6g4eu+ovZKZotrL8PDp6BFtlNPqQier0lVw6t4KMRXoTIS5nVENaW/frDOldTLPjRs3bWfPHvAY7Gger9+wYX8aMWLE1q3btFpaf46pU1sRBP4sS6pVrthK6sK+j32Jnc7E719nJhuK0OjTuqx3+ttoNGZlZc2YMaNVaQ/401JT1Oh77r1/O7r+6v1LRNVLSUt9659v9YOyZt6Ax+BZ7C8mTjhZW2M06BE01ht0V65eGfn6SASseTzekGFDz/5yzmgydrSB28bzrcOheYywU1qD8RbYHNaXKRFV3oJY6VQ0Q92LYe/pBcBJp+7lSTelcHCqmxjLFWvhAJoRHkV2XLhwYdq0aS+//PLEiROHDRs2ZsyYt956a8iQIbm5uTqdrhfcSD8EEzvTC90Hp35bxZvhVKf2NH7bQyx3CYXCxx9/fOTIkR9//PFTTz01duzYP//5z1988cW5c+dQjvschu0MhmFXjp2fnf7b4uzSOh/vIjj126rca3fdunXL09PzpZdeGjt27Msvv/z222+/9957w4cPj46OZgabSqXy8fF5+umnkbkZZLDG1dW12fxHr1W/xYM780ajGzg41YJx3fmDg1PdyV2u7EeZA0ePHp0xY0ZYWFhdXd3/bMYWFRUVFhbOmjVr48aNd+7ceZRb1nbd+xqcaruW3ZMaHh4+ffr0oqIiHMfHjx9/8+bNjRs32tnZHT16FB78MhpbraadBy59M+cfDU5pNBq9Xl9cXOzh4eHn51ddXe3q6ioQCEQikbu7+7Jly86ePavVagEANTU1r9FhypQpPB5v+vTpI0eOfPLJJzEMYyBX94zB7iqVg1Pdxdl7yuXg1D0s4RI4DgDowE6vt9jyMZvNEydOrKioQIxBZibuXWIfdbb9keEUQktGo7GqqmrMmDF6vf4+4ii4C/OIhz8anIKnB2gXd2q1GsmV3d3dExISUL8zltK0Wm1kZOQPP/wQExOj0+meffZZrVZ7+PDhadOm7dmzh4NTj/oU19315+BUd3OYK/+R5ECr5ZINpx7J9nSi0n9kOGUymRB+oijqk08+YYPpTnDu0cvSparoj0bzGTCEcJWHh0dSUlJ7VUd5nnrqKWTJmZkN2svfl9M56VSP9Q4Hp3qM1dyDHjEOMHNoK+nUI9aMTleXg1MAAA5OdXq8PKoZOw+nnnzySQ5OPard3Bv15uBUb3Cde+ajwAEOTj0KvdQ1deSkU13Dx0ehFA5OPQq99EjWkYNTj2S3cZXuAQ6w4dSECRPKysqQ0kwPPLpXHsFJpzjpVK8MvB5+KAenepjhf5zHcXDqj9PXXEt/OwfYcIoNs357iX3vTg5OcXCq743Krq8RB6e6nqdciTQHODjFDQSOAx1z4PPPPy8tLUXngzg41TG/HrUc3Gbfo9Zjv72+HJz67bzj7rwvBzg4dV/2cBc5DtAc4ODU73sgmM1m7mTf77uLmdZxcIphBRfpWg5wcKpr+cmV9vvkAAenfp/9am0VB6esnPj9f3cGTiEucCf7fv+joUtbyMGpLmUnV9jvlAOTJk0SCoVms1mtVre52YcSTdbAzvOoxFHXjRgx4sKFC7/Tbmy3WUhvDABAEMS4cePQint/S57tlvUoXDAajWlpaba2to9CZbu4jg8Ep5AtX+YV7uKq9EhxzNzVI0/7Qz+Eg1N/6O7nGt9JDkyYMMHd3X3lypW+vr4+rLDaGlDaKmtgZXlkoqtXr/bz83v66acvX77cSbb8brIxNh5Pnz794osvetOhVc9Zuxp+t7r0yP308/ObOXOmjY3N76YHO9+QzsApNB6GDRu2bNmylayw6hEMI0aMKC0tfbR8jHa+N/tUTg5O9anu4CrTRzkQHx+/c+fOkJCQ0NDQLayw1RpQWrg1sLI8MtGQkJDw8PDg4GCVStVHu6Gbq2U2m2/cuBEWFraZDrt27drGCjtYgZX8SEZDQkJ27NiRlZWFsEU387VvFd8ZOGUymZRK5bZt2zZv3sx+ga2v+6P0HRoaeu3aNbPZjJwS9q3O+H3VhoNTv6/+5FrTbRxgBBj3ecIjvSnAuKK7TwN/35eMRqNarQYAaLVatOgaWcG6kQu/WcmPZBQNZq1W28q18++7f1HrOoRTSJEOsagzb30fZ5rRaERA6g8InXu4azg41cMM5x7HcYDjAMcBjgO9xoEO4VSv1Yx78CPOAQ5OPeIdyFWf4wDHAY4DHAc6zQEOTnWaVVzGB+MAB6cejF9cbo4DHAc4DnAceHQ5wMGpR7fv+njNOTjVxzuIqx7HAY4DHAc4DnQZBzg41WWs5ApqyQEOTrXkB/eL4wDHAY4DHAd+vxzg4NTvt297uWUcnOrlDuAez3GA4wDHAY4DPcYBDk71GKv/aA/i4NQfrce59nIc4DjAceCPywEOTv1x+76bW87BqW5mMFc8xwGOAxwHOA70GQ5wcKrPdMXvrSIcnPq99SjXHo4DHAc4DnAcaI8DHJxqjzNc+kNygINTD8lA7naOAxwHOA5wHHhkOMDBqUemqx61ivYcnPodWOt/1DqXqy/HAY4DHAc4DrTgAAenWrCD+9F1HOgJOIWAFBrEXVfzP0RJyAfcH6KpXCM5DnAc4DjQ/Rzg4FT38/gP+oSeg1N6vT49Pf3HH388ePCgXq9XqVRRUVHLli2rqanR6/VGo5HdA0qlEvnmREMfx/HXXntNKBQyPkr1er3JZEJog/HiqdPpkN/sewGcTqdDHl4BACiu1WojIiKWLVt27tw5s9lcW1ubnZ1tNBrNZrPJZEpLS3vuueeeffbZqVOn/vLLLwAAk8kkFAqLi4tRPZkKo9IAABiGFRQU1NfXs2vOPBQlms1mJj+7vWazWaPRsFOYCptMJpFI9OOPP/r6+hqNRp1OV1hYOHfu3KKiIpQHOWRlHqRUKlETzGbz6dOnx48fn5ycrNFoGCYj966tqqHVak+fPv3dd98NHz587NixmZmZGo2mqqpq7dq1cXFxiJ/V1dWurq7PPffcCy+8MHHixOzsbKVSeffu3fDw8BkzZgiFQgDA3bt3fXx81q9ff+3aNdScqqqqqVOnfvbZZ+fPn0eVbGhoWLdunYeHx927d9lN5uIcBzgOcBzobg5wcKq7OfyHLb8n4BQavjqdLj09/fXXX58xY0ZVVVV9ff22bdsWLFhQW1uLuI98uTOoQq1W63Q6hFooiho2bFhxcTEqqhX4QBgIAIAgi06nQ2CrlRttdC8AwGg0IiiGln+9Xn/16tWZM2fu2LFDq9XqdLozZ86MHz++pKSkrq5uypQpS5cuvXXrllAonDRp0uHDh5kaInBgNpv1en1NTc2SJUt27NiBIIJarUbQBwCgUql0Oh3zRI1Gg6AMu71M3VCZKD/CcEajUSQSvffee2PHjq2oqFCr1ZmZma6uriUlJUyT2xu+Z8+eHTVqVHx8vJYO7Ke0uqWhoWHjxo1BQUE///yzj4/PJ598Ul1dLZFIPD099+/fDwDAcXzhwoX79++/deuWUqmMiori8/lJSUl3794NCAh47rnnVq5ceeHChfr6+gULFvj4+DQ0NKBmCgSCQXRISkpCOI+DU62Yz/3kOMBxoMc4gKZBDw+PpKSkHnso96A/Agd6Dk5ptdr09PR//vOfL7/8cnBw8OXLl8PDw+fMmVNVVWUymW7dujVnzpznn3/+iSee2Lt3782bN81mc3Z29vPPPz9gwABvb++BAwciAHHhwoVp06YNHDjw+eefF4vFjErWxYsXQ0JCXF1dL168WFFR4eDgsHLlyvPnz+fm5i5YsCAzMzM/P3/s2LEDBgwYO3Zsbm6uSqXatWvXvHnzhELh4sWLn3jiif79+y9btkytVovF4sGDBwcEBGjoAAA4d+7c559/zuPxhg8fHh0dffPmTXd39/79+z/zzDO+vr44jjs6Og4ZMmT48OE+Pj4HDx708PD4f/bOBKqqav/j1FtNrmxY/a1W47KnLbXX6mWtV+bSzGUOSyuXEz4FTBASkEQwxhhDkFAwHAgFUoQQhWRKEJQp5jvKKHBBRhllvsM595zz+3vOhtPVtKwnpvLba6/DPvvu/dt7f/a1++2399knLS1No9GQMdbW1gLAqVOnXn/99SeeeGLt2rUqlYp8vYiviAgjhmF0Oh1RkKKDjcipOXPmPPfcc9u2bWtqajp58qSpqWlWVhbDMH19fb6+vlOmTHnsscc8PT3b2toAoKCg4M0333zsscc2bdr08ssvHzlyhKKo3t7eTZs2Pfvss0ZGRufPn79OWrW2tpqZma1bt454lRiGGRgYKC4utrS0DAsLU6lULi4u69evF7Wv+G9DrVZ7eXn93//93yuvvJKamtrR0WFlZeXs7Dw0NAQAAwMDO3bsWLNmzcqVK+3t7YmyRDkl0sMEEkACd5gAyqk7DHziNHen5dTixYvfeeedzZs3Z2VlHThwwNraWiqVDgwMODk5+fj4dHZ2ZmZmfvLJJ2lpaY2NjatWrbK3t+/o6AgODn788cdzc3N1Op25ubm9vX1vb29ERMQnn3xSV1dHZkun08XHx69atSo5OTk9Pf2dd95Zvny5RCKJjo7evn17SkpKeHh4ZmZmR0eHnZ2dpaWlXC4PDg62tLSsrKxUqVTLli07dOjQ0NAQwzASieTRRx994IEHrKysuru7iTcrLy/vww8/TE9PHxgYSE5OPnjwYE9PT2Rk5NKlS0+dOlVRUWFhYREaGjo4OHjy5Mlt27alp6cPDw8HBQU5Ojoqlcrq6uqFCxfu37+/vLx8zZo1xI9F/Dek2IMPPjhp0qSHH37YyMjoqaeeKi0tNfROLV++fOHChYsXLz5x4kRKSoqZmVlaWlp/f7+fn5+trW1lZaVCobC0tAwPD6+trbW2tra1ta2vr4+MjHzxxRePHDnS29vr6upqamra3t5+6tSpDz74oKqqyvBb3t7evmbNmoceemjmzJmVlZVEzJWUlFhaWh4/fry0tHTbtm1hYWEURZHFRNI3ALjqbHN1dV2+fPm7775ra2tbU1NjY2Pj6elJBHFTU9PcuXNjY2NPnz79r3/9q6GhAQAGBwc9PT1xsc+QP6aRABK4MwRQTt0ZzhOwlTstp4yNjd3d3Tds2ODl5eXh4WFhYaFUKmUy2caNG48ePdorBCcnJ3d397CwsEWLFhEJpVAoJk+enJ+fr1KpZs+effz4cbVanZ+fP2/ePIVCQf55aDSa8vJyBweH/fv3R0VFvfrqq1c9YZGRkR4eHr6+vv39/TqdLi0t7b333jMyMtqwYUNVVVVYWNjWrVurq6sbGxtXrFgRHh7e1dVFvgRBQUGPPfaYkZHR5MmTCwoKACA/P3/+/PnJycmkudraWltb20ceeWTmzJlpaWmlpaVbt24NCQnRarWpqam2trYpKSlqtdrb23vbtm319fVkG9M//vGP0NDQ7u5ucasTWXzUaDQ0TZO9X4ODg2StUJRTRUVFZmZmXl5e1tbWmzZtCgkJ2bJlS1JSUk1NjZWVVXBwcEdHh06nCwwMtLa2PnTo0ObNmxMTE/v6+mpqat58882IiIj6+vqlS5fu37+/u7u7trb23//+d05OjrikyHGcRqPJycmZMWMGEXN79+5Vq9UFBQW2traRkZFyudza2jokJISm6YaGBmNj46effvqhhx7y8PBoampyc3PbuXNnSEjI0qVLjx49unnzZg8Pj97eXoZhTp48+c4771RVVdXW1r7zzjtxcXE6na63t9fd3d3CwqKvr28C/pPDISMBJPA3EkA59TfCv7+bvtNyav369UlJSUeOHFm2bNlVH8natWtLSkpOnz69cePGM2fOkH1F9vb2Li4u4eHhCxcuzM3NHRoakslkDz30UHp6en5+/j/+8Y/HH3/8ueeee+GFF1577bWMjAxxD1NdXZ2Dg4OJiYmrq6ulpaWrq6utra2ZmVloaGhJSclnn322du3aoqIif39/Ozs7uVy+Z88ea2vrmpqapqamTz75JDw8nKZpjuPUarVGoyktLX388ccnT568du3atra24uLiefPmnT17tqenZ/fu3VOnTj1x4kRqaqqJicmJEydkMpm1tXVwcPDw8HBiYqKVlVVycrJarQ4KCrKzs5NKpcPDw2FhYdOnT580aZKRkdHhw4evLpORffEMwxw4cODxxx9/+umnHxPCK6+8olQqDeXU6tWrDx8+nJ6evnTp0jlz5ixfvjwpKSknJ8fGxubQoUMaIezfv3/79u2HDh1av359TExMf39/RUXF22+/HRUVlZub+/zzzz/++ONPPPHE00JITExkhCB+vwcGBpqamszMzB5++OG33347Ozu7qKjIxsYmKiqqtrbW29ub7Igi+q+qqmrlypUuLi4qlcrHx2f79u1yudzBwWHZsmWzZs1ydHTs7e3VaDT29vZk+bWlpcXc3NzGxmZoaKijo8PV1dXKyooQMFSWYmcwgQSQABIYDwIop8aDKtoEgDstp7Zt25aZmVlVVbVx48ZHH310yZIlcrm8pKRk3bp1R48eHRgYUKvVdnZ2rq6uSUlJr732Wlxc3NDQUHZ29pNPPllYWFheXj5nzpyTJ08yDDM0NNTf388KYXh4mLg9Dhw48J///GfVqlWxsbEuLi5XlwgXLFiQm5sbHx9vYWGRnp6u1WrJz391dXVAQIChnAoLCyP+ErVaTbb+XP2KeHl5ffzxx0qlMjc3d9GiRVf3LTU0NNjY2AQGBg4ODiYnJ69bt+7MmTMVFRW2trZ79uzp6+s7ffq0jY3NmTNnaJretWsXeXqRoqjOzk6O43JycmbNmvXRRx9VVVVRQiBfRLJxniyfiQqDPLVXVFS0YsWKhISE5uZmBweHBx544N13383Kyqqrq9uxY0dAQMDg4ODAwIC/v7+bm9vhw4c/+OADHx+fgYEB8kRkWFhYeXn5ypUrDxw4oNFo1Gp1f3+/VqtlGEatVouPHPb39w8ODvb396empi5evDg6OrqkpGTTpk0xMTEtLS2enp5mZmZ1dXXEhVZZWfnxxx+7uLg0NDQ4Ozt7eno2NDTk5eW99957kyZNsrW17e3tLS0tfeaZZ5599tlnnnnmpZdemjJlyhNPPFFUVNTT0+Pm5ka8U+R5QzwPAv9jhASQwJ0hgHLqznCegK3caTm1cePGzMxMtVp99OjRmTNnrlq1SiaTtbW1ubu7e3h4lJSUpKWlGRsbnz17tq6ubu3atZs3b66urg4MDHzooYfIBmpnZ2cnJ6fa2tqQkJC1a9dWVlZmZGSsXLkyJydHo9Hk5+e/99578+bNy8rKOnHixNX9Oqampr29vcXFxZs2bdq3b19ycvKCBQvWrFkjlUpDQkJsbW3r6upaWlo+++wzPz+/5uZmmqb3799PnuxTqVQODg5WVlaDg4MKhWLRokWxsbFVVVUuLi7bt28vKiravn37O++8ExsbW1NTY2dnd3W5raurKy8vz8rKav/+/Xl5eZ9++qmxsbFSqczPz7ewsIiOjpbJZE5OTvb29s3NzQAgqihxT714hAF5Do5hmKKiorVr154+fZqm6aysrHffffejjz7KzMzs6ekJCwtzcHDIzs5OSUnZtm3b1QfuGhoatm/fbmdnl5eXd/jw4eeff/7gwYNDQ0O+vr6WlpYymWzfvn0LFixob29XqVTvvfceeeBOoVAsXbo0JCREpVIdPXp09erVMpmspKTE2to6PDxcrVYrFAorKysfHx+ZTFZVVWVlZfXiiy/u3r27sbHR0dHR1ta2qalJrVbb29tPmTLFxsamr68vKCjogw8+KC8vJ//9amhomDt3bkBAwMDAgLOz89q1a6urq1UqVWdnp1qtFjlMwH+EOGQkgATuGAGUU3cM9URr6E7IKcJUq9VmZGS4uLhIJBLxmS8bG5vKykoAaGlp8fLyeuutt5YvX37mzBly3IBSqby6kXn69Ol79ux54403yO7svr6+DRs2XF3me//99yUSiVqtzsvLs7CwyM/PZ1m2ra3NTQhtbW05OTm2trahoaHE6bV3797Zs2fPmTPHwsLC2dlZKpUmJSV5eHhc1R/9/f3h4eFz58718PAYontQnQAAIABJREFUGBgYHh7etWvXG2+8cXXRbeXKleQpvM7OTkdHx9mzZ+/bty8pKWnevHlvvPHGihUrbGxsTp061dPTs2vXrmnTpllbWysUiqCgoHfffXfTpk329vb+/v7kyb6UlJSFCxdOnz592bJlJSUl4lKXuFgpKirxW8iyrEajqaqqcnBwyM3NpShKrVbv3bv3k08+KSwsBACNRhMeHj5//vy5c+eePHmS7MpqbGzcvHnz9OnTXV1d58+fHx8fzzDM1ZMLXF1dpwuhuLgYABobG5csWZKWlkYOpDh9+vTrr78+Y8YMcqYURVE1NTU+Pj6JiYnEg0UOg5g+ffrLL7/8+uuvE3Q6nW7v3r0+Pj4qlYqiKKlUunTpUn9//+bmZmdnZ19f356eHq1WS84Dc3Fx2bFjR1dXl6en5xtvvPHaa69NmzZtxowZrq6u5JlEceCYQAJIAAmMBwGUU+NBFW3eocU+stvmt7iJehDdEuJ5TuIJmYZHBojFDO2IJcUmWJZVC4H8myF7oUgVsixI0kQfiKYM7RBxQ9P08PAwOSyKZVlSniyQibXEhOFBmuTIK/Gj3yZIW+LQyDqXeDUsT5bVSA7LsjqdjhAjV/FcKzJS8VwrcccVORBLPJTL0PJ14yUWDBsS+VxX0tCImBabJlvaxbkg/dRqtaJ9Ym14eJjUpYVA0jecX7EJTCABJIAEbgsB8p8jPHfqtsBEI4YExt07RVasDHWA2DzHceT31VA3kB9y8QhvUpGcxmR4BrpYgKgH0aaoA8QEsSAWGx4e/q1EoCjq6mFIpAxRdeSMTWKWOG9EtSe2xbKsuMVKtE/+rYqNku3e4vodqWsoHYjIu6GcEhsSt1KRHFHeGa4VDgwMGO7EMqxL9A05oVTUl6RFQxSGaVLdMGdoaIhMpaiNiFwzbJSMi+gn8tig4UiJzeseJxT7KZoVczCBBJAAErjtBFBO3XakaJAQGHc5RfZWi/KCKACNRkNyxB9RiqLImZnkwTrD8iQt5hgmSJqsmhn+9pOxEQFEyoiuKXJLChN9QJQQUTyiEUMdQJSZKLBISbHnht8kUSsYvsrGUPSQ5TnRfyPWvaGcIl2laZqcaX6dn4n00LAbpLzoIiIFSOfJR2Jz4jojyVer1eRsLTI0YsFQAhJQYo5YnRjUaDSi1hQBEglI1KSYqdPpRJkrzojYK0wgASSABMabAMqp8SY8Ye3fCTlFtMLtQvzXrIl65TphcbP829VbQzt/tq3fGalo6mb2xQLXjdew/M3Sv61LjPxOf37f1HUeuN/av1l1zEcCSAAJ3F4CLMtSFGVubh4REXF7LaO1CU7gHpNT4i/xn502seJ18uJm+X/W/q2U/7NtkfI3tCyaMvxUzLwuYVjmVtKG1Q3Lk3zDnD9MG5q6YfoPLWABJIAEkMBtJEC8U+bm5vjOvttIFU3doa3of+Fn+GZzI/4k36zAzfLFiiinboZIzP99VmKxW0kYmrph+laMYBkkgASQwO0lYGFhceTIkdtrE61NcALonfr1V368vwq/tsRxt9IWKX/DkqIpw0/FzOsShmVuJW1Y3bA8yTfM+cO0oakbpv/QAhZAAkgACdxeAizL7tu3Ly8v7/aaRWsTnMCdkFMTHDEOHwkgASSABJAAEri/CaCcur/nF0eHBJAAEkACSAAJjDsBlFPjjhgbQAJIAAkgASSABO5vAiin7u/5xdEhASSABCYoAfLgkeHhfBMUBA77jhBAOXVHMGMjSAAJIAEkMP4ExGe3NRoNOUBYfAvWzRrv7Ozs7u5ubm4m7+fo7e2VSCRyuZy8pf5mtTAfCVxHAOXUdUDwFgkgASSABO5JAuSFYAzDqFSqjo4OUU7dbDDEcZWWlrZ161Zvb+/GxkYAkMvl69atW7Jkifj295tVx3wkYEgA5ZQhDUwjASSABJDAPUygsbHx8OHDrq6uSqXyuhdz3XBUFEXt27fv9ddfX7BgQX5+Pk3TRUVFzz//vJGRER6bfkNimHkzAiinbkYG85EAEkACSOCeIcBx3MDAQHx8/PTp09977728vLxbfDFoYWFhWFjY/v37u7q6iHfqueeee/DBB8PDw8X3jd4zFLCjfx8BlFN/H3tsGQkgASSABG4TAZZlOzo69u7da2RkNHfu3NTUVI1GI74JfmhoqLa2ViKRKBSKzs7O/v5+IpUYhunu7q6vr6+srCQvaK+trZ0zZ85DDz0UHh4uvrL9NvURzdzPBFBO3c+zi2NDAkgACUwQAgzDxMfHz5kzx8jI6Nlnn12yZIm/v39XVxdFUTk5OQ4ODsuWLfvkk08WL168adOm0NDQuro6QiY7O9vKysrR0VGlUgFAbW3t/PnzH3vsscjIyAmCDod5WwignLotGNEIEkACSAAJ/J0Eru4r9/LyMjIy+sc//mEkhBUrVtTX10skEhMTk5deeulf//rXZ5999s477zz99NMvv/xyaGgo8V1FR0e/+OKL7777rlQqZVm2oaHhww8/RDn1d87lvdk2yql7c96w10gACSABJGBAgGXZiooKBweHZ599dtq0ae7u7nl5ef39/cnJySYmJsbGxrGxsRKJJDU1dfny5U899dTOnTs7Ojp0Ol1cXNy0adM++OCDiooKiqLa2trmzp378MMPHz58GPdOGQDG5B8QQDn1B4DwYySABJAAErj7CXAcp1ar4+PjX3vttXfffbegoAAAhoaGurq6SktL5XK5VqsdHBzMzc1ds2bNk08+aWVlRU6WiouL++c///mf//ynsLBQo9HU1NTMmzfPyMgoNDRUrVYbvrv97oeAPfwbCaCc+hvhY9NIAAkgASRwewhcJ6fy8/OJXbVa3draGh0dbW9vv3jx4v/85z+TJ082MjIyNjYmB00dP3586tSpb731Vl5enkajqaur+/DDD42MjIKCgnQ6Hcqp2zM9E8AKyqkJMMk4RCSABJDABCBg6J06f/48GXFJSYmxsfFbb701b968zZs3e3t7f/zxx1OmTFm1alVDQwMAHD9+/NVXX50xY0Z2drZWq21qalq4cOGDDz7o6+sLACinJsAX5/YMEeXU7eGIVpAAEkACSODvJWAop9LS0gCgv7/f09Pz6aef/vTTT1NTUzs6Ourr652cnJ566qnVq1fX1tYyDBMVFfXiiy++8sor6enparW6sbFxwYIFRkZGzs7OKKf+3gm9t1pHOXVvzRf2FgkgASSABG5MYHh4OCUlZerUqdOmTUtMTNTpdCqVysrK6sEHH7S0tGxoaGBZtqqqytjYePLkyWvXrq2vrweA6Ojof/7zn7NmzTp79izHcXV1dUuWLHnkkUdcXV1RTt0YNObeiADKqRtRwTwkgASQABK41wio1erCwsK33npr8uTJr7zyirW1dXJyspub29NPPz1z5kxLS8vAwEBjY+OpU6c+9NBDK1askEqlAHDy5MmZM2dOmzaNOLR6e3sXL1781FNPubq6Gq70iS9XvteoYH/vEAGUU3cINDaDBJAAEkAC402gvr7e1NT04YcfNjIy+s9//pOUlFRUVLRhw4bHHnvs//7v/6ZPn25ubu7m5jZjxow333wzLS1Np9NlZGRMmzbtX//6V0pKCgAMDw/b2tp++OGHe/bsQe/UeM/X/WQf5dT9NJs4FiSABJDAhCZAUVRXV1d+fn5KSkptbe3w8LBGo+nq6srMzDx58mR+fn5ra2t/f39HR0dTU5NGowEAtVqtUqkaGxvVavXVs0ABoL29vampaWBggGVZQwfVhCaLg/8jAiin/ogQfo4EkAASQAITgwCu6E2MeR6XUaKcGhesaBQJIAEkgASQABKYOARQTk2cucaRIgEkgASQABJAAuNCAOXUuGBFo0gACSABJIAEkMDEIYByauLMNY4UCSABJIAEkAASGBcCKKfGBSsaRQJIAAkgASSABCYOAZRTE2eucaRIAAkgASSABJDAuBBAOTUuWNEoEkACSAAJIAEkMHEIoJyaOHONI0UCSAAJIAEkgATGhQDKqXHBikaRABJAAkgACSCBiUMA5dTEmWscKRJAAkgACSABJDAuBFBOjQtWNIoEkAASQAJIAAlMHAIopybOXONIkQASQAJIAAkggXEhgHJqXLCiUSSABJAAEkACSGDiEEA5NXHmGkeKBJAAEkACSAAJjAsBlFPjghWNIgEkgASQABJAAhOHAMqpiTPXOFIkgASQABJAAkhgXAignBoXrGgUCSABJIAEkAASmDgEUE5NnLnGkSIBJIAEkAASQALjQgDl1LhgRaNIAAkgASSABJDAxCGAcmrizDWOFAkgASSABJAAEhgXAiinxgUrGkUCSAAJIAEkgAQmDgGUUxNnrnGkSAAJIAEkgASQwLgQQDk1LljRKBJAAkgACSABJDBxCKCcmjhzjSNFAkgACSABJIAExoUAyqlxwYpGkQASQAJIAAkggYlDAOXUxJlrHCkSQAJIAAkgASQwLgRQTo0LVjSKBJAAEkACSAAJTBwCKKcmzlzjSJEAEkACSAAJIIFxIYByalywolEkgASQABJAAkhg4hBAOTVx5hpHigSQABJAAkgACYwLAZRT44IVjSIBJIAEkAASQAIThwDKqYkz1zhSJIAEkAASQAJIYFwIoJwaF6xoFAkgASSABJAAEpg4BFBOTZy5xpEiASSABJAAEkAC40IA5dS4YEWjSAAJIAEkgASQwMQhgHJq4sw1jhQJIAEkgASQABIYFwIop8YFKxpFAkgACSABJIAEJg4BlFMTZ65xpEgACUwcAhwAN3FGiyNFAn87AZRTf/sUYAeQABJAAreXAAfAArAccBxwLK+rSJJPcOR29Pq/t0t02x9cxY/5bgm9IT0EYISIyu9/nwi08DcTQDn1N08ANo8EkAASuN0EeDnFAcsAq+cjwwHD3zG8dmF5BUNUzZiwubZ5In2uyRPV0HUJXpOxY5KICKMbXDlgWeAYAD0ALUQ93z0aQAegAdAKFq5pEG+QwD1HAOXUPTdl2GEkgASQwB8SGPVL6YGjBF3FSxp2VGMJ64BjyuhX9TSaM+a+MmhCLDNWiddRo/4tUZndNCF4yEZll14QVQxfWY9yygAxJu95Aiin7vkpxAEgASSABG5GgBU0i27MH0XUjOCVum61z9DPREpdf+VAL0SGE1xf4vLhzZr+Nd9QhBmm+S7gYt+vnDB1TxNAOXVPTx92HgkgASTwewS4sSU2cRGOJcVHZY0oishaHJFQZEXuZlc9x68e8o4uofLvtT76mSihRAeWmEMSt2ADiyCBu5wAyqm7fIKwe0gACSCBv0KAA9AxtFCTX23jGD3H0MDphcjwe5lG03pgKSHqgCMFyKfCdXTzFQ3MWGT1gqtrbLc7vyfKUByNdpWiKH45kOMdYQzL6BlaR+vIZ2RTF8OyDMtyuAf9r8wt1rkbCaCcuhtnBfuEBJAAEvifCfCbxLUD3dDfBz29MDICvT1M86WRmqpuSWlPWWlPWUlPWXFn8S+DF6T6hovQ0QJd7dB1Gbo6rondHTAy8Gsc7ofhflAPgHoQNMOgGQFKy0daB3pqVHVRWlAP87ckU68DWg3aIV6uAQN6tW6wR0jziovlJRcGJHDPE0A5dc9PIQ4ACSABJHADApweQNtemh/xuXncBvNjazceW28Sbbop5vPN8ZstTplvOWVuccrc/JT55pObN/1otjHGZH2s6fo4s//+eG2M+fy/eX7uObtGoyr6e1X09/XR39ceP9KXc64nN4dEqK35NbY0w+U2aL4E7a1wqQGqK4ZKfuk+lz507mx9bPSFH482ZqfDcC95yI8GStj8foMRYBYSuIcIoJy6hyYLu4oEkAASuGUCnJ7tv1yeGBv73w3nP7c6a/7FOWu7XIedhS6uck9vpYe30sNL6elZ7u0tdXMr3OmQ86Xt2S8szn5hniHEs1+Yk3hmq3my9eafbPl42vbzOPP1JMZabDy6ZXOU5ZZIC4sIc/Mjmz8//Pmm783MvjczizA3j7W1/d7MLHrrFxHm5pEW5j9YWcR8seXHzZuPbvhvrOXmJC+XKxfKQNsPQFH/g5xi+eXC31svZNnrXV+cEG4ZIhZEArdKAOXUrZLCckgACSCBe4kAxwCjKYs7lrDVvHn/PigpgrJSkAixrBRKS6G0RIhCuqyU/5REsczYbXdacldaUldaUndaUmXE91UkHgn/5dvAX779tiCQjwn2Dolj8acdjvF2Xybt/Cph+46fdjimObue8/LO2+Vf9O2eksBv0+3t8nb5DCjloFUDv+bH/o4g0mg0RADRNL8PTJRHNE1rNBqKolghiKKK4zhSRqfjt2r9Vm+RT4k1cTaJEfGWpmnRIACITTP8wV03CBqNRszVarVi+jqzJN/QslgSE/cBAZRT98Ek4hCQABJAAr8hwDFAa8qTT8V9YXbxu0CQFlMKiU4hoRQSvVzCyMQoZWQyvUxGy2S0XE7JFTohUnIFibRcTgsF9DIZI5NycinIxCgDmRAlUpBIoUwyGiVSKCoGmRxKy9iCQiguAakMlOWgKB86k1Hs4Z7l5jykUIKWVzxkK/tves9nGCoPMS0miNAht0QkcRw3NDREdsGL2us6RSUKMtE+UUtqtZqYEvUQx3FEVw0PD/P9ZBiSIJaJVBKNMwxDCjMMc10HxFtixFB73XDUmHmPEkA5dY9OHHYbCSABJPC7BAQ51Xj+TIzFRmWgz22RU3qZlJXzioqRSfTSMlpSQpUWU2XFtKSEkUl4paWQ8VEp10vLoOICJ5eSYnwBiQQk8oG0M0Vfu47KKc0fyCkA0Ol0ROUwDCOVSsmAiXAhuodlWYqiZDIZUTlEuwwNDTU0NJDCxEKXEIiE4jiuvb29v7+/pqamtbVV9DlxHFdRUaHT6SRCKCkpKSwszM3NNVRgxAJFUTRNX6eorpsMlUpF+iBKLlGHGSrC62rh7b1LAOXUvTt32HMkgASQwM0JcAxQ6suF2cc+Ny77xv0aOXWta+oWvVOMQs7IZZxSzill3AU5q5QxSpleKaWVUp1CopWXaWQlJGrlZUOlhZRSqpYW0+UynUKilharS4up4tLepJRCN5fz7i7DygsgyClypujNhiGXyzUaDVm5e+qpp/r6+oiKKi4uFpfkGhsbjY2NCwoKiJGhoaGwsDAfHx8iXzQaDcMw3kIAAFLdzMwsLi7O29s7MjKyp6dHJpPlCmHNmjWtra0zZsyYPXv2Bx98sGDBggcffJCYLS4uLioqys7OViqVw8PDpDy5NjY2UhTV39+fm5ubmZmZl5eXlZVlampqZ2dXLISsrCyFQtHZ2XmzYWL+fUAA5dR9MIk4BCSABJDAbwhwDGiGa9J+SrS1KA/0BWmJXsFLH71Cyspl3GiUc3IFK1cwcjmjkOsVClqhpJR8pBWjUa9Q8EJqNMoYhZRR8EZoQUhRSqnuAh81SokYRxRlv41auYSRyAbSzpR6fJ3n6a4prwAtfzYVxfC7xYeGhn4zAH7nk7W19cmTJ4nP6YknniCOooyMjDVr1tA0rVarz549e+bMmcOHD8+cOTMzMzM9Pd3d3f3DDz/Mzc3NyMioqqpiWbaurs7LyyshIUFc4Nu0aZOTk9OZM2fmzJlz5swZJyenhQsXPvLII9XV1RRFvfzyyz09PaQ/DzzwAAD09PQ88MADS5cu/eCDD2bMmFFRUfHEE08sXLhw0aJFb7/99oYNGwDg2LFjU6dOXb58+VQhLF++fNGiRS+88MK0adM++eSTqVOnJiYm/naMmHPfEEA5dd9MJQ4ECSABJGBAQJBTFafjE6zN6/YFgrSEl0GCnGLkMlYuH4ujckp/jZxS0Ly04qOej78np6jfyCm1ouy38To5pb5QDnqG1TPDWi3HP+DHS6vrAsMwOp3O2tq6vb0dACZNmjQ4OKhWq9esWUNK9vX1rVq1auXKlYsWLVqxYsWyZcsWL168cOHC5UL46KOPQkJC6uvrPT09Y2Nj6+rqaoWQkZHx4Ycfzpw5c+HChZ999plcLifWZs+erVQqaZp+5ZVXjh8/npKSkpyc/NBDDxE59fTTTwNAU1PTm2++WVlZ+f7775NVwvj4eGNjYwAoKCjYvn17QkLCRiEkJCScPn36k08+sbOzS0pK2rZtW2VlpajnSIt4vZ8IoJy6n2YTx4IEkAASGCPAMaAekp44fvKLz9uOHLhGTilkvDtqNCoYOS+Y9Aq5oJ+UlFJBKeU0fzsayafCddQ7Zeig4iWaUkoJm9zJVScr+22kpRK2jPdOlXh+nevp3i9shLpYc/HEqYSm5mayMPfbTUXp6emJiYnk+vjjj8fHx8fGxsbHx586dYqMU61WJyQkEOmTkpJClvy0Wm1bW1tFRQXLsnv27Fm5cmVcXFxAQEBqampUVNSyZctefPHF6OjogYEBYuT8+fOnT59+6aWXgoOD1Wq1tbX16tWr16xZs27duuXLlwNAX1/fCy+8QFHUsWPHrK2tZTLZzJkzU1NTExIS3N3dP/30U2Ln7Nmz69atmyWEdevWffbZZ7NmzXrjjTdMTU0zMzPJkuXY9ODf+40Ayqn7bUZxPEgACSABngDHwMhA8fGoeCuznugjo3KKX6eTGXibFIxcqVcohWW+UXcUpZTzcsow8rpKRvMVZXphsY/IKSKk9GTtTy6hhaiXS2hZ2a9RWkYLUS/IqX5BTuV4ug8o5KCjvLy8HnjooW+DgsgTeeKucHEG3d3dzczMjI2NV61aZWxsvGnTpnVCeOyxx/iFQopqaGiYMmWKiYnJxo0bP/744+XLl7e2thYUFMTHx5uZmbEsm5uba2JiMmPGDB8fH5qmyd4pKysrOzu7mJiYuLi4trY2Nze39evXP/XUU6tXr25tbY2Pjz969OjJkyejo6OJbhsaGpoyZUpLS8sbb7yh0+mUSuXkyZONjY1NTU3nzp27bt06sgpZV1cXFxe3SghxcXExMTGLFy82NTWNj49XqVTioDBxXxJAOXVfTisOCgkggQlPQPBOyeNj4q3MWr7/DiTFejl/RAItl9Jy/kyEsaig+TMR5JRcrlPIdQrZb6KUUkgpuYREopnI1dAjRSlG5RQttELaMjyRgZVJOal84Ex6ibdHrrfHFRn/mF7ciRObrawyMjPJIQKGcorjOIZhDJ+qI74rjuM0Gs1zzz1HCqtUqueffz46Ojo2NtbW1vbjjz8+c+bMypUro6KiTE1NaSFUVlZ6eHgkJSUBQGVlZWxs7Lx58xYsWLBx48YtW7ZUVlZSFJWRkTF9+nQfHx+tVuvk5LR58+YHH3zQxMRk8+bNAKBWq59//nmtVmtpaZmcnFxRUTFnzhyycpecnLxu3TrSUEFBgZmZ2dtvv/3WW2+ZmppaWFhMmzbt/fffNzU1LS4uRu/U/f1vEuXU/T2/ODokgAQmKgGWX+yTx8ec+uLz6+SUIJ5Gj5USz5cS5BTRUlKd4pp4nWy67lY3dpwVyRd9VERRiQdcsTIpK5X3n0kv9vbI8fbQVFeBXq9n+Tcqk3BDtcFxXGRkZERExNGjR8PDwyMiIsLDw6Ojo5988kkip5qbm5999lkbGxsrK6uVK1cuWLAgMzNzxYoVCQkJW7ZsAQClUrlx48ZPPvkkIiKitLT05MmTVlZWs2bNioiISE1NFc9TmD17tpGR0Zo1a4KDg/v7+wHgiSeeIE3QND04OPjkk0/SNK1SqWbMmCGTyaZNmxYeHh4WFmZhYbF69WoAaGhoCA8Pj4qKWr9+/cqVK8OEQERbeHh4ZGRkQ0PDdceHjg0d/94PBFBO3Q+ziGNAAkgACVxP4HflFDmr85rrqGuKCCn+wM8/FUWN9ftyqu9MerGPR7aPR5ekDGi6oLgoIHhvTW0t6byhL4rkaLVaPz8/JycnBwcHW1vb7du329ra2tnZPfroo6RAU1PT5MmTDxw4EBgY6OzsvGTJkrS0tNWrV584ccLY2JhhGIlEYm9vb2dnt3379vz8fOIGs7e3NzY2dnV1rampAYCkpKQdO3a88MILlZWVu3btOiQEYvbw4cNarba/v//ZZ58FgJaWln/+858KhWLKlCkODg47duxYu3bt0qVLAYA0tGjRotmzZ9vY2Lz//vvvvPOOra3tv//97zlz5uzcubOqqoq0TnqO1/uMAMqp+2xCcThIAAkgAYEAy8DITb1TOoXiN5Gs9PGHSP2F+IdyipFJGam8Lz29SJBTA+UXgKKc3dyMjIwCg4Ju+Mgby7JktxM5jlxc7NPpdI8++ijxZjU2Nj7zzDMuLi6Ojo4mJiYLFy7MyMj49NNPjx07Zm5uzjAMx3E6nS4nJyc4OLioqIicVmVpabls2bKqqqrY2NiGhob9+/fX19e/99575eXlNE0HBgba29sbGRk5OTm5ublRFKXRaCZNmuTn5xcUFLRnz57a2tp3332XfM8SExNXrVpFhKBcLg8MDHRycjpw4MDSpUtXrFixZ88ed3f3Xbt21dTUoGvq/v6XiXLq/p5fHB0SQAITlYAgpxQnYhKsPm/9/jsoKybrbnqZVHiTjFInN4i8urqjcmqwohxoOisn297Zqbyqkhy2+dsn+w4ePEhETEBAgLe3t5+fHzmQc/LkyeSFfS0tLS+//LJaraZpOj8/f9myZTU1NTExMSdOnLCwsKBpurS01N/f39XV1dnZubS0FABSU1N37tzp5uZWWVm5ePHirKws4jSaPXu2SqUS3xLzzDPPDA0NkdPP1Wr1gw8+6OrqGhwcTA5PF+VUQkICWeyrqKhwdXXNyMgoKChwc3ObO3fu0qVL3dzcSkpKTpw44ePjc/X4q4n6XZwQ40Y5NSGmGQeJBJDAhCMgyCnlTeXUBZ1cjErBU3VH5VS3VAIs/0ZhCmBEoxGPOL9umo4cOeLp6blLCJ6enj4+Pp6enjt37iRHeqrV6vb29lmzZgGASqWytbX96KOPAKCxsXHFihXm5uY6nU4ul/v7+58/fx4AsrKy/Pz8HB0dlUqIQXd0AAAgAElEQVRlSkqKu7v79OnTyUcsy7755pvNzc0hISGOjo4uLi5GRkbe3t4+Pj6+vr6dnZ1Tpkwhu+M7Ojq2bNny/PPP+wphw4YNM2bMiIuLUygUrq6uTk5OHh4efn5+H3zwwbJly0gZPz8/f39/lFPXTe59doty6j6bUBwOEkACSEAgcHfLqZEafiMRped3otPCktytTxtFUcHBwcSl1N/ff/jwYYqienp6/P39o6KiAKC1tTUoKCg9PZ0cpkAsq9XqnJycPXv2kHM7WZZNTk7evXu3eIRBZGRkV1dXdHS0v7//7t27/fz8AgICgoOD9+/fr9PpgoKCaJqmKKq9vX3Pnj1BQhCX/zIzM1mWraio2COE3bt3BwUFBQYGBgcHBwUF+fn5iYeF3vowseS9RQDl1L01X9hbJIAEkMCtERC2ol+Ii0m0NG8NOwBlJXrZ6EEJ/EN8csW1UU7JZRR/gIJUfCKPlUnEKD6g9zsJYl+oLtXzdoQok/K7poTIyiR96T8X+Xie9/Hsu6AEYW1PD8ByvzcijuPIriPDjeqGy4JarZY8gnezjd4URXEcd917bEQL5EB2cqVpWqfTidbIO5h5wUfThsqM4ziyr4usUZJ3IRuOQavViue8azQasS3xpYGGhTF9fxBAOXV/zCOOAgkgASRwLQFWD5rBC7HRJ8zMu44chbIy/tTNCzL+zcSSErWklFbK2IoLakmpho8lmtJiXUkxU1oKEglIZaAs53J/obOyIa8ASiR8LL02lklBIuNjSRkUl4KyHBRKkMn0EgklkeiESMlkeoWSlinUpZKRokKolvf+nJjj6nLOy6fnghJYjuWAZuF31dS1g8I7JHC3EkA5dbfODPYLCSABJPC/EGD1MNKbte/bBIsv5F67+lKSr5w9M5RzTluQy5YWgawUlFKoVEC5DKTF1C85I+czu5NOt8XF1UdEVh04JP92b+k3AcU+u0q/CZD4B0oDvpWIcfe3EiGW7NqtDN5X//2RlmPHexJ+Gko7w+blQ0kpr8Zkcj7KFXChHBQXQCKFkmKolKhTEwpd3LI9fXuVCmAZjgU9yqn/ZZax7l1DAOXUXTMV2BEkgASQwG0kwNGg7v4p0DPazCTD2vb8Vzuznb/6xcW5yM2lxNNd4uelCPAtD9pVtTdAEeBT5OmS6+KY5+x0zsHhzDa7019sPbVly0/W1knbbBOstx4zNTlmwsdoIfJpU5OjpiY/WpiftLJK2WaXvt0+Y/v2bMedBa5upR6edSEhtSEhF/eF1H63T3Xgu7rQfdXBQdXf7pZ/7SrZuTNjk0Wx1zfqcgWAHtAzdRtnHE39rQRQTv2t+LFxJIAEkMA4EeD0QPc3l5wvORRaEhSU6eGR5vTVT7a28RYWURvX/2C2IcbCNM7q85PWFietLeL5uOWXb3yle/fWRkQ1xcV1p6Vq8vPo0uLh/Fz1L3nqX/I0+XlaIWry+Vv1L3l95zLbkk9fjI6+8P33uX5+Ga6uCTa2xzd9Hm9pGW+55YTllvgvLE9ZW53cahlr8fmPn2/6cf2GRFPzuA2b8/2D1DXV4zRuNIsE/hYCKKf+FuzYKBJAAkhgvAkIW5K0w3R720hdXfeFCz0XLvQqFX1Keb9c2lH4S+O5sxfTU1WZZ1ryzvdKi4cqlJqLF9mWVhgaBloPej0w10a9kEmu5KOBfhjoh/5+6Oujmpp1qoaRqpphZUXdmYx6IdadSb+QmFj788+tOTlXikpoWQUtrdLKa/ov1MIIv7mbd06x6KIa728C2r8TBFBO3QnK2AYSQAJI4A4T4IATtArLMTQwNHCMoFwYQbxwwNKgHYbhftAMgV4DwB8BxX/EV/oLW8M5/hApmgKNFoZHYHAIBgZJpLq7YWAAtDqgOVAzoOZACyBIKb4dRois0OwdBoTNIYHbSgDl1G3FicaQABJAAncFAY4DlgWGG9VGLL9RiaOA0wkHZ+oFRUMBqwVGAxwROHphMxO5Eplz61e9ntHpWR3LCyV2zONElJmBOBuTamM6iuMYVqA19sFdgQ47gQT+CgGUU3+FGtZBAkgACdzdBEblFMPLJa2aUQs+JyJ0iEgiuocB3mtEMZxOz+k4XgzduoS6pqRaN6xjtKxwhhQDjJ6hGVbPsgzHEcE01j7Hqy2ajywz6hLDNb+7+6uEvbs1Aiinbo0TlkICSAAJ3GMEOA44lvdR8VdBxowpm2sGQjQWuV7zwZ+6EZYJ+Rb5RjmWG4s3NDLmsBr7yxfCLVQ3RIWZ9wwBlFP3zFRhR5EAEkACf4oAJ4Q/VeW2FCbt/pnWcbHvtoBHI38nAZRTfyd9bBsJIAEkMH4E/oyguZ29+PNy6na2jraQwN9CAOXU34IdG0UCSAAJjDsBlFPjjhgbQAJjBFBOjZHAv0gACSABJIAEkAAS+EsEUE79JWxYCQkgASSABJAAEkACYwRQTo2RwL9IAAkgASSABJAAEvhLBFBO/SVsWAkJIAEkgASQABJAAmMEUE6NkcC/SAAJIAEkgASQABL4SwRQTv0lbFgJCSABJIAEkAASQAJjBFBOjZHAv0gACSABJIAEkAAS+EsEUE79JWxYCQkgASSABJAAEkACYwRQTo2RwL9IAAkgASSABJAAEvhLBFBO/SVsWAkJIAEkgASQwC0RwDcS3hKme70Qyql7fQax/0gACSABJHA3E0A5dTfPzm3rG8qp24YSDSEBJIAEkMBfI8Bx3K1X/FOFb92sWPK38ufXzv2aEopfU5TciFfggOOAA2AAWOATfzEQi6xgZczQb60Z5nAcsOxoa+xYB/j7a/pr2B2xuJB5w2KGDZCqLJ/FCf0ytPVX0qSXfM1fm/k1RSyO3f8vLY7x+yt9/IM6KKf+ABB+jASQABK4dwmwYz+TFEWxLKvT6QCAYRhxRBRF0ULgf8g4jqZp8qlGo7mZahFtGiZImqZpABCNkOa0Wq3YnJggr2emKIo0R66kOukJwzAcx4lNiBUBgGVZtVptmEMyxRzDWoaDFQv8ToIDoIUolmEAKEGSXK8cWAC9UFTPAcuM3dAc0CzQDB9ZBhiOozneAB/GBMHYjaFEEmWYoZYRFBlpRwegARji9Hqhto4SCHDA6hmG0dF8EyzfAM3rKBoYirTGDAE7BKwGGD0NoBP6K0y/0BeO0atHgOWA1gM3KsA4ITV6Q9oWKrAAWhZ0vELkWJbRUhzFAGdAS+g4xwEjZBIRed2Yha4TEGMsWA70fP9YNXB6SqDIAQusHig90GOleLmt50uCFkb46eZb+TUQ0coI0/RrPsE7Wor0hwWa4nR8v297QDl125GiQSSABJDA3UKASCKNRiOVSgFgeHj4OuHS0dFRXV2t0WgAoKmpqbm5meM4IoNuKKc4jlMqlQBQWFgoKhWGYbRabV5eHgBoNBpRWg0NDUkkEp1OR1G8nhgcHKyurgYAYp8UKy8vb2pqIrw4jquuru7u7qZp2lASEUFGxFZ+fr4IV6PRKBQKIr/ETDHBcVxzc3N9fb2YcysJThBPgjbhixNPCE08MNe5RfhfeCEywq8/LywoAIoDigGK5hUKw7B6YHXAaPgfer0WGEaj1orCadS66L369YOxngo5RJ5oeEM0sESbCgLnV1XMAKcB3TBoad4RxveDpnh5xIJ+AEY6YbgXdDpR+4zVM5AbemCFOQKO4cUSHwXPGvEajVUY7ZZ6GDS8puFY4Dg9Lx85TvBUCVPByx5a4CJ05WbC5Ro/EaumR/TAyyh+iILA0oNez/Mlgbdi0AutIK5+/YzMjEFTQpLwHDPBU2EFXcvwrehH+PT1RX4t/KdTKKf+NDKsgASQABK4VwhoNJrh4eGkpKRt27YJv3XCz5LgnWL5X0wuIyPD19e3srISAHbt2uXt7X0zn5A45Ndff72jo8PU1DQjI4NkksSzzz47PDyclZUlerkKCgoWLFjAMExPT49MJouJibGysmpsbCwvL1epVCkpKWlpaW5ubqdPnybSrbq6et68eQEBAVlZWZmZmRkZGdnZ2USKif4nIyP+Zys9PR0Aurq6Xn31VfIRkWgks7i4mGQeOXLE0dFR7PktJhjgRr1O1/lWrvntJb/gotwg3ileXrGgp4XIgB4YmldB2mG4WA011aCngGM4wT5xFPFduoFZ4mdheWXB8ut2el4LqIHpYyrKoEIBQ8N8RdHrd6UTKi5AcSnIK6CjB0aGWJYGhoGhIWiohrICKCmG2gYYonlJIsikUbnBamF4gGpsBQoYwbPIN8YIrh+W94xxwAkD4DQ8EiH0XgGlFEqKoG8YBJeWICl5FTaqDnlNJCrE0UoGf4QhkXuijwY1TP0l9aVLoBfuGd7JRvOyjrcnXEY9ZfydRgsNDdCgApZ3CRKJNSrMyITwLZPZM1BfxBLooa8fmtqgqQO0LDes4ddEiVA26N9fTqKc+svosCISQAJI4C4lQFw7SUKIjIx87bXXkpOTExMTU1JSEhISCgoKyJIfkSDJyckREREsy/r7+5ubm8fExJw+fTo1NbW1tVUUMYbjfP3111UqlU6nW79+Pclfv359XFzck08+GRMTY21trVar8/LyhoeHS0tLP/74456enuDgYDs7O3t7+48++sjf3//o0aNBQUGzZs1au3ZtYmKiTqejaVoqldra2r766qtz58797LPPVq5cOXny5EWLFvX09IieqrNnzy5evJjjuEcffRQAenp6Xn31VdFJRooVFxc7ODjI5XKKosLDw4mONOz/H6X59TNg9KNOFh3w61uMnpdAZEmJr08cU5SweqYTnFK0IDyEYqM+K2HBjRY8IiOD8oDdl/YfhKZmGBkBmlcLen65iuHVl1aIlKCbgAZODewwUMOgUwNF8WuGFMsndH0w1H45fN/FvYFwuZtft+NXbgF6e3WFv1R6+yq+dKzy8Gk+dhy6u3g5R+mho6tmX3D5V46Vjl817vmOU16EYT2vzwBGKN4fCX09mtw81Y+J0K8GtRp4t5MG1ELUavl+8u4cNYCGpYXyV/q4ktIL9l+WWW8dyfkF1Lxi5M3p9UDpQKvlI02NikmaBkojRB1vildpetCrgRkBjhJW82jQUFCjupSY2px5DgYG+S5pKaDVvD+PH7gedCO8143W8XVZhmturT4UMfJzFmh1fCs6LZ+ghCVM4hzUaEAzxNOj1Xyj/KIrzXdJo+a1aVPb5dSMysNHobUDRtT8/zn86vS6RtUKZP/cBeXUn+OFpZEAEkACdzkBjuPI6puRkdHq1avXrVu3cuVKU1PTtWvXbtiwYbkQAKCtrS0yMjIuLi4xMVEikdTW1vr4+GzcuHHt2rWrVq0yMTE5f/58UVFR/LXh6NGjzz333L59++Lj40+dOkX2MA0ODq5evfrJJ580MzOjKKq+vv7f//43x3F5eXmLFi3KzMxctWpVYWHh+++//8ILLxw7doyiqICAgF27dhGHGZFBhw4dKikpCQ4OPnjw4PHjx+Pi4rZu3drc3Exok61Ujz76KMuyWq120qRJycnJYWFhU6ZMIR08f/48EVgnTpxwdnZ+//33T548aW1tvWTJkri4uBMnTiQmJlZVVZFlxBuuY45OK8NCVy8UlkB5BZzPhowsKCyEgS5+ew8Ax2+I4njNQWmFX/ohoIZAL1x5WQG8aKAouNLNiyH+l54GlobmSy0+34z4BEBKJpORoy0qg74+Xg2N9IOsCtKL4LwU6tpgcAiG+6Cljs0/B2fPQokELnfB0Aj0DzK/FMDZTEg6rQ3waQvwgZZWSiu4i1iA1vYrPxy77O4BPyUxISEXvDy1lZWg0YEeruQWSL/cDnFxcDym0PRz9ZlzoNaDjtXphY1HlA7SsqSfWzd6+EF2HlRVQHYWyKWQmw2lxewvuVBbC5QaOhr7Cs9DSysMaUDVMHz0WM0a45p1G7oOR0F33+gKXN8wl/8Ll54C2Weh/TL09MGwGi5dgrzzkPITlEmo87nQ2g69vVx+DlSX84qnvYUqLob2DujohjIZqOqh7wpU1kCZBCRFTF4mNKugvgZysyDnLFSWwWAXqIe6Us8oPP0htxQG1NDWBTmFkH4ecvPh4kVeM3W1Q3EuyAshOwMqL/DdyC+lzxVAyQXIK4Oyct6jJrtQ7OoB+YUwMKDVaogjS3DHjbnfRr8Hf/oPyqk/jQwrIAEkgATuZgJkrU2r1T7xxBNEr5Dt4fyWGorKzc1dsmQJwzDFxcWLFi365z//uX79el8heHl5EYEVFRV1/Pjx9vb2ffv2bbw22NnZTZo0ac2aNSYmJhs2bFCr1QzDxMTEHDt27Kmnnjp27FhycrKhnFq6dGlqaur7778fGRlpbW29YMGCY8eOKZVKPz+/lStXxsTEHD16tL6+nuyLyszMPH78uL29vaWlpZmZ2d69e48fP072dQFAXFzc448/TtN0ZGSkqampiYnJ2rVrJ02aZGJismnTJhcXFwCora3dsmWLiYmJmZnZ3LlzZ82atX79+o0bN27atOntt9/evXs3cWXl5+efOHGipaWFsLpmNmk9lNdkmH9R4+l5JSS4dudXcjcXqFXyG8F5jxKAmuqVKrtz8/pzzg9mZ13JzexTFEJrHZQrh7LOj2SeV+fkdeec11ZXwogadDRfq+nSSEBAv73DUPB+mZu3zGsXlElhpI+Wl0m/9uvwC6118O08cJQXHD2X6384VPvN14M+39Q7ukJuEfT2Q3GRzNmpxsu3089/2MWxzdsVOttG+6wHaGqjI6L67R3A06PP2b47NAha22BIy2/iUlZ2e3qBq6vmy21N2+3g/Dl+tYti9GT1TKuGqJiK9ZsuWNuwURFwPjPbYtOlQL/L+/e2Hwwu8/m6/cc4aG+HgvMyf+9LP52G9i6QK68EBDLOX484OHft2QsqFQwO8268grLLBw427tud627fEPMDL26aWzsio2RODr1BAcN7glM3btLkFUFtfcpGY0g8AX1dg3nZ5xx2QEkplFeVBgbV/xgDtRd7vw8v3W7XuC/gclQoZP/cG76/duf2BlfHxu8CoOg81F+sP3jo8ndhIKuEK+ru02fqv/n2in+g0tKCiY6Ey01ccU6a8ac9AV51wYFwLhMyz/1iZVfh/13L/qPyL116DkZCzwBU13V9u7c/7Hvo7RZ8hPw+L4ZXwfxTFP9LQDn1v9DDukgACSCBu46AKKcee+yxyMjIiIiIw4cPR0VFRQjBy8tryZIlxD0TFxdH1sKysrJOnTqVmppqZmY2e/bshQsXzpw5MzY2loyNNQgAMGPGjIaGBuJSIo/mbRaCkZGRpaWlu7u7oZxatGhRamrqa6+9ZmFhMW/evOnTp2/ZsiUmJiYgIOCNN97417/+NWfOnNzc3Pz8/JiYGAcHB0tLS6VSmZiY2Nvb6+XltWXLliNHjkRGRnIct2PHjocffviqC8rW1pZ0rL6+/pVXXiE9EZ9PZFmWaKajR49aWVkR/9nVDVheXl67d+8mmtLCwsLIyCguLk6Um7/Ooo6GalWpzfaawEBoa4XCkhy77U3HI6Gvk9+4wwBc0V5Jz6vdf7jpu4Ot+/Y17g9piv+BK83pPxHbGLSnKTCo/btQ1cHQyymnhXU94Qm/S409vu59XztAWR7kZClst0NiCijkFd94t+4NgoZLkJQhs9kBykpoarhyIgLyz8Dh8OoNm1WBoVBZC+EHq+1toKgASou6vv6q2dcFuvjN+/oRmtcAV/ohJWVos2Xj4o9bv9wEped4z5BG2BbU1Nrt6qpaufzip0vg1DFoqwWKX1DT0/ohvYb3t7U3ye2+aAnbyxssKSy23ToQGwFdKrhU3nr0+/rAvaCogriYKldHVlLKb9j6OaPZ4SuIjoXYH9v9fCEnk3enNdY37A3pj4yAyw3DFYXyU4ehpgwKC5QOO9n0n6G1GWJ+zFmzHvLLQFFR+Pl/If4HuHxpJCO1wMYKzmdBqVTht7smLAyaLrHh39e4ODAFqdBbBz/Fdvp4QNJPICvr8vfVHgyFvJxyX5/uqCiob4TW3qHkdJ5J3LE+G4sBp+1QJYeSfMmmjRARDr0dMHil0++bOvudIL8I5fV123f2Be6Bzl7o7IH9BxudvoL2Fh6FsE6o59dcqdHNWr9+Ff5cCuXUn+OFpZEAEkACdzkBUU498sgj27Zt27Jli729/bZt26yF8Omnny5btowIjtjY2Pnz5x88eHD//v35+flSITg7O+/fvz8+Pp48NHf27NlDBmFwcPCNN95obGwUDzUAITAM8/TTT5NMIqdYls3Ly/v444/Pnj27YcMGlUplZWX1/vvvZ2dnk23v/v7+Li4uoaGhWq02Li7Ozs6uuLiYPBg4f/58sp0cAHx8fGxsbCiKUqvVjz76KBGCREK1tLS89NJL4l51URuxLNvW1hYUFOTj40M2il39yNPTk8gphmGioqKsra0lEgnp/DVXHQ3KqqIvbLrijsPIAFzpr97lXx38Lb+QpKN4+TJAscXl2tOZkPAznEyGxJ/orDSor4CMNEhKghPxkJCgOfmjviCP343ECM/5NV3q/sa1x3MHqJSglFRY2UBYFGTnKu22Nfh4QMJJ+P5w9npT+udzUFunT4hmw/dqXZ1qTD5vDgiFyga1h/sVTxfovAx1Fwe/9bkc8DW0XmS1A8yIDnqGQSLv8PXrsbLuNjXhfL+C08e5jLNQ0wBNrd3xJ6q2WQ072nZ/YQqHQ+BcMq0s5UUhgJbfvTQCVZKCL81Vh4OgqxHSf87b/Dn18ykYboPWiv7U+ApHF/jxJ3aXf6efL1xS8XIn9GC/kzv8Ugy5+d2uzvBDOLRfggvSGlcXOBUPV9pBfwXYDuiuhR9+uGBlx5zLhsuXITOrYI0x5BSD7IJk038hMQbamrRpqb9sMoPsHJAq5W5e7RGRIJdD6IEqhy+hIhc6q/QHvys33dS377uh78PbPTwGAvwh40zNNz4Nhw7wu9FrL3HJP3dEhnUEeg1YmfbZboELZSArLTJeBz+dhsFBaGmq3PoF820Q75GqvdTt6qbZvZtfW+zshpCQlh320FgHwvkWwlOIKKeu+UeAN0gACSABJDB6fJRWqxXFB8dxWiEAQFZW1vLly8nje3FxcbNmzbKzs5s/f76zs7O3t7evr6+Dg8OBAwcIR47jwsPD7e3tX3jhhfXr11+VZb29vf/+97+bmpoYhiHLcHv37t23b194ePjkyZN3794dGhrq6Oj47rvv0jRdVFREvFNvvfWWt7f3Z599RhLZ2dm7du3y8/NzcXEJDAwkbRUUFISGhu7Zs+fQoUNvvfWWnZ3dwYMHQ0JCrsqp7u5ulmVpmiYjCgkJCQwM3LNnj7Oz86RJk0JCQvbu3ZuQkGA498eOHTMzMysoKHBzc8vJybm63Onm5ubt7S0+AEj8auQIBnE9kbeg1YGi4ryVVU/aKRjpgrYmhadHzbcB0NzIPygHAP3Dl3KKKqJ/UkUltBw51RwR15WUBErJwJmUi4e/r484fGH/d7U/HOnMPsfLL1Y4OeFS00CA10iAB7Q0gFRebesIByIh43yx5RcN7h59e4N1h74fOHgYisoHfzyd8t+1EBcFitJGZ5dLQWEgrdP7BrRsd4D2bmhsgtA9Klc7aKsBqp9foRqmhmITqh1d4WQinDzZZ7ml53MzlZ0dnP4Jzp8tcLBuCfaG3JRhL+eGzWZtX37Z7B/I78KmGZalQD8CF5Xyr2y6fvgOLqvgTLrE0orNSgVNJwy1gqKo289f7ebb9ZUHRMdBUyNcUHY7f91hsQ2+OwLBB/s+39TnYMfvtSorqdv+JRz7Abou8/vl9UL1mBNVW7bD2Xy43AO5uTnrjaGgFKTK4o0b4MSP0Nyu/fncLxstIasAShQVzl/3HokAmQK+O1zj8BU0XYAeFR28v8HUptPLfyTs8Ej4YUhOgnNnFR5urVERUFcHhSWybXb1B0NAkg+BnsMeO0FVAzKJzOoLSPkZrgzBpdYLmzervb2gqxO6u/tcXTXffAPNl0BVB0HfXv7KES5WkMMXhMU+muM39guPEhp+jf5MGr1Tf4YWlkUCSAAJ3PUERO/Uww8/7CMEPz8/f3//QCFs3bp12bJl5JG9uLg4MzMzlmWDg4Pd3d39/Px27dplb2+/cuXKgIAAcr4U8f3MnTu3sLCQDD00NNTPz0+tVmu1Wpqm3d3dnYXwj3/8w8PDw93d3cbGZtasWQzDXN3Mvnjx4vT09KlTpx45ciQ2NtbU1FQulyclJRnKKZ1Ox3FcbGysu7u7i4uLo6Pj1KlTzczM3N3dXV1dDeXUI488QvxMrq6ubm5ulpaWDz/8sLOz886dOw8dOkRUEcMw5eXl3t7ep06dYhhm//79bm5uFEX5+vr6+PiQISQlJQUHB6tUqhucCqHRQkVlvs0XlQeDoPMSVFeds9nWFHEEerqYoUGKEbYdUSx/pOYwwADAgJ5XYOpB6OuGnk7++b7BKzDQy/8208K5mjoOWlq7dvsM7d0F9XVQKpNY28PxE1BaonB31RwMg6qLkJ2rOxYLlY3tR46XbLPhjzb45fyFr3aWB4RAXatmT0iFzTYoUYKi8oqXW72rHbSUg76Pf6ZuaERzOvWCqwf8UghyJTi71Sxc1GO3DVISIDe9ZMeW4eMHoKMeoiMvrF1XuHCpdu9BaO0CLa3XqvnH6+qr820s2r4LAFUV5OZLtn05eDYVhjuB6oO2BurAgUtWtrVfukB6Li+ATqdUWO/ocvIe3HNA/91B1sWp2cqCTf0ZLlT2+u/ijnwPzQ3QWNOalwqNlZCVc8HaEZIyQHUJoo7kbTSG8gtQX1duuxViY6DzSnPEj8UW2+FMHhRIar2/uRIVBcpyOPhD1VfuoFLwC47HT3Q4eMFPGfyCY3oGFPNrnXXfBjSFHYSKCjidXOfkDOfOwsXyXqftdXZfgOoiK5NmbjSD9HP8wl1rZ6ezc9eX26ChHoqLmq23jvh4QVcbXG6m9+5pcXWBzlZgKOEIKhImRPgAAA5kSURBVGD580JRTt31/2nDDiIBJIAE7iQB8mSfTqczlFPu7u5eQjA1NTWUU5aWljRNh4aGurm5GcopLy+vqqoqYgoAlixZIpFIxCMJXnrppe7u7pCQEK1WS8r4+vr6+/uTlbjBwcEjR47QNJ2Xlzd//vz09PQVK1awLBsbG7tlyxaCwlBOkZU7AIiNja2rqwOA+fPn5+bmAsDBgwfJ5ifinSJyimhBjuO6urqmTp0qsiWep6qqKm9v7/j4eNLb0tLSzMzMq4ewe3p67tmzhxQme6diYmJEZxU5pZ3vv1YNNeX5m00kX26DH+O7/f+/vfN7iurI4vhb3pK/wH8gj6k85TVlxdQ+bm2qUpUtTTZudk00ibARiCuIIqsOAiIEf5H1F2FEkRg1giaOMYDEyCg4iEGC/IYBZGB+3d/3rKfPnaYZwEySTSqJZ4qa9PTt2933c03db53u+z0Vwc3FblcIZmeE2zh6QTouvQrm4lMYn8iAJuRkUy5+gKmBbaFTuit8FkbGOgv/PVrhw7BK973A2+uh4SQM30lcPdu/bStUfDSyOX+kpBQeDJqBQNs766zyPbGdO1rWvdW2ezeMjcBXzXe2bu7dVZaoOd77/jt92z+A0S6UcvosRKacWzf6DlZPHjykV1aH17878/bbvW+tBf9RuH1t5ti+B4V5ULV36sO8wXff73/3g84Pt8PgOOgWmna6DkyM39u5oysnG0754fSZ5g0bHrZfw25tHeZm4PTJ7rVrH2zdAXcfwPeTob0fBwtLIdgDkRmIhOHblnsf5g4cPAqhPvjss7Fy38PqsuGPSoNVe6GrC0Yn7pfuDe/YAR9VQOHmwJ//BO1XYPi7sd0FfbnvJ/z+78qrrq57D766DsHO20VFY7VHoeeuWXOsY0s+DHRBdBBu34gfPTGx3TdW5OvZUwJfB+D+vfCh/YNlu6HjW+jq7i0oGvnPbq1s7+A//nnz72vh+/v6reD5NW+inMItchbU+wdX/zVRURnbVzXw5t+S/9kGM6MwfH+yZPdkeTlEZxxTI7swYexlcnSK/u/gbybABJgAE0ACpG8Mw1AX+2zxAYCrV6+qcmrNmjUA4PP5cnNzFy/2UW+O46xatWr16tW5ubk5OTnj4+MUzXrqqados5Rt22QERXKKvg3DaG1tXbly5eXLl59//vm8vLyVK1c+99xzeXl59fX1qpwieVRTU7N161ZytHrppZfa2toAoLKyMj8/n6ynTNOUcop8E8Lh8IoVKygaR5lt+vr6CgoK/H6//KdA9Y+kVUFBQXFxMUm3Tz/9dOfOnXfv3qV+6DJJUaGcCra1rnsjWl0Fjedi/z0JLbeEHYCbtEzhcOTGdc10HcvBP9O2TRvfsReemwtWi0S6F7HYF56MX74ILQH0Ahgcilw4D3dvQXIUYkNW04VozRHdXw+3b6P5wsSY09xkfvIJNDZGzzQMfXEJkrMQnzRarwwcr4vUn4FLF+Dri6CPgzUNri4MQW23u2u8/nTkWC3Un0I/Bb8fYzkzw/AgBBfPGbUn5moOY/2lQLwpAOGIB8eywDT0QCBS54cvrkBn12BjQ2LgO7TR0mIwHYYvmvpy/vXw+AmY1WA8HgkEI1/fgomH6Mwem4DIiNsaiH7VCkPjMBU2Ak16Y23s9An7m29wL3w0Bne69FO18PF+qKr48tW/GC2XQJuCm4GZ2pqps434/mPDWei5D4Mjbvs3dmcQVdqNW0MnT0FkFKwImDEIBrWG89PH6qHzNkyOwsPw5Om6Xt8OuHEdRsagtT1WV2fXfQL1J/XGBpgcd4YGJhrOQHcPOtLHYnCq7sHrq2F/DRw+OrxhQ7KyDGZG3VBHaOfOeEMjzEy7lkG+U2gAhrvSf9aHF/t+Fj4+mQkwASbwWyNAC1i2bT/99NNZWVm5ubmbNm2iwvr161955ZVVq1bpuh4MBkk/5eTkUOBq06ZNRUVFL7zwwssvv5yVldXR0VFbW5uVlZWdnV1YWFgiPuXl5dPT07quHz58mPaeG4ZBO8pJRdEbdo9UUW5u7muvvfbiiy/29/f7fL49e/b4fL78/PzS0tLCwsLi4uIrV67k5OSQ+5Tf7y8qKurt7aXdWitWrGhra6N8gsePH9+4cWMshj7gzzzzDI1CCiwWiz377LPEX9O0/v7+LVu2NDQ0OI4jc91cu3YtOzt748aN27Zta29vT7tZMiglC+gX1R28/N5bw6eOoqeUqeOz2bTRzBy9yoX3N+qvtJ6W+Ck25YiGtoVOS4lZ7I3MJ42ksLI0hD+ngfZUlkgk5wDoFppbJg2Mr2CqOmGibov8dYYNZhLshDAOTc2AFIHloF+lLowx4zokdPTVtHQxf014aWq4lwt7SJmW2y56Ytkm6OQjamFQCq3WdZgaiAYuDu8u/r54Oxo4oc8WpdNBtS5ehkuAOwvOHEorxxA5AeNonmnEcVBb2MIjuhjEInD52slXXw+3XgNtFrQ5tOVE33gxaMLBlxA1VyTkc70yQhZLpbo4qrvo9YVyR4O+0P2aar35c4jO4gJrcgq0MBhTKL/cJLgajmgmcIu5loBzZzreWKOX7YuWVNza8B76aY0PTba3BPcfgp4+TP1omWQ/jx7sjrB4p9Q6KbRL3NTlq1hOLc+GjzABJsAEfm8ESBaQs4HP5zt48GBpaWlZWVlJSUml+JSUlDQ3N9u23dPTc+nSpVAodOjQoUd+my0tLdevX7958+a+ffuqq6vLy8tDoVBzc/OBAwfKysooCw25DEhB8yh0RNKtqqrKtm1HOBQYhqFpWjQaPXDgQGVlJbktyOU8whkKheituubm5jt3cEdwU1MTpfOjBDIVFRVDQ0OUBse2bXKfcl23oqJCLjhSbsEjR47ouk5DT0xMkMe6etOCwWBpaemuXbu6u7vVeioLXCLjnOt94zrd9Nhc4HPnQQjcGNhxxzFsx6YMeCiO6FlLhdRzd+EvbxwlK50rHtipvCnKPOSJlGvYS6eSSn1ClZbQP6m8LXIG2Is8XRawlgRWanivTzmokt/Omz7VeP2JVMuRYbPzeuLcGWhvhbgwKxdiklLxCe2j25A00cIcjduF+7glbN0xj58I1Yl8fpiGz4aBiakLX2rDQ54Zuuvl8MH03JT0EK3ahQtqKokxduFiwhvK46cJlZfU5yDxUO8M4pqpFkeDdTdqY+qcpIFC0rRQk5o2WOh2rmtoBNp03jh9Rms4C23tMBEGQ9cHBx92dMEcvt7oWJbtujbmmnFwniIH4fwtlsQyK7CcyowTt2ICTIAJ/B4IyCiLFD2GYZC6Wm76siUpFbmdiH6mGSJQJzSK2iFFktTGtAZHO59kS3qTjhbXKNGNXG4jJ3dqSUOTCKN+ZA/q0NSA9m+pJz4KmNH2dulfmtaJ0hupKHqq2vigx3xxOkaAzBjos66dEJuUU2JGnolBI0/DuOI57HhP44WP4wUyJyV/MB0e6gdHxHZ0FBIpXZYmkcQB2i6tYyhJSCPMdePiX0ptSMFEo+EcSSFRx1QWI3iRrFR8Cusoc04qwZ2QOgaYc/bcBOhzEJu1kyKXDekdvGRChMuergjcibiZl4jQWzBzxPRIPWIwy8J1TLSVF8dTS2sYcrIx3XGqWkiqlJQ0xJ2QNB1wE3oCL02zIWmhirN017ZssZMNUaTyHHplU0QEMRgmzpqLQ8KkgSAucyu7QgLSF+o/9T7M3+rMSiynMuPErZgAE2ACvwcCqpyibUNy2cs0TXpNT+onVW1QpYz9pMWTpEmmykD2IyUO6RhqQz2k9UPxLQo7UZmkFYWaXNelGZKkI6WlKiFSY7JPOQFZg09bTWYG9iarijx1/mLodDnlupZt6zYue9F79PSUxm8SUKkepGChMApqI7F9SgoAsS5GCX+lWCK9k5JT9rycWkpRKSNZGNjBrHVYh9LBxcUyByNB8xJKtJ/vSKooWRCSg1Lb0YofniGvQxRd17FsQ1iE4wHdRJhzUSH5sGtKT2yKDIakCDHlszhV6iKaYUqyYSvLtRJCNHly0AufYVhIGJLj+5Liz5M3WDZwe79QsTiod1lxw9REDArjUJaJZ9P9SUW5FogqjIJRPj8PJV6Sqj0FTRdX+hbvfPNOyfw/LKcyZ8UtmQATYAJMYAEBEjRSwy04tuiHbCZlEDVR69UyBdXoW61Xy4sG8SrUiS3XRqmXQaS0gnz2Km3/r8V59fND3abJph9qvuxxeYVLthCrtxRWchzXdlwHBeH8OVJ8eVXioHcR8zOU7b0q9Swcdr4lBfkw6KV8RNiPon2ptthAKF+xCEiyyHEwnORF+pTIlqfNaBD6sbB/GsqrIxk3H5dS5qZMKYMiy6kMIHETJsAEmAATWIqAqmzSRNLi5mpj9ahar5YpcPWT5ZTsSh2Ly5kTkAAfe2d/svzIfCJeS3U+S5WFtFIOZDSAp8hSQ6RUmaq/1PJj+mQ59Rg4fIgJMAEmwAQeR0B5eGHxcU2Fg4Nsr7aUlYsLUlEtPkQ1aj9qWW2v1nM5cwK/NYbqfDIpZ3SlihqUMbS0kCE1URou3THLqaW5cC0TYAJMgAn8IIG0p9rj26uN1ZZq/eIyKarF9VSj9qOW1fZqPZczJ/BbY6jOJ5NyRleqqKTl5JS3eEgbxJbvlOXU8mz4CBNgAkyACTABJvDEEFgyEMVy6om5/3yhTIAJMAEmwASYwC9DgOXUL8OVe2UCTIAJMAEmwASeGAIsp56YW80XygSYABNgAkyACfwyBJZcAVw8FO+dWsyEa5gAE2ACTIAJMIEnjkCGymlJLiynlsTClUyACTABJsAEmMATR0B51e/HXTvLqR/Hi1szASbABJgAE2ACf1QCLKf+qHeWr4sJMAEmwASYABP4lQiwnPqVQPMwTIAJMAEmwASYABNII8CLfWlA+CcTYAJMgAkwASbABH4cgf8BjrO6HTNv1vkAAAAASUVORK5CYII=;clipPath=inset(0% 0% 11.72% 0%);" vertex="1" parent="1">
          <mxGeometry x="23" y="160" width="404" height="152.17333333333332" as="geometry" />
        </mxCell>
        <mxCell id="f3oY8Qm6XaTq2EdM98An-6" value="&lt;font style=&quot;font-size: 15px;&quot;&gt;&lt;span style=&quot;&quot; class=&quot;hljs-keyword&quot;&gt;自旋判断 if&lt;/span&gt; (p == head &amp;amp;&amp;amp; tryAcquire(arg))&lt;/font&gt;" style="text;html=1;align=center;verticalAlign=middle;resizable=0;points=[];autosize=1;strokeColor=none;fillColor=none;" vertex="1" parent="1">
          <mxGeometry x="70" y="310" width="300" height="30" as="geometry" />
        </mxCell>
        <mxCell id="f3oY8Qm6XaTq2EdM98An-7" value="&lt;font style=&quot;font-size: 15px;&quot;&gt;if：前驱节点是 &lt;code style=&quot;&quot;&gt;head&lt;/code&gt; 且成功获取同步状态&amp;nbsp;&lt;/font&gt;&lt;div style=&quot;text-align: left;&quot;&gt;&lt;font style=&quot;font-size: 15px;&quot;&gt;&lt;span style=&quot;white-space: pre;&quot;&gt;&#x9;&lt;/span&gt;&lt;span style=&quot;white-space: pre;&quot;&gt;&#x9;&lt;/span&gt;&lt;span style=&quot;white-space: pre;&quot;&gt;&#x9;&lt;/span&gt;&lt;span style=&quot;white-space: pre;&quot;&gt;&#x9;&lt;/span&gt;&lt;span style=&quot;white-space: pre;&quot;&gt;&#x9;&lt;/span&gt;-&amp;gt; 当前节点变成head&lt;/font&gt;&lt;/div&gt;" style="text;html=1;align=center;verticalAlign=middle;resizable=0;points=[];autosize=1;strokeColor=none;fillColor=none;" vertex="1" parent="1">
          <mxGeometry x="370" y="105" width="330" height="50" as="geometry" />
        </mxCell>
        <mxCell id="f3oY8Qm6XaTq2EdM98An-8" value="&lt;font style=&quot;font-size: 15px;&quot;&gt;else&lt;/font&gt;&lt;div&gt;&lt;font style=&quot;font-size: 15px;&quot;&gt;&lt;span style=&quot;white-space: pre;&quot;&gt;&#x9;&lt;/span&gt;shouldParkAfterFailedAcquire 判断线程是否需要阻塞&lt;/font&gt;&lt;/div&gt;&lt;div&gt;&lt;font style=&quot;font-size: 15px;&quot;&gt;&lt;span style=&quot;white-space: pre;&quot;&gt;&#x9;&lt;/span&gt;&amp;amp;&amp;amp;&amp;nbsp;parkAndCheckInterrupt&amp;nbsp; 阻塞线程&lt;br&gt;&lt;/font&gt;&lt;/div&gt;" style="text;html=1;align=left;verticalAlign=middle;resizable=0;points=[];autosize=1;strokeColor=none;fillColor=none;" vertex="1" parent="1">
          <mxGeometry x="390" y="172.5" width="410" height="70" as="geometry" />
        </mxCell>
        <mxCell id="f3oY8Qm6XaTq2EdM98An-9" value="&lt;font style=&quot;font-size: 15px;&quot;&gt;finally&lt;/font&gt;&lt;div&gt;&lt;font style=&quot;font-size: 15px;&quot;&gt;&lt;span style=&quot;white-space: pre;&quot;&gt;&#x9;&lt;/span&gt;&lt;span style=&quot;background-color: initial;&quot;&gt;在等待过程中发生异常或者线程被中断&lt;/span&gt;&lt;/font&gt;&lt;span style=&quot;font-size: 15px;&quot;&gt;&lt;br&gt;&lt;/span&gt;&lt;/div&gt;&lt;div&gt;&lt;font style=&quot;font-size: 15px;&quot;&gt;&lt;span style=&quot;background-color: initial;&quot;&gt;&lt;span style=&quot;white-space: pre;&quot;&gt;&#x9;&lt;/span&gt;移出阻塞队列，可能唤醒下一个等待的节点&lt;br&gt;&lt;/span&gt;&lt;/font&gt;&lt;/div&gt;" style="text;html=1;align=left;verticalAlign=middle;resizable=0;points=[];autosize=1;strokeColor=none;fillColor=none;" vertex="1" parent="1">
          <mxGeometry x="390" y="242.5" width="340" height="70" as="geometry" />
        </mxCell>
        <mxCell id="f3oY8Qm6XaTq2EdM98An-10" value="&lt;font style=&quot;font-size: 15px;&quot;&gt;shouldParkAfterFailedAcquire&lt;/font&gt;&lt;div&gt;&lt;font style=&quot;font-size: 15px;&quot;&gt;&lt;span style=&quot;background-color: initial;&quot;&gt;&lt;span style=&quot;white-space: pre;&quot;&gt;&#x9;&lt;/span&gt;1. 如果前驱节点的状态是 SIGNAL，说明当前节点可以安全地阻塞&lt;/span&gt;&lt;/font&gt;&lt;/div&gt;&lt;div&gt;&lt;font style=&quot;font-size: 15px;&quot;&gt;&lt;font style=&quot;&quot;&gt;&lt;span style=&quot;background-color: initial; white-space: pre;&quot;&gt;&lt;span style=&quot;white-space: pre;&quot;&gt;&#x9;&lt;/span&gt;2. &lt;/span&gt;&lt;/font&gt;&lt;span style=&quot;background-color: initial;&quot;&gt;如果前驱节点的状态 &amp;gt; 0（CANCELLED），则跳过取消的节点，向前寻找一个有效的节点&lt;/span&gt;&lt;/font&gt;&lt;/div&gt;&lt;div&gt;&lt;font style=&quot;&quot;&gt;&lt;font style=&quot;font-size: 15px;&quot;&gt;&lt;span style=&quot;background-color: initial;&quot;&gt;&lt;span style=&quot;white-space: pre;&quot;&gt;&#x9;&lt;/span&gt;3.&amp;nbsp;&lt;/span&gt;&lt;span style=&quot;background-color: initial;&quot;&gt;如果前驱节点的状态是 0 或 PROPAGATE，设置为 SIGNAL，表示会通知当前节点&lt;/span&gt;&lt;/font&gt;&lt;span style=&quot;font-size: 15px; background-color: initial;&quot;&gt;&lt;br&gt;&lt;/span&gt;&lt;/font&gt;&lt;/div&gt;&lt;div&gt;&lt;font style=&quot;&quot;&gt;&lt;font style=&quot;font-size: 15px;&quot;&gt;&lt;span style=&quot;background-color: initial;&quot;&gt;&lt;br&gt;&lt;/span&gt;&lt;/font&gt;&lt;/font&gt;&lt;/div&gt;&lt;div&gt;&lt;font style=&quot;&quot;&gt;&lt;font style=&quot;font-size: 15px;&quot;&gt;&lt;span style=&quot;background-color: initial;&quot;&gt;&lt;span style=&quot;white-space: pre;&quot;&gt;&#x9;&lt;/span&gt;节点状态说明：&lt;/span&gt;&lt;code style=&quot;background-color: initial; font-size: 12px;&quot;&gt;SIGNAL (-1)&lt;/code&gt;&lt;span style=&quot;background-color: initial; font-size: 12px;&quot;&gt;：表示当前节点会唤醒其后继节点&lt;/span&gt;&lt;/font&gt;&lt;/font&gt;&lt;span style=&quot;background-color: initial; white-space: pre;&quot;&gt;&#x9;&lt;/span&gt;&lt;span style=&quot;background-color: initial; white-space: pre;&quot;&gt;&#x9;&lt;/span&gt;&lt;span style=&quot;background-color: initial; white-space: pre;&quot;&gt;&#x9;&lt;/span&gt;&lt;span style=&quot;background-color: initial; white-space: pre;&quot;&gt;&#x9;&lt;/span&gt;&lt;span style=&quot;background-color: initial; white-space: pre;&quot;&gt;&#x9;&lt;/span&gt;&lt;/div&gt;&lt;div&gt;&lt;code style=&quot;background-color: initial;&quot;&gt;&lt;span style=&quot;white-space: pre;&quot;&gt;&#x9;&lt;/span&gt;&lt;span style=&quot;white-space: pre;&quot;&gt;&#x9;&lt;/span&gt;&amp;nbsp; &amp;nbsp; CANCELLED (1)&lt;/code&gt;&lt;span style=&quot;background-color: initial;&quot;&gt;：表示节点已取消排队&lt;/span&gt;&lt;/div&gt;&lt;div&gt;&lt;span style=&quot;background-color: initial;&quot;&gt;&lt;span style=&quot;white-space: pre;&quot;&gt;&#x9;&lt;/span&gt;&lt;span style=&quot;white-space: pre;&quot;&gt;&#x9;&lt;/span&gt;&lt;span style=&quot;white-space: pre;&quot;&gt;&#x9;&lt;/span&gt;&lt;span style=&quot;white-space: pre;&quot;&gt;&#x9;&lt;/span&gt;&lt;span style=&quot;white-space: pre;&quot;&gt;&#x9;&lt;/span&gt;&amp;nbsp;&amp;nbsp;&lt;/span&gt;&lt;code style=&quot;background-color: initial;&quot;&gt;PROPAGATE (-3)&lt;/code&gt;&lt;span style=&quot;background-color: initial;&quot;&gt;：表示共享锁释放时的传播状态&lt;/span&gt;&lt;span style=&quot;background-color: initial;&quot;&gt;&lt;br&gt;&lt;/span&gt;&lt;/div&gt;" style="rounded=1;whiteSpace=wrap;html=1;align=left;" vertex="1" parent="1">
          <mxGeometry x="30" y="410" width="530" height="250" as="geometry" />
        </mxCell>
        <mxCell id="f3oY8Qm6XaTq2EdM98An-11" style="edgeStyle=orthogonalEdgeStyle;rounded=0;orthogonalLoop=1;jettySize=auto;html=1;entryX=1;entryY=0.517;entryDx=0;entryDy=0;entryPerimeter=0;curved=1;exitX=1;exitY=0.5;exitDx=0;exitDy=0;" edge="1" parent="1" source="f3oY8Qm6XaTq2EdM98An-10" target="f3oY8Qm6XaTq2EdM98An-8">
          <mxGeometry relative="1" as="geometry" />
        </mxCell>
      </root>
    </mxGraphModel>
  </diagram>
</mxfile>
